{"glyphs":{"0":{"ha":833,"x_min":104,"x_max":729,"o":"m 417 972 q 649 845 569 972 q 729 479 729 718 q 649 112 729 239 q 417 -15 569 -15 q 184 112 264 -15 q 104 479 104 239 q 184 845 104 718 q 417 972 264 972 m 417 878 q 226 479 226 878 q 417 79 226 79 q 607 479 607 79 q 417 878 607 878 m 417 569 q 482 543 456 569 q 508 479 508 517 q 482 414 508 440 q 417 388 456 388 q 352 414 378 388 q 326 479 326 440 q 352 543 326 517 q 417 569 378 569 z "},"1":{"ha":833,"x_min":132,"x_max":718,"o":"m 718 94 l 718 0 l 167 0 l 167 94 l 401 94 l 401 829 l 183 697 l 132 779 l 417 957 l 519 957 l 519 94 l 718 94 z "},"2":{"ha":833,"x_min":82,"x_max":685,"o":"m 374 972 q 527 938 461 972 q 628 842 593 903 q 663 706 663 782 q 622 533 663 617 q 490 351 581 450 q 235 100 400 251 l 685 100 l 671 0 l 101 0 l 101 94 q 380 375 289 274 q 506 549 471 476 q 540 701 540 621 q 494 828 540 782 q 368 874 449 874 q 255 851 300 874 q 163 772 210 828 l 82 835 q 209 939 139 906 q 374 972 279 972 z "},"3":{"ha":833,"x_min":72,"x_max":697,"o":"m 374 972 q 528 940 461 972 q 631 852 594 907 q 667 732 667 797 q 613 587 667 649 q 481 510 558 525 q 634 442 571 503 q 697 275 697 381 q 656 126 697 193 q 538 22 614 60 q 365 -15 463 -15 q 202 17 281 -15 q 72 111 124 49 l 150 175 q 245 105 189 129 q 363 81 301 81 q 519 133 463 81 q 575 275 575 185 q 376 457 575 457 l 297 457 l 311 550 l 368 550 q 496 592 443 550 q 549 717 549 635 q 498 835 549 793 q 368 878 447 878 q 262 857 308 878 q 165 790 215 836 l 101 861 q 374 972 218 972 z "},"4":{"ha":833,"x_min":100,"x_max":733,"o":"m 733 232 l 610 232 l 610 0 l 497 0 l 497 232 l 100 232 l 100 318 l 381 972 l 478 931 l 224 326 l 499 326 l 508 597 l 610 597 l 610 326 l 733 326 l 733 232 z "},"5":{"ha":833,"x_min":107,"x_max":708,"o":"m 660 863 l 282 863 l 282 561 q 362 594 322 585 q 446 603 401 603 q 637 524 565 603 q 708 303 708 444 q 669 136 708 208 q 556 24 629 64 q 385 -15 482 -15 q 107 99 225 -15 l 179 169 q 385 81 267 81 q 533 139 481 81 q 586 307 586 197 q 539 463 586 415 q 413 511 492 511 q 344 504 375 511 q 264 479 314 497 l 169 479 l 169 957 l 676 957 l 660 863 z "},"6":{"ha":833,"x_min":110,"x_max":729,"o":"m 458 622 q 595 589 533 622 q 693 488 657 556 q 729 322 729 421 q 689 142 729 219 q 581 25 649 65 q 428 -15 513 -15 q 185 106 261 -15 q 110 451 110 226 q 152 727 110 610 q 274 908 194 844 q 465 972 354 972 q 656 915 569 972 l 610 838 q 464 878 542 878 q 292 775 354 878 q 228 494 231 672 q 329 592 272 561 q 458 622 386 622 m 428 79 q 563 142 517 79 q 610 318 610 206 q 440 528 610 528 q 320 491 374 528 q 229 392 267 454 q 279 154 232 229 q 428 79 326 79 z "},"7":{"ha":833,"x_min":135,"x_max":701,"o":"m 211 19 l 583 860 l 135 860 l 135 957 l 701 957 l 701 867 l 319 -12 l 211 19 z "},"8":{"ha":833,"x_min":90,"x_max":743,"o":"m 703 729 q 661 610 703 661 q 538 513 619 558 q 689 407 635 472 q 743 257 743 342 q 703 117 743 179 q 588 19 663 54 q 414 -15 513 -15 q 240 20 314 -15 q 128 117 167 56 q 90 254 90 178 q 283 504 90 414 q 167 592 204 542 q 131 722 131 643 q 174 861 131 804 q 283 945 217 918 q 417 972 349 972 q 556 946 490 972 q 662 865 621 919 q 703 729 703 810 m 244 721 q 269 637 244 668 q 333 587 293 606 q 456 542 374 568 q 558 623 526 583 q 589 724 589 663 q 544 838 589 796 q 417 881 499 881 q 290 839 335 881 q 244 721 244 797 m 619 254 q 589 353 619 315 q 509 414 558 392 q 363 471 460 436 q 214 254 214 401 q 265 126 214 172 q 414 79 317 79 q 565 128 511 79 q 619 254 619 176 z "},"9":{"ha":833,"x_min":92,"x_max":714,"o":"m 401 971 q 636 874 558 971 q 714 601 714 776 q 662 281 714 400 q 502 92 610 161 q 204 -29 394 24 l 176 60 q 485 208 381 114 q 590 468 589 303 q 497 383 554 417 q 364 350 439 350 q 223 388 285 350 q 126 494 161 425 q 92 656 92 563 q 133 826 92 756 q 244 934 174 897 q 401 971 314 971 m 383 444 q 501 478 450 444 q 593 572 553 511 q 550 808 596 739 q 401 876 504 876 q 261 819 308 876 q 214 651 214 763 q 258 495 214 546 q 383 444 301 444 z "},"\r":{"ha":833,"x_min":0,"x_max":0,"o":""}," ":{"ha":833,"x_min":0,"x_max":0,"o":""},"A":{"ha":833,"x_min":28,"x_max":804,"o":"m 224 244 l 147 0 l 28 0 l 340 957 l 493 957 l 804 0 l 679 0 l 603 244 l 224 244 m 571 344 l 414 854 l 256 344 l 571 344 z "},"Á":{"ha":833,"x_min":28,"x_max":804,"o":"m 224 244 l 147 0 l 28 0 l 340 957 l 493 957 l 804 0 l 679 0 l 603 244 l 224 244 m 571 344 l 414 854 l 256 344 l 571 344 m 583 1158 l 288 1049 l 257 1113 l 532 1258 l 583 1158 z "},"Ă":{"ha":833,"x_min":28,"x_max":804,"o":"m 224 244 l 147 0 l 28 0 l 340 957 l 493 957 l 804 0 l 679 0 l 603 244 l 224 244 m 571 344 l 414 854 l 256 344 l 571 344 m 414 1054 q 275 1099 333 1054 q 210 1219 217 1144 l 289 1238 q 414 1144 324 1144 q 494 1169 461 1144 q 543 1238 528 1194 l 624 1219 q 556 1099 615 1144 q 414 1054 496 1054 z "},"Â":{"ha":833,"x_min":28,"x_max":804,"o":"m 224 244 l 147 0 l 28 0 l 340 957 l 493 957 l 804 0 l 679 0 l 603 244 l 224 244 m 571 344 l 414 854 l 256 344 l 571 344 m 643 1115 l 592 1056 l 417 1168 l 243 1056 l 190 1115 l 378 1264 l 457 1264 l 643 1115 z "},"Ä":{"ha":833,"x_min":28,"x_max":804,"o":"m 224 244 l 147 0 l 28 0 l 340 957 l 493 957 l 804 0 l 679 0 l 603 244 l 224 244 m 571 344 l 414 854 l 256 344 l 571 344 m 274 1067 q 219 1088 240 1067 q 197 1140 197 1108 q 219 1194 197 1172 q 274 1215 240 1215 q 327 1194 306 1215 q 349 1140 349 1172 q 327 1088 349 1108 q 274 1067 306 1067 m 560 1067 q 506 1088 528 1067 q 485 1140 485 1108 q 506 1194 485 1172 q 560 1215 528 1215 q 614 1194 592 1215 q 636 1140 636 1172 q 614 1088 636 1108 q 560 1067 592 1067 z "},"À":{"ha":833,"x_min":28,"x_max":804,"o":"m 224 244 l 147 0 l 28 0 l 340 957 l 493 957 l 804 0 l 679 0 l 603 244 l 224 244 m 571 344 l 414 854 l 256 344 l 571 344 m 578 1113 l 542 1049 l 257 1163 l 321 1263 l 578 1113 z "},"Ā":{"ha":833,"x_min":28,"x_max":804,"o":"m 224 244 l 147 0 l 28 0 l 340 957 l 493 957 l 804 0 l 679 0 l 603 244 l 224 244 m 571 344 l 414 854 l 256 344 l 571 344 m 229 1104 l 229 1193 l 603 1193 l 603 1104 l 229 1104 z "},"Ą":{"ha":833,"x_min":28,"x_max":804,"o":"m 749 0 q 613 -81 649 -43 q 576 -158 576 -118 q 594 -208 576 -192 q 654 -225 613 -225 q 739 -215 692 -225 l 728 -310 q 639 -318 669 -318 q 515 -280 561 -318 q 469 -182 469 -242 q 671 24 469 -51 l 603 244 l 224 244 l 147 0 l 28 0 l 340 957 l 493 957 l 804 0 l 749 0 m 571 344 l 414 854 l 256 344 l 571 344 z "},"Å":{"ha":833,"x_min":28,"x_max":804,"o":"m 224 244 l 147 0 l 28 0 l 340 957 l 493 957 l 804 0 l 679 0 l 603 244 l 224 244 m 571 344 l 414 854 l 256 344 l 571 344 m 418 1310 q 528 1269 485 1310 q 571 1167 571 1228 q 527 1066 571 1107 q 418 1025 483 1025 q 307 1066 351 1025 q 263 1167 263 1107 q 307 1269 263 1228 q 418 1310 351 1310 m 418 1246 q 363 1224 383 1246 q 342 1167 342 1203 q 363 1109 342 1131 q 418 1088 383 1088 q 472 1109 453 1088 q 492 1167 492 1131 q 472 1224 492 1203 q 418 1246 453 1246 z "},"Ã":{"ha":833,"x_min":28,"x_max":804,"o":"m 224 244 l 147 0 l 28 0 l 340 957 l 493 957 l 804 0 l 679 0 l 603 244 l 224 244 m 571 344 l 414 854 l 256 344 l 571 344 m 499 1081 q 451 1090 472 1081 q 403 1118 429 1100 q 367 1140 382 1133 q 336 1147 351 1147 q 297 1132 314 1147 q 263 1083 281 1117 l 189 1121 q 338 1238 246 1238 q 387 1228 365 1238 q 433 1200 408 1218 q 469 1178 456 1185 q 499 1171 483 1171 q 536 1185 519 1171 q 572 1232 553 1200 l 646 1194 q 499 1081 593 1081 z "},"Æ":{"ha":833,"x_min":-17,"x_max":843,"o":"m 175 243 l 107 0 l -17 0 l 264 957 l 786 957 l 772 858 l 444 858 l 515 535 l 774 535 l 774 436 l 533 436 l 606 99 l 843 99 l 843 0 l 508 0 l 458 243 l 175 243 m 436 344 l 335 861 l 206 344 l 436 344 z "},"Ǽ":{"ha":833,"x_min":-17,"x_max":843,"o":"m 175 243 l 107 0 l -17 0 l 264 957 l 786 957 l 772 858 l 444 858 l 515 535 l 774 535 l 774 436 l 533 436 l 606 99 l 843 99 l 843 0 l 508 0 l 458 243 l 175 243 m 436 344 l 335 861 l 206 344 l 436 344 m 668 1158 l 372 1049 l 342 1113 l 617 1258 l 668 1158 z "},"B":{"ha":833,"x_min":133,"x_max":750,"o":"m 750 272 q 647 64 750 128 q 392 0 543 0 l 133 0 l 133 957 l 369 957 q 612 901 515 957 q 708 715 708 844 q 657 577 708 629 q 529 507 606 525 q 750 272 750 469 m 585 708 q 536 823 585 788 q 397 858 488 858 l 254 858 l 254 550 l 408 550 q 585 708 585 550 m 622 268 q 567 410 622 369 q 417 450 513 450 l 254 450 l 254 100 l 413 100 q 561 136 500 100 q 622 268 622 172 z "},"C":{"ha":833,"x_min":88,"x_max":789,"o":"m 497 972 q 650 949 586 972 q 775 879 714 926 l 707 800 q 506 871 622 871 q 295 777 376 871 q 214 479 214 683 q 293 182 214 276 q 504 88 372 88 q 628 108 576 88 q 726 167 679 129 l 789 89 q 503 -15 682 -15 q 290 42 385 -15 q 142 211 196 100 q 88 479 88 322 q 142 747 88 635 q 291 915 197 858 q 497 972 385 972 z "},"Ć":{"ha":833,"x_min":88,"x_max":789,"o":"m 497 972 q 650 949 586 972 q 775 879 714 926 l 707 800 q 506 871 622 871 q 295 777 376 871 q 214 479 214 683 q 293 182 214 276 q 504 88 372 88 q 628 108 576 88 q 726 167 679 129 l 789 89 q 503 -15 682 -15 q 290 42 385 -15 q 142 211 196 100 q 88 479 88 322 q 142 747 88 635 q 291 915 197 858 q 497 972 385 972 m 674 1158 l 378 1049 l 347 1113 l 622 1258 l 674 1158 z "},"Č":{"ha":833,"x_min":88,"x_max":789,"o":"m 497 972 q 650 949 586 972 q 775 879 714 926 l 707 800 q 506 871 622 871 q 295 777 376 871 q 214 479 214 683 q 293 182 214 276 q 504 88 372 88 q 628 108 576 88 q 726 167 679 129 l 789 89 q 503 -15 682 -15 q 290 42 385 -15 q 142 211 196 100 q 88 479 88 322 q 142 747 88 635 q 291 915 197 858 q 497 972 385 972 m 733 1197 l 547 1047 l 468 1047 l 281 1197 l 333 1257 l 507 1144 l 682 1257 l 733 1197 z "},"Ç":{"ha":833,"x_min":88,"x_max":789,"o":"m 514 -79 q 610 -117 578 -85 q 643 -194 643 -150 q 594 -295 643 -260 q 474 -331 544 -331 q 394 -322 432 -331 q 328 -297 356 -312 l 365 -231 q 458 -253 407 -253 q 542 -196 542 -253 q 513 -147 542 -160 q 422 -135 483 -135 l 431 -10 q 253 69 331 7 q 131 235 175 131 q 88 479 88 339 q 142 747 88 635 q 291 915 197 858 q 497 972 385 972 q 650 949 586 972 q 775 879 714 926 l 707 800 q 506 871 622 871 q 295 777 376 871 q 214 479 214 683 q 293 182 214 276 q 504 88 372 88 q 628 108 576 88 q 726 167 679 129 l 789 89 q 514 -15 686 -11 l 514 -79 z "},"Ĉ":{"ha":833,"x_min":88,"x_max":789,"o":"m 497 972 q 650 949 586 972 q 775 879 714 926 l 707 800 q 506 871 622 871 q 295 777 376 871 q 214 479 214 683 q 293 182 214 276 q 504 88 372 88 q 628 108 576 88 q 726 167 679 129 l 789 89 q 503 -15 682 -15 q 290 42 385 -15 q 142 211 196 100 q 88 479 88 322 q 142 747 88 635 q 291 915 197 858 q 497 972 385 972 m 733 1115 l 682 1056 l 507 1168 l 333 1056 l 281 1115 l 468 1264 l 547 1264 l 733 1115 z "},"Ċ":{"ha":833,"x_min":88,"x_max":789,"o":"m 497 972 q 650 949 586 972 q 775 879 714 926 l 707 800 q 506 871 622 871 q 295 777 376 871 q 214 479 214 683 q 293 182 214 276 q 504 88 372 88 q 628 108 576 88 q 726 167 679 129 l 789 89 q 503 -15 682 -15 q 290 42 385 -15 q 142 211 196 100 q 88 479 88 322 q 142 747 88 635 q 291 915 197 858 q 497 972 385 972 m 506 1240 q 567 1217 543 1240 q 592 1158 592 1193 q 567 1099 592 1122 q 506 1075 543 1075 q 445 1099 468 1075 q 422 1158 422 1122 q 445 1217 422 1193 q 506 1240 468 1240 z "},"D":{"ha":833,"x_min":115,"x_max":768,"o":"m 768 483 q 643 106 768 211 q 335 0 518 0 l 115 0 l 115 957 l 319 957 q 644 856 521 957 q 768 483 768 754 m 639 483 q 597 722 639 639 q 492 831 554 804 q 349 858 429 858 l 236 858 l 236 97 l 350 97 q 556 183 474 97 q 639 483 639 268 z "},"Ð":{"ha":833,"x_min":28,"x_max":781,"o":"m 333 957 q 657 856 533 957 q 781 483 781 754 q 656 106 781 211 q 349 0 532 0 l 129 0 l 129 444 l 28 444 l 28 536 l 129 536 l 129 957 l 333 957 m 364 97 q 570 183 488 97 q 653 483 653 268 q 571 783 653 707 q 363 858 489 858 l 250 858 l 250 536 l 469 536 l 469 444 l 250 444 l 250 97 l 364 97 z "},"Ď":{"ha":833,"x_min":115,"x_max":768,"o":"m 768 483 q 643 106 768 211 q 335 0 518 0 l 115 0 l 115 957 l 319 957 q 644 856 521 957 q 768 483 768 754 m 639 483 q 597 722 639 639 q 492 831 554 804 q 349 858 429 858 l 236 858 l 236 97 l 350 97 q 556 183 474 97 q 639 483 639 268 m 621 1197 l 435 1047 l 356 1047 l 168 1197 l 221 1257 l 394 1144 l 569 1257 l 621 1197 z "},"Đ":{"ha":833,"x_min":28,"x_max":781,"o":"m 333 957 q 657 856 533 957 q 781 483 781 754 q 656 106 781 211 q 349 0 532 0 l 129 0 l 129 444 l 28 444 l 28 536 l 129 536 l 129 957 l 333 957 m 364 97 q 570 183 488 97 q 653 483 653 268 q 571 783 653 707 q 363 858 489 858 l 250 858 l 250 536 l 469 536 l 469 444 l 250 444 l 250 97 l 364 97 z "},"E":{"ha":833,"x_min":175,"x_max":731,"o":"m 294 535 l 650 535 l 650 436 l 294 436 l 294 97 l 731 97 l 731 0 l 175 0 l 175 957 l 718 957 l 704 857 l 294 857 l 294 535 z "},"É":{"ha":833,"x_min":175,"x_max":731,"o":"m 294 535 l 650 535 l 650 436 l 294 436 l 294 97 l 731 97 l 731 0 l 175 0 l 175 957 l 718 957 l 704 857 l 294 857 l 294 535 m 613 1158 l 317 1049 l 286 1113 l 561 1258 l 613 1158 z "},"Ĕ":{"ha":833,"x_min":175,"x_max":731,"o":"m 294 535 l 650 535 l 650 436 l 294 436 l 294 97 l 731 97 l 731 0 l 175 0 l 175 957 l 718 957 l 704 857 l 294 857 l 294 535 m 443 1054 q 304 1099 363 1054 q 239 1219 246 1144 l 318 1238 q 443 1144 353 1144 q 524 1169 490 1144 q 572 1238 557 1194 l 653 1219 q 585 1099 644 1144 q 443 1054 525 1054 z "},"Ě":{"ha":833,"x_min":175,"x_max":731,"o":"m 294 535 l 650 535 l 650 436 l 294 436 l 294 97 l 731 97 l 731 0 l 175 0 l 175 957 l 718 957 l 704 857 l 294 857 l 294 535 m 672 1197 l 486 1047 l 407 1047 l 219 1197 l 272 1257 l 446 1144 l 621 1257 l 672 1197 z "},"Ê":{"ha":833,"x_min":175,"x_max":731,"o":"m 294 535 l 650 535 l 650 436 l 294 436 l 294 97 l 731 97 l 731 0 l 175 0 l 175 957 l 718 957 l 704 857 l 294 857 l 294 535 m 672 1115 l 621 1056 l 446 1168 l 272 1056 l 219 1115 l 407 1264 l 486 1264 l 672 1115 z "},"Ë":{"ha":833,"x_min":175,"x_max":731,"o":"m 294 535 l 650 535 l 650 436 l 294 436 l 294 97 l 731 97 l 731 0 l 175 0 l 175 957 l 718 957 l 704 857 l 294 857 l 294 535 m 303 1067 q 248 1088 269 1067 q 226 1140 226 1108 q 248 1194 226 1172 q 303 1215 269 1215 q 356 1194 335 1215 q 378 1140 378 1172 q 356 1088 378 1108 q 303 1067 335 1067 m 589 1067 q 535 1088 557 1067 q 514 1140 514 1108 q 535 1194 514 1172 q 589 1215 557 1215 q 643 1194 621 1215 q 665 1140 665 1172 q 643 1088 665 1108 q 589 1067 621 1067 z "},"Ė":{"ha":833,"x_min":175,"x_max":731,"o":"m 294 535 l 650 535 l 650 436 l 294 436 l 294 97 l 731 97 l 731 0 l 175 0 l 175 957 l 718 957 l 704 857 l 294 857 l 294 535 m 444 1240 q 506 1217 482 1240 q 531 1158 531 1193 q 506 1099 531 1122 q 444 1075 482 1075 q 384 1099 407 1075 q 361 1158 361 1122 q 384 1217 361 1193 q 444 1240 407 1240 z "},"È":{"ha":833,"x_min":175,"x_max":731,"o":"m 294 535 l 650 535 l 650 436 l 294 436 l 294 97 l 731 97 l 731 0 l 175 0 l 175 957 l 718 957 l 704 857 l 294 857 l 294 535 m 607 1113 l 571 1049 l 286 1163 l 350 1263 l 607 1113 z "},"Ē":{"ha":833,"x_min":175,"x_max":731,"o":"m 294 535 l 650 535 l 650 436 l 294 436 l 294 97 l 731 97 l 731 0 l 175 0 l 175 957 l 718 957 l 704 857 l 294 857 l 294 535 m 258 1104 l 258 1193 l 632 1193 l 632 1104 l 258 1104 z "},"Ę":{"ha":833,"x_min":175,"x_max":731,"o":"m 731 97 l 731 0 l 650 0 q 514 -81 550 -43 q 478 -158 478 -118 q 496 -208 478 -192 q 556 -225 514 -225 q 640 -215 593 -225 l 629 -310 q 540 -318 571 -318 q 417 -280 463 -318 q 371 -182 371 -242 q 517 0 371 -71 l 175 0 l 175 957 l 718 957 l 704 857 l 294 857 l 294 535 l 650 535 l 650 436 l 294 436 l 294 97 l 731 97 z "},"F":{"ha":833,"x_min":192,"x_max":756,"o":"m 313 522 l 688 522 l 688 425 l 313 425 l 313 0 l 192 0 l 192 957 l 756 957 l 742 857 l 313 857 l 313 522 z "},"G":{"ha":833,"x_min":63,"x_max":749,"o":"m 436 -15 q 162 110 261 -15 q 63 479 63 236 q 118 749 63 638 q 265 916 174 860 q 464 972 357 972 q 615 947 554 972 q 736 867 676 922 l 664 792 q 572 851 619 832 q 464 871 524 871 q 269 778 347 871 q 192 479 192 685 q 255 181 192 275 q 446 86 318 86 q 628 132 547 86 l 628 422 l 440 422 l 426 524 l 749 524 l 749 68 q 603 6 676 28 q 436 -15 531 -15 z "},"Ğ":{"ha":833,"x_min":63,"x_max":749,"o":"m 436 -15 q 162 110 261 -15 q 63 479 63 236 q 118 749 63 638 q 265 916 174 860 q 464 972 357 972 q 615 947 554 972 q 736 867 676 922 l 664 792 q 572 851 619 832 q 464 871 524 871 q 269 778 347 871 q 192 479 192 685 q 255 181 192 275 q 446 86 318 86 q 628 132 547 86 l 628 422 l 440 422 l 426 524 l 749 524 l 749 68 q 603 6 676 28 q 436 -15 531 -15 m 456 1054 q 317 1099 375 1054 q 251 1219 258 1144 l 331 1238 q 456 1144 365 1144 q 536 1169 503 1144 q 585 1238 569 1194 l 665 1219 q 597 1099 657 1144 q 456 1054 538 1054 z "},"Ĝ":{"ha":833,"x_min":63,"x_max":749,"o":"m 436 -15 q 162 110 261 -15 q 63 479 63 236 q 118 749 63 638 q 265 916 174 860 q 464 972 357 972 q 615 947 554 972 q 736 867 676 922 l 664 792 q 572 851 619 832 q 464 871 524 871 q 269 778 347 871 q 192 479 192 685 q 255 181 192 275 q 446 86 318 86 q 628 132 547 86 l 628 422 l 440 422 l 426 524 l 749 524 l 749 68 q 603 6 676 28 q 436 -15 531 -15 m 685 1115 l 633 1056 l 458 1168 l 285 1056 l 232 1115 l 419 1264 l 499 1264 l 685 1115 z "},"Ģ":{"ha":833,"x_min":63,"x_max":749,"o":"m 436 -15 q 162 110 261 -15 q 63 479 63 236 q 118 749 63 638 q 265 916 174 860 q 464 972 357 972 q 615 947 554 972 q 736 867 676 922 l 664 792 q 572 851 619 832 q 464 871 524 871 q 269 778 347 871 q 192 479 192 685 q 255 181 192 275 q 446 86 318 86 q 628 132 547 86 l 628 422 l 440 422 l 426 524 l 749 524 l 749 68 q 603 6 676 28 q 436 -15 531 -15 m 463 -99 q 517 -120 494 -99 q 539 -172 539 -142 q 518 -249 539 -201 l 447 -397 l 378 -397 l 418 -235 q 388 -172 388 -211 q 409 -119 388 -140 q 463 -99 431 -99 z "},"Ġ":{"ha":833,"x_min":63,"x_max":749,"o":"m 436 -15 q 162 110 261 -15 q 63 479 63 236 q 118 749 63 638 q 265 916 174 860 q 464 972 357 972 q 615 947 554 972 q 736 867 676 922 l 664 792 q 572 851 619 832 q 464 871 524 871 q 269 778 347 871 q 192 479 192 685 q 255 181 192 275 q 446 86 318 86 q 628 132 547 86 l 628 422 l 440 422 l 426 524 l 749 524 l 749 68 q 603 6 676 28 q 436 -15 531 -15 m 457 1240 q 519 1217 494 1240 q 543 1158 543 1193 q 519 1099 543 1122 q 457 1075 494 1075 q 397 1099 419 1075 q 374 1158 374 1122 q 397 1217 374 1193 q 457 1240 419 1240 z "},"H":{"ha":833,"x_min":115,"x_max":718,"o":"m 597 454 l 236 454 l 236 0 l 115 0 l 115 957 l 236 957 l 236 553 l 597 553 l 597 957 l 718 957 l 718 0 l 597 0 l 597 454 z "},"Ħ":{"ha":833,"x_min":3,"x_max":831,"o":"m 831 707 l 718 707 l 718 0 l 599 0 l 599 453 l 235 453 l 235 0 l 115 0 l 115 707 l 3 707 l 3 799 l 115 799 l 115 957 l 235 957 l 235 799 l 599 799 l 599 957 l 718 957 l 718 799 l 831 799 l 831 707 m 599 707 l 235 707 l 235 553 l 599 553 l 599 707 z "},"Ĥ":{"ha":833,"x_min":115,"x_max":718,"o":"m 597 454 l 236 454 l 236 0 l 115 0 l 115 957 l 236 957 l 236 553 l 597 553 l 597 957 l 718 957 l 718 0 l 597 0 l 597 454 m 643 1115 l 592 1056 l 417 1168 l 243 1056 l 190 1115 l 378 1264 l 457 1264 l 643 1115 z "},"I":{"ha":833,"x_min":143,"x_max":690,"o":"m 690 860 l 478 860 l 478 96 l 690 96 l 690 0 l 143 0 l 143 96 l 356 96 l 356 860 l 143 860 l 143 957 l 690 957 l 690 860 z "},"Ĳ":{"ha":833,"x_min":15,"x_max":739,"o":"m 269 -99 q 483 -38 407 -85 q 589 83 560 8 q 618 268 618 157 l 618 857 l 279 857 l 279 100 l 390 100 l 390 0 l 15 0 l 15 100 l 154 100 l 154 857 l 15 857 l 15 957 l 739 957 l 739 261 q 639 -46 739 74 q 283 -189 539 -165 l 269 -99 z "},"Í":{"ha":833,"x_min":143,"x_max":690,"o":"m 690 860 l 478 860 l 478 96 l 690 96 l 690 0 l 143 0 l 143 96 l 356 96 l 356 860 l 143 860 l 143 957 l 690 957 l 690 860 m 583 1158 l 288 1049 l 257 1113 l 532 1258 l 583 1158 z "},"Ĭ":{"ha":833,"x_min":143,"x_max":690,"o":"m 690 860 l 478 860 l 478 96 l 690 96 l 690 0 l 143 0 l 143 96 l 356 96 l 356 860 l 143 860 l 143 957 l 690 957 l 690 860 m 414 1054 q 275 1099 333 1054 q 210 1219 217 1144 l 289 1238 q 414 1144 324 1144 q 494 1169 461 1144 q 543 1238 528 1194 l 624 1219 q 556 1099 615 1144 q 414 1054 496 1054 z "},"Î":{"ha":833,"x_min":143,"x_max":690,"o":"m 690 860 l 478 860 l 478 96 l 690 96 l 690 0 l 143 0 l 143 96 l 356 96 l 356 860 l 143 860 l 143 957 l 690 957 l 690 860 m 643 1115 l 592 1056 l 417 1168 l 243 1056 l 190 1115 l 378 1264 l 457 1264 l 643 1115 z "},"Ï":{"ha":833,"x_min":143,"x_max":690,"o":"m 690 860 l 478 860 l 478 96 l 690 96 l 690 0 l 143 0 l 143 96 l 356 96 l 356 860 l 143 860 l 143 957 l 690 957 l 690 860 m 274 1067 q 219 1088 240 1067 q 197 1140 197 1108 q 219 1194 197 1172 q 274 1215 240 1215 q 327 1194 306 1215 q 349 1140 349 1172 q 327 1088 349 1108 q 274 1067 306 1067 m 560 1067 q 506 1088 528 1067 q 485 1140 485 1108 q 506 1194 485 1172 q 560 1215 528 1215 q 614 1194 592 1215 q 636 1140 636 1172 q 614 1088 636 1108 q 560 1067 592 1067 z "},"İ":{"ha":833,"x_min":143,"x_max":690,"o":"m 690 860 l 478 860 l 478 96 l 690 96 l 690 0 l 143 0 l 143 96 l 356 96 l 356 860 l 143 860 l 143 957 l 690 957 l 690 860 m 415 1240 q 477 1217 453 1240 q 501 1158 501 1193 q 477 1099 501 1122 q 415 1075 453 1075 q 355 1099 378 1075 q 332 1158 332 1122 q 355 1217 332 1193 q 415 1240 378 1240 z "},"Ì":{"ha":833,"x_min":143,"x_max":690,"o":"m 690 860 l 478 860 l 478 96 l 690 96 l 690 0 l 143 0 l 143 96 l 356 96 l 356 860 l 143 860 l 143 957 l 690 957 l 690 860 m 578 1113 l 542 1049 l 257 1163 l 321 1263 l 578 1113 z "},"Ī":{"ha":833,"x_min":143,"x_max":690,"o":"m 690 860 l 478 860 l 478 96 l 690 96 l 690 0 l 143 0 l 143 96 l 356 96 l 356 860 l 143 860 l 143 957 l 690 957 l 690 860 m 229 1104 l 229 1193 l 603 1193 l 603 1104 l 229 1104 z "},"Į":{"ha":833,"x_min":143,"x_max":690,"o":"m 478 860 l 478 96 l 690 96 l 690 0 l 478 0 q 342 -81 378 -43 q 306 -158 306 -118 q 324 -208 306 -192 q 383 -225 342 -225 q 468 -215 421 -225 l 457 -310 q 368 -318 399 -318 q 244 -280 290 -318 q 199 -182 199 -242 q 344 0 199 -71 l 143 0 l 143 96 l 356 96 l 356 860 l 143 860 l 143 957 l 690 957 l 690 860 l 478 860 z "},"Ĩ":{"ha":833,"x_min":143,"x_max":690,"o":"m 690 860 l 478 860 l 478 96 l 690 96 l 690 0 l 143 0 l 143 96 l 356 96 l 356 860 l 143 860 l 143 957 l 690 957 l 690 860 m 499 1081 q 451 1090 472 1081 q 403 1118 429 1100 q 367 1140 382 1133 q 336 1147 351 1147 q 297 1132 314 1147 q 263 1083 281 1117 l 189 1121 q 338 1238 246 1238 q 387 1228 365 1238 q 433 1200 408 1218 q 469 1178 456 1185 q 499 1171 483 1171 q 536 1185 519 1171 q 572 1232 553 1200 l 646 1194 q 499 1081 593 1081 z "},"J":{"ha":833,"x_min":101,"x_max":690,"o":"m 690 318 q 613 81 690 178 q 363 -17 536 -17 q 224 6 292 -17 q 101 71 157 28 l 154 150 q 361 85 258 85 q 515 148 461 85 q 569 324 569 211 l 569 858 l 286 858 l 286 957 l 690 957 l 690 318 z "},"Ĵ":{"ha":833,"x_min":101,"x_max":713,"o":"m 690 318 q 613 81 690 178 q 363 -17 536 -17 q 224 6 292 -17 q 101 71 157 28 l 154 150 q 361 85 258 85 q 515 148 461 85 q 569 324 569 211 l 569 858 l 286 858 l 286 957 l 690 957 l 690 318 m 713 1115 l 661 1056 l 486 1168 l 313 1056 l 260 1115 l 447 1264 l 526 1264 l 713 1115 z "},"K":{"ha":833,"x_min":146,"x_max":815,"o":"m 146 0 l 146 957 l 267 957 l 267 0 l 146 0 m 649 957 l 789 957 l 415 518 l 815 0 l 664 0 l 274 511 l 649 957 z "},"Ķ":{"ha":833,"x_min":146,"x_max":815,"o":"m 146 0 l 146 957 l 267 957 l 267 0 l 146 0 m 649 957 l 789 957 l 415 518 l 815 0 l 664 0 l 274 511 l 649 957 m 451 -99 q 506 -120 483 -99 q 528 -172 528 -142 q 507 -249 528 -201 l 436 -397 l 367 -397 l 407 -235 q 376 -172 376 -211 q 398 -119 376 -140 q 451 -99 419 -99 z "},"L":{"ha":833,"x_min":189,"x_max":746,"o":"m 189 957 l 308 957 l 308 107 l 746 107 l 731 0 l 189 0 l 189 957 z "},"Ĺ":{"ha":833,"x_min":89,"x_max":746,"o":"m 189 957 l 308 957 l 308 107 l 746 107 l 731 0 l 189 0 l 189 957 m 415 1158 l 119 1049 l 89 1113 l 364 1258 l 415 1158 z "},"Ľ":{"ha":833,"x_min":189,"x_max":746,"o":"m 189 957 l 308 957 l 308 107 l 746 107 l 731 0 l 189 0 l 189 957 m 533 956 l 460 708 l 393 718 l 428 969 l 533 956 z "},"Ļ":{"ha":833,"x_min":189,"x_max":746,"o":"m 189 957 l 308 957 l 308 107 l 746 107 l 731 0 l 189 0 l 189 957 m 465 -99 q 519 -120 497 -99 q 542 -172 542 -142 q 521 -249 542 -201 l 450 -397 l 381 -397 l 421 -235 q 390 -172 390 -211 q 412 -119 390 -140 q 465 -99 433 -99 z "},"Ŀ":{"ha":833,"x_min":189,"x_max":746,"o":"m 189 957 l 308 957 l 308 107 l 746 107 l 731 0 l 189 0 l 189 957 m 656 607 q 717 584 693 607 q 740 525 740 561 q 717 466 740 489 q 656 443 693 443 q 595 466 618 443 q 572 525 572 489 q 595 584 572 561 q 656 607 618 607 z "},"Ł":{"ha":833,"x_min":56,"x_max":743,"o":"m 743 107 l 729 0 l 186 0 l 186 372 l 107 322 l 56 401 l 186 481 l 186 957 l 306 957 l 306 554 l 535 697 l 586 619 l 306 446 l 306 107 l 743 107 z "},"M":{"ha":833,"x_min":42,"x_max":792,"o":"m 792 0 l 675 0 l 646 500 q 638 846 638 632 l 476 172 l 356 172 l 183 846 q 186 713 186 796 q 181 500 186 585 l 156 0 l 42 0 l 96 957 l 264 957 l 419 301 l 568 957 l 738 957 l 792 0 z "},"N":{"ha":833,"x_min":115,"x_max":718,"o":"m 211 840 q 219 719 211 831 q 228 479 228 608 l 228 0 l 115 0 l 115 957 l 279 957 l 622 113 l 619 163 q 606 478 606 333 l 606 957 l 718 957 l 718 0 l 549 0 l 211 840 z "},"Ń":{"ha":833,"x_min":115,"x_max":718,"o":"m 211 840 q 219 719 211 831 q 228 479 228 608 l 228 0 l 115 0 l 115 957 l 279 957 l 622 113 l 619 163 q 606 478 606 333 l 606 957 l 718 957 l 718 0 l 549 0 l 211 840 m 582 1158 l 286 1049 l 256 1113 l 531 1258 l 582 1158 z "},"Ň":{"ha":833,"x_min":115,"x_max":718,"o":"m 211 840 q 219 719 211 831 q 228 479 228 608 l 228 0 l 115 0 l 115 957 l 279 957 l 622 113 l 619 163 q 606 478 606 333 l 606 957 l 718 957 l 718 0 l 549 0 l 211 840 m 642 1197 l 456 1047 l 376 1047 l 189 1197 l 242 1257 l 415 1144 l 590 1257 l 642 1197 z "},"Ņ":{"ha":833,"x_min":115,"x_max":718,"o":"m 211 840 q 219 719 211 831 q 228 479 228 608 l 228 0 l 115 0 l 115 957 l 279 957 l 622 113 l 619 163 q 606 478 606 333 l 606 957 l 718 957 l 718 0 l 549 0 l 211 840 m 421 -99 q 475 -120 453 -99 q 497 -172 497 -142 q 476 -249 497 -201 l 406 -397 l 336 -397 l 376 -235 q 346 -172 346 -211 q 367 -119 346 -140 q 421 -99 389 -99 z "},"Ŋ":{"ha":833,"x_min":115,"x_max":718,"o":"m 718 -86 q 665 -241 718 -187 q 517 -294 611 -294 q 360 -243 428 -294 l 407 -164 q 456 -190 433 -182 q 511 -197 478 -197 q 597 -93 597 -197 l 597 0 l 549 0 l 211 840 q 219 719 211 831 q 228 479 228 608 l 228 0 l 115 0 l 115 957 l 279 957 l 622 113 l 619 163 q 606 478 606 333 l 606 957 l 718 957 l 718 -86 z "},"Ñ":{"ha":833,"x_min":115,"x_max":718,"o":"m 211 840 q 219 719 211 831 q 228 479 228 608 l 228 0 l 115 0 l 115 957 l 279 957 l 622 113 l 619 163 q 606 478 606 333 l 606 957 l 718 957 l 718 0 l 549 0 l 211 840 m 496 1081 q 448 1090 469 1081 q 400 1118 426 1100 q 364 1140 379 1133 q 333 1147 349 1147 q 294 1132 311 1147 q 260 1083 278 1117 l 186 1121 q 335 1238 243 1238 q 384 1228 363 1238 q 431 1200 406 1218 q 467 1178 453 1185 q 496 1171 481 1171 q 533 1185 517 1171 q 569 1232 550 1200 l 643 1194 q 496 1081 590 1081 z "},"O":{"ha":833,"x_min":65,"x_max":768,"o":"m 768 478 q 677 119 768 254 q 417 -15 586 -15 q 156 117 246 -15 q 65 476 65 249 q 106 735 65 622 q 225 910 146 847 q 417 972 304 972 q 677 838 586 972 q 768 478 768 704 m 643 478 q 589 772 643 674 q 417 871 535 871 q 244 772 299 871 q 190 476 190 672 q 245 184 190 282 q 417 86 300 86 q 589 184 535 86 q 643 478 643 282 z "},"Ó":{"ha":833,"x_min":65,"x_max":768,"o":"m 768 478 q 677 119 768 254 q 417 -15 586 -15 q 156 117 246 -15 q 65 476 65 249 q 106 735 65 622 q 225 910 146 847 q 417 972 304 972 q 677 838 586 972 q 768 478 768 704 m 643 478 q 589 772 643 674 q 417 871 535 871 q 244 772 299 871 q 190 476 190 672 q 245 184 190 282 q 417 86 300 86 q 589 184 535 86 q 643 478 643 282 m 583 1158 l 288 1049 l 257 1113 l 532 1258 l 583 1158 z "},"Ŏ":{"ha":833,"x_min":65,"x_max":768,"o":"m 768 478 q 677 119 768 254 q 417 -15 586 -15 q 156 117 246 -15 q 65 476 65 249 q 106 735 65 622 q 225 910 146 847 q 417 972 304 972 q 677 838 586 972 q 768 478 768 704 m 643 478 q 589 772 643 674 q 417 871 535 871 q 244 772 299 871 q 190 476 190 672 q 245 184 190 282 q 417 86 300 86 q 589 184 535 86 q 643 478 643 282 m 414 1054 q 275 1099 333 1054 q 210 1219 217 1144 l 289 1238 q 414 1144 324 1144 q 494 1169 461 1144 q 543 1238 528 1194 l 624 1219 q 556 1099 615 1144 q 414 1054 496 1054 z "},"Ô":{"ha":833,"x_min":65,"x_max":768,"o":"m 768 478 q 677 119 768 254 q 417 -15 586 -15 q 156 117 246 -15 q 65 476 65 249 q 106 735 65 622 q 225 910 146 847 q 417 972 304 972 q 677 838 586 972 q 768 478 768 704 m 643 478 q 589 772 643 674 q 417 871 535 871 q 244 772 299 871 q 190 476 190 672 q 245 184 190 282 q 417 86 300 86 q 589 184 535 86 q 643 478 643 282 m 643 1115 l 592 1056 l 417 1168 l 243 1056 l 190 1115 l 378 1264 l 457 1264 l 643 1115 z "},"Ö":{"ha":833,"x_min":65,"x_max":768,"o":"m 768 478 q 677 119 768 254 q 417 -15 586 -15 q 156 117 246 -15 q 65 476 65 249 q 106 735 65 622 q 225 910 146 847 q 417 972 304 972 q 677 838 586 972 q 768 478 768 704 m 643 478 q 589 772 643 674 q 417 871 535 871 q 244 772 299 871 q 190 476 190 672 q 245 184 190 282 q 417 86 300 86 q 589 184 535 86 q 643 478 643 282 m 274 1067 q 219 1088 240 1067 q 197 1140 197 1108 q 219 1194 197 1172 q 274 1215 240 1215 q 327 1194 306 1215 q 349 1140 349 1172 q 327 1088 349 1108 q 274 1067 306 1067 m 560 1067 q 506 1088 528 1067 q 485 1140 485 1108 q 506 1194 485 1172 q 560 1215 528 1215 q 614 1194 592 1215 q 636 1140 636 1172 q 614 1088 636 1108 q 560 1067 592 1067 z "},"Ò":{"ha":833,"x_min":65,"x_max":768,"o":"m 768 478 q 677 119 768 254 q 417 -15 586 -15 q 156 117 246 -15 q 65 476 65 249 q 106 735 65 622 q 225 910 146 847 q 417 972 304 972 q 677 838 586 972 q 768 478 768 704 m 643 478 q 589 772 643 674 q 417 871 535 871 q 244 772 299 871 q 190 476 190 672 q 245 184 190 282 q 417 86 300 86 q 589 184 535 86 q 643 478 643 282 m 578 1113 l 542 1049 l 257 1163 l 321 1263 l 578 1113 z "},"Ő":{"ha":833,"x_min":65,"x_max":768,"o":"m 768 478 q 677 119 768 254 q 417 -15 586 -15 q 156 117 246 -15 q 65 476 65 249 q 106 735 65 622 q 225 910 146 847 q 417 972 304 972 q 677 838 586 972 q 768 478 768 704 m 643 478 q 589 772 643 674 q 417 871 535 871 q 244 772 299 871 q 190 476 190 672 q 245 184 190 282 q 417 86 300 86 q 589 184 535 86 q 643 478 643 282 m 363 1326 l 465 1278 l 331 1050 l 254 1086 l 363 1326 m 604 1326 l 706 1272 l 556 1046 l 482 1085 l 604 1326 z "},"Ō":{"ha":833,"x_min":65,"x_max":768,"o":"m 768 478 q 677 119 768 254 q 417 -15 586 -15 q 156 117 246 -15 q 65 476 65 249 q 106 735 65 622 q 225 910 146 847 q 417 972 304 972 q 677 838 586 972 q 768 478 768 704 m 643 478 q 589 772 643 674 q 417 871 535 871 q 244 772 299 871 q 190 476 190 672 q 245 184 190 282 q 417 86 300 86 q 589 184 535 86 q 643 478 643 282 m 229 1104 l 229 1193 l 603 1193 l 603 1104 l 229 1104 z "},"Ø":{"ha":833,"x_min":65,"x_max":768,"o":"m 603 915 q 726 744 685 857 q 768 478 768 631 q 677 119 768 254 q 417 -15 586 -15 q 329 -6 367 -15 l 283 -153 l 179 -126 l 232 39 q 108 210 150 97 q 65 476 65 322 q 106 735 65 622 q 225 910 146 847 q 417 972 304 972 q 507 961 463 972 l 551 1115 l 656 1088 l 603 915 m 192 476 q 212 262 192 344 q 275 136 232 179 l 485 863 q 417 871 453 871 q 245 772 299 871 q 192 476 192 672 m 417 86 q 588 184 535 86 q 642 478 642 282 q 622 695 642 613 q 558 821 601 778 l 349 94 q 417 86 381 86 z "},"Ǿ":{"ha":833,"x_min":65,"x_max":768,"o":"m 603 915 q 726 744 685 857 q 768 478 768 631 q 677 119 768 254 q 417 -15 586 -15 q 329 -6 367 -15 l 283 -153 l 179 -126 l 232 39 q 108 210 150 97 q 65 476 65 322 q 106 735 65 622 q 225 910 146 847 q 417 972 304 972 q 507 961 463 972 l 551 1115 l 656 1088 l 603 915 m 192 476 q 212 262 192 344 q 275 136 232 179 l 485 863 q 417 871 453 871 q 245 772 299 871 q 192 476 192 672 m 417 86 q 588 184 535 86 q 642 478 642 282 q 622 695 642 613 q 558 821 601 778 l 349 94 q 417 86 381 86 m 583 1158 l 288 1049 l 257 1113 l 532 1258 l 583 1158 z "},"Õ":{"ha":833,"x_min":65,"x_max":768,"o":"m 768 478 q 677 119 768 254 q 417 -15 586 -15 q 156 117 246 -15 q 65 476 65 249 q 106 735 65 622 q 225 910 146 847 q 417 972 304 972 q 677 838 586 972 q 768 478 768 704 m 643 478 q 589 772 643 674 q 417 871 535 871 q 244 772 299 871 q 190 476 190 672 q 245 184 190 282 q 417 86 300 86 q 589 184 535 86 q 643 478 643 282 m 499 1081 q 451 1090 472 1081 q 403 1118 429 1100 q 367 1140 382 1133 q 336 1147 351 1147 q 297 1132 314 1147 q 263 1083 281 1117 l 189 1121 q 338 1238 246 1238 q 387 1228 365 1238 q 433 1200 408 1218 q 469 1178 456 1185 q 499 1171 483 1171 q 536 1185 519 1171 q 572 1232 553 1200 l 646 1194 q 499 1081 593 1081 z "},"Œ":{"ha":833,"x_min":-1,"x_max":857,"o":"m 294 972 q 393 957 340 972 l 844 957 l 831 858 l 492 858 q 582 535 572 763 l 796 535 l 796 436 l 582 436 q 486 99 576 201 l 857 99 l 857 0 l 389 0 q 294 -15 340 -15 q -1 476 -1 -15 q 73 845 -1 718 q 294 972 147 972 m 293 872 q 167 779 207 872 q 128 476 128 686 q 169 175 128 268 q 293 82 210 82 q 422 174 382 82 q 463 478 463 267 q 423 781 463 689 q 293 872 383 872 z "},"P":{"ha":833,"x_min":161,"x_max":774,"o":"m 774 663 q 675 429 774 503 q 404 356 576 356 l 281 356 l 281 0 l 161 0 l 161 957 l 404 957 q 677 883 581 957 q 774 663 774 810 m 644 661 q 584 813 644 765 q 419 861 524 861 l 281 861 l 281 451 l 415 451 q 584 499 524 451 q 644 661 644 546 z "},"Þ":{"ha":833,"x_min":149,"x_max":772,"o":"m 269 794 l 406 794 q 677 719 582 794 q 772 493 772 644 q 674 255 772 332 q 406 178 575 178 l 269 178 l 269 0 l 149 0 l 149 957 l 269 957 l 269 794 m 269 699 l 269 275 l 421 275 q 587 323 529 275 q 644 490 644 371 q 585 648 644 597 q 421 699 526 699 l 269 699 z "},"Q":{"ha":833,"x_min":63,"x_max":824,"o":"m 769 478 q 723 206 769 317 q 571 38 676 96 q 731 -35 674 17 q 824 -190 789 -86 l 696 -240 q 585 -68 649 -122 q 403 -14 521 -14 q 218 47 294 -14 q 102 217 142 107 q 63 476 63 328 q 103 735 63 622 q 223 910 143 847 q 417 972 303 972 q 678 838 586 972 q 769 478 769 704 m 643 478 q 589 772 643 674 q 417 871 535 871 q 244 772 299 871 q 189 476 189 672 q 244 184 189 282 q 417 86 300 86 q 589 184 535 86 q 643 478 643 282 z "},"R":{"ha":833,"x_min":142,"x_max":797,"o":"m 746 688 q 682 517 746 585 q 513 424 618 450 l 797 0 l 653 0 l 390 410 l 261 410 l 261 0 l 142 0 l 142 957 l 386 957 q 655 889 564 957 q 746 688 746 821 m 618 688 q 565 819 618 779 q 400 860 513 860 l 261 860 l 261 504 l 401 504 q 563 548 508 504 q 618 688 618 592 z "},"Ŕ":{"ha":833,"x_min":142,"x_max":797,"o":"m 746 688 q 682 517 746 585 q 513 424 618 450 l 797 0 l 653 0 l 390 410 l 261 410 l 261 0 l 142 0 l 142 957 l 386 957 q 655 889 564 957 q 746 688 746 821 m 618 688 q 565 819 618 779 q 400 860 513 860 l 261 860 l 261 504 l 401 504 q 563 548 508 504 q 618 688 618 592 m 583 1158 l 288 1049 l 257 1113 l 532 1258 l 583 1158 z "},"Ř":{"ha":833,"x_min":142,"x_max":797,"o":"m 746 688 q 682 517 746 585 q 513 424 618 450 l 797 0 l 653 0 l 390 410 l 261 410 l 261 0 l 142 0 l 142 957 l 386 957 q 655 889 564 957 q 746 688 746 821 m 618 688 q 565 819 618 779 q 400 860 513 860 l 261 860 l 261 504 l 401 504 q 563 548 508 504 q 618 688 618 592 m 643 1197 l 457 1047 l 378 1047 l 190 1197 l 243 1257 l 417 1144 l 592 1257 l 643 1197 z "},"Ŗ":{"ha":833,"x_min":142,"x_max":797,"o":"m 746 688 q 682 517 746 585 q 513 424 618 450 l 797 0 l 653 0 l 390 410 l 261 410 l 261 0 l 142 0 l 142 957 l 386 957 q 655 889 564 957 q 746 688 746 821 m 618 688 q 565 819 618 779 q 400 860 513 860 l 261 860 l 261 504 l 401 504 q 563 548 508 504 q 618 688 618 592 m 419 -99 q 474 -120 451 -99 q 496 -172 496 -142 q 475 -249 496 -201 l 404 -397 l 335 -397 l 375 -235 q 344 -172 344 -211 q 366 -119 344 -140 q 419 -99 388 -99 z "},"S":{"ha":833,"x_min":60,"x_max":746,"o":"m 746 265 q 704 119 746 182 q 583 20 663 56 q 396 -15 504 -15 q 206 16 292 -15 q 60 106 121 47 l 132 188 q 249 111 185 138 q 397 85 314 85 q 556 131 492 85 q 619 263 619 176 q 601 343 619 311 q 538 400 583 375 q 411 449 493 425 q 179 556 256 494 q 103 725 103 618 q 142 853 103 796 q 251 941 181 910 q 413 972 322 972 q 581 944 507 972 q 718 863 656 917 l 646 785 q 417 871 547 871 q 279 835 333 871 q 225 729 225 799 q 247 658 225 688 q 321 604 269 629 q 465 553 372 579 q 673 451 600 514 q 746 265 746 389 z "},"Ś":{"ha":833,"x_min":60,"x_max":746,"o":"m 746 265 q 704 119 746 182 q 583 20 663 56 q 396 -15 504 -15 q 206 16 292 -15 q 60 106 121 47 l 132 188 q 249 111 185 138 q 397 85 314 85 q 556 131 492 85 q 619 263 619 176 q 601 343 619 311 q 538 400 583 375 q 411 449 493 425 q 179 556 256 494 q 103 725 103 618 q 142 853 103 796 q 251 941 181 910 q 413 972 322 972 q 581 944 507 972 q 718 863 656 917 l 646 785 q 417 871 547 871 q 279 835 333 871 q 225 729 225 799 q 247 658 225 688 q 321 604 269 629 q 465 553 372 579 q 673 451 600 514 q 746 265 746 389 m 590 1158 l 294 1049 l 264 1113 l 539 1258 l 590 1158 z "},"Š":{"ha":833,"x_min":60,"x_max":746,"o":"m 746 265 q 704 119 746 182 q 583 20 663 56 q 396 -15 504 -15 q 206 16 292 -15 q 60 106 121 47 l 132 188 q 249 111 185 138 q 397 85 314 85 q 556 131 492 85 q 619 263 619 176 q 601 343 619 311 q 538 400 583 375 q 411 449 493 425 q 179 556 256 494 q 103 725 103 618 q 142 853 103 796 q 251 941 181 910 q 413 972 322 972 q 581 944 507 972 q 718 863 656 917 l 646 785 q 417 871 547 871 q 279 835 333 871 q 225 729 225 799 q 247 658 225 688 q 321 604 269 629 q 465 553 372 579 q 673 451 600 514 q 746 265 746 389 m 651 1197 l 465 1047 l 386 1047 l 199 1197 l 251 1257 l 425 1144 l 600 1257 l 651 1197 z "},"Ş":{"ha":833,"x_min":60,"x_max":746,"o":"m 746 265 q 665 72 746 147 q 440 -14 585 -4 l 440 -79 q 537 -117 504 -85 q 569 -194 569 -150 q 520 -295 569 -260 q 400 -331 471 -331 q 320 -322 358 -331 q 254 -297 282 -312 l 292 -231 q 385 -253 333 -253 q 468 -196 468 -253 q 439 -147 468 -160 q 349 -135 410 -135 l 357 -15 q 60 106 175 -3 l 132 188 q 249 111 185 138 q 397 85 314 85 q 556 131 492 85 q 619 263 619 176 q 601 343 619 311 q 538 400 583 375 q 411 449 493 425 q 179 556 256 494 q 103 725 103 618 q 142 853 103 796 q 251 941 181 910 q 413 972 322 972 q 581 944 507 972 q 718 863 656 917 l 646 785 q 417 871 547 871 q 279 835 333 871 q 225 729 225 799 q 247 658 225 688 q 321 604 269 629 q 465 553 372 579 q 673 451 600 514 q 746 265 746 389 z "},"Ŝ":{"ha":833,"x_min":60,"x_max":746,"o":"m 746 265 q 704 119 746 182 q 583 20 663 56 q 396 -15 504 -15 q 206 16 292 -15 q 60 106 121 47 l 132 188 q 249 111 185 138 q 397 85 314 85 q 556 131 492 85 q 619 263 619 176 q 601 343 619 311 q 538 400 583 375 q 411 449 493 425 q 179 556 256 494 q 103 725 103 618 q 142 853 103 796 q 251 941 181 910 q 413 972 322 972 q 581 944 507 972 q 718 863 656 917 l 646 785 q 417 871 547 871 q 279 835 333 871 q 225 729 225 799 q 247 658 225 688 q 321 604 269 629 q 465 553 372 579 q 673 451 600 514 q 746 265 746 389 m 651 1115 l 600 1056 l 425 1168 l 251 1056 l 199 1115 l 386 1264 l 465 1264 l 651 1115 z "},"Ș":{"ha":833,"x_min":60,"x_max":746,"o":"m 746 265 q 704 119 746 182 q 583 20 663 56 q 396 -15 504 -15 q 206 16 292 -15 q 60 106 121 47 l 132 188 q 249 111 185 138 q 397 85 314 85 q 556 131 492 85 q 619 263 619 176 q 601 343 619 311 q 538 400 583 375 q 411 449 493 425 q 179 556 256 494 q 103 725 103 618 q 142 853 103 796 q 251 941 181 910 q 413 972 322 972 q 581 944 507 972 q 718 863 656 917 l 646 785 q 417 871 547 871 q 279 835 333 871 q 225 729 225 799 q 247 658 225 688 q 321 604 269 629 q 465 553 372 579 q 673 451 600 514 q 746 265 746 389 m 417 -99 q 471 -120 449 -99 q 493 -172 493 -142 q 472 -249 493 -201 l 401 -397 l 332 -397 l 372 -235 q 342 -172 342 -211 q 363 -119 342 -140 q 417 -99 385 -99 z "},"T":{"ha":833,"x_min":56,"x_max":776,"o":"m 475 0 l 354 0 l 354 853 l 56 853 l 56 957 l 776 957 l 764 853 l 475 853 l 475 0 z "},"Ŧ":{"ha":833,"x_min":56,"x_max":776,"o":"m 475 853 l 475 579 l 657 579 l 657 486 l 475 486 l 475 0 l 354 0 l 354 486 l 174 486 l 174 579 l 354 579 l 354 853 l 56 853 l 56 957 l 776 957 l 764 853 l 475 853 z "},"Ť":{"ha":833,"x_min":56,"x_max":776,"o":"m 475 0 l 354 0 l 354 853 l 56 853 l 56 957 l 776 957 l 764 853 l 475 853 l 475 0 m 642 1197 l 456 1047 l 376 1047 l 189 1197 l 242 1257 l 415 1144 l 590 1257 l 642 1197 z "},"Ţ":{"ha":833,"x_min":56,"x_max":776,"o":"m 456 0 l 456 -79 q 553 -117 521 -85 q 585 -194 585 -150 q 535 -295 585 -260 q 415 -331 486 -331 q 335 -322 374 -331 q 269 -297 297 -312 l 307 -231 q 400 -253 349 -253 q 483 -196 483 -253 q 454 -147 483 -160 q 364 -135 425 -135 l 374 0 l 354 0 l 354 853 l 56 853 l 56 957 l 776 957 l 764 853 l 475 853 l 475 0 l 456 0 z "},"Ț":{"ha":833,"x_min":56,"x_max":776,"o":"m 475 0 l 354 0 l 354 853 l 56 853 l 56 957 l 776 957 l 764 853 l 475 853 l 475 0 m 419 -99 q 474 -120 451 -99 q 496 -172 496 -142 q 475 -249 496 -201 l 404 -397 l 335 -397 l 375 -235 q 344 -172 344 -211 q 366 -119 344 -140 q 419 -99 388 -99 z "},"U":{"ha":833,"x_min":100,"x_max":733,"o":"m 733 310 q 694 140 733 214 q 583 25 654 65 q 415 -15 511 -15 q 247 26 318 -15 q 138 140 176 67 q 100 310 100 214 l 100 957 l 221 957 l 221 306 q 271 143 221 197 q 415 89 321 89 q 560 143 510 89 q 611 306 611 197 l 611 957 l 733 957 l 733 310 z "},"Ú":{"ha":833,"x_min":100,"x_max":733,"o":"m 733 310 q 694 140 733 214 q 583 25 654 65 q 415 -15 511 -15 q 247 26 318 -15 q 138 140 176 67 q 100 310 100 214 l 100 957 l 221 957 l 221 306 q 271 143 221 197 q 415 89 321 89 q 560 143 510 89 q 611 306 611 197 l 611 957 l 733 957 l 733 310 m 583 1158 l 288 1049 l 257 1113 l 532 1258 l 583 1158 z "},"Ŭ":{"ha":833,"x_min":100,"x_max":733,"o":"m 733 310 q 694 140 733 214 q 583 25 654 65 q 415 -15 511 -15 q 247 26 318 -15 q 138 140 176 67 q 100 310 100 214 l 100 957 l 221 957 l 221 306 q 271 143 221 197 q 415 89 321 89 q 560 143 510 89 q 611 306 611 197 l 611 957 l 733 957 l 733 310 m 414 1054 q 275 1099 333 1054 q 210 1219 217 1144 l 289 1238 q 414 1144 324 1144 q 494 1169 461 1144 q 543 1238 528 1194 l 624 1219 q 556 1099 615 1144 q 414 1054 496 1054 z "},"Û":{"ha":833,"x_min":100,"x_max":733,"o":"m 733 310 q 694 140 733 214 q 583 25 654 65 q 415 -15 511 -15 q 247 26 318 -15 q 138 140 176 67 q 100 310 100 214 l 100 957 l 221 957 l 221 306 q 271 143 221 197 q 415 89 321 89 q 560 143 510 89 q 611 306 611 197 l 611 957 l 733 957 l 733 310 m 643 1115 l 592 1056 l 417 1168 l 243 1056 l 190 1115 l 378 1264 l 457 1264 l 643 1115 z "},"Ü":{"ha":833,"x_min":100,"x_max":733,"o":"m 733 310 q 694 140 733 214 q 583 25 654 65 q 415 -15 511 -15 q 247 26 318 -15 q 138 140 176 67 q 100 310 100 214 l 100 957 l 221 957 l 221 306 q 271 143 221 197 q 415 89 321 89 q 560 143 510 89 q 611 306 611 197 l 611 957 l 733 957 l 733 310 m 274 1067 q 219 1088 240 1067 q 197 1140 197 1108 q 219 1194 197 1172 q 274 1215 240 1215 q 327 1194 306 1215 q 349 1140 349 1172 q 327 1088 349 1108 q 274 1067 306 1067 m 560 1067 q 506 1088 528 1067 q 485 1140 485 1108 q 506 1194 485 1172 q 560 1215 528 1215 q 614 1194 592 1215 q 636 1140 636 1172 q 614 1088 636 1108 q 560 1067 592 1067 z "},"Ù":{"ha":833,"x_min":100,"x_max":733,"o":"m 733 310 q 694 140 733 214 q 583 25 654 65 q 415 -15 511 -15 q 247 26 318 -15 q 138 140 176 67 q 100 310 100 214 l 100 957 l 221 957 l 221 306 q 271 143 221 197 q 415 89 321 89 q 560 143 510 89 q 611 306 611 197 l 611 957 l 733 957 l 733 310 m 578 1113 l 542 1049 l 257 1163 l 321 1263 l 578 1113 z "},"Ű":{"ha":833,"x_min":100,"x_max":733,"o":"m 733 310 q 694 140 733 214 q 583 25 654 65 q 415 -15 511 -15 q 247 26 318 -15 q 138 140 176 67 q 100 310 100 214 l 100 957 l 221 957 l 221 306 q 271 143 221 197 q 415 89 321 89 q 560 143 510 89 q 611 306 611 197 l 611 957 l 733 957 l 733 310 m 363 1326 l 465 1278 l 331 1050 l 254 1086 l 363 1326 m 604 1326 l 706 1272 l 556 1046 l 482 1085 l 604 1326 z "},"Ū":{"ha":833,"x_min":100,"x_max":733,"o":"m 733 310 q 694 140 733 214 q 583 25 654 65 q 415 -15 511 -15 q 247 26 318 -15 q 138 140 176 67 q 100 310 100 214 l 100 957 l 221 957 l 221 306 q 271 143 221 197 q 415 89 321 89 q 560 143 510 89 q 611 306 611 197 l 611 957 l 733 957 l 733 310 m 229 1104 l 229 1193 l 603 1193 l 603 1104 l 229 1104 z "},"Ų":{"ha":833,"x_min":100,"x_max":733,"o":"m 733 957 l 733 310 q 676 109 733 192 q 517 -3 618 26 q 385 -82 421 -46 q 350 -158 350 -118 q 368 -208 350 -192 q 428 -225 386 -225 q 513 -215 465 -225 l 501 -310 q 413 -318 443 -318 q 289 -280 335 -318 q 243 -182 243 -242 q 364 -12 243 -79 q 170 90 240 3 q 100 310 100 176 l 100 957 l 221 957 l 221 306 q 271 143 221 197 q 415 89 321 89 q 560 143 510 89 q 611 306 611 197 l 611 957 l 733 957 z "},"Ů":{"ha":833,"x_min":100,"x_max":733,"o":"m 733 310 q 694 140 733 214 q 583 25 654 65 q 415 -15 511 -15 q 247 26 318 -15 q 138 140 176 67 q 100 310 100 214 l 100 957 l 221 957 l 221 306 q 271 143 221 197 q 415 89 321 89 q 560 143 510 89 q 611 306 611 197 l 611 957 l 733 957 l 733 310 m 418 1310 q 528 1269 485 1310 q 571 1167 571 1228 q 527 1066 571 1107 q 418 1025 483 1025 q 307 1066 351 1025 q 263 1167 263 1107 q 307 1269 263 1228 q 418 1310 351 1310 m 418 1246 q 363 1224 383 1246 q 342 1167 342 1203 q 363 1109 342 1131 q 418 1088 383 1088 q 472 1109 453 1088 q 492 1167 492 1131 q 472 1224 492 1203 q 418 1246 453 1246 z "},"Ũ":{"ha":833,"x_min":100,"x_max":733,"o":"m 733 310 q 694 140 733 214 q 583 25 654 65 q 415 -15 511 -15 q 247 26 318 -15 q 138 140 176 67 q 100 310 100 214 l 100 957 l 221 957 l 221 306 q 271 143 221 197 q 415 89 321 89 q 560 143 510 89 q 611 306 611 197 l 611 957 l 733 957 l 733 310 m 499 1081 q 451 1090 472 1081 q 403 1118 429 1100 q 367 1140 382 1133 q 336 1147 351 1147 q 297 1132 314 1147 q 263 1083 281 1117 l 189 1121 q 338 1238 246 1238 q 387 1228 365 1238 q 433 1200 408 1218 q 469 1178 456 1185 q 499 1171 483 1171 q 536 1185 519 1171 q 572 1232 553 1200 l 646 1194 q 499 1081 593 1081 z "},"V":{"ha":833,"x_min":35,"x_max":799,"o":"m 678 957 l 799 957 l 479 0 l 354 0 l 35 957 l 164 957 l 419 138 l 678 957 z "},"W":{"ha":833,"x_min":7,"x_max":826,"o":"m 682 0 l 524 0 l 414 722 l 303 0 l 140 0 l 7 957 l 128 957 l 229 132 l 344 846 l 492 846 l 601 132 l 715 957 l 826 957 l 682 0 z "},"Ẃ":{"ha":833,"x_min":7,"x_max":826,"o":"m 682 0 l 524 0 l 414 722 l 303 0 l 140 0 l 7 957 l 128 957 l 229 132 l 344 846 l 492 846 l 601 132 l 715 957 l 826 957 l 682 0 m 583 1158 l 288 1049 l 257 1113 l 532 1258 l 583 1158 z "},"Ŵ":{"ha":833,"x_min":7,"x_max":826,"o":"m 682 0 l 524 0 l 414 722 l 303 0 l 140 0 l 7 957 l 128 957 l 229 132 l 344 846 l 492 846 l 601 132 l 715 957 l 826 957 l 682 0 m 643 1115 l 592 1056 l 417 1168 l 243 1056 l 190 1115 l 378 1264 l 457 1264 l 643 1115 z "},"Ẅ":{"ha":833,"x_min":7,"x_max":826,"o":"m 682 0 l 524 0 l 414 722 l 303 0 l 140 0 l 7 957 l 128 957 l 229 132 l 344 846 l 492 846 l 601 132 l 715 957 l 826 957 l 682 0 m 274 1067 q 219 1088 240 1067 q 197 1140 197 1108 q 219 1194 197 1172 q 274 1215 240 1215 q 327 1194 306 1215 q 349 1140 349 1172 q 327 1088 349 1108 q 274 1067 306 1067 m 560 1067 q 506 1088 528 1067 q 485 1140 485 1108 q 506 1194 485 1172 q 560 1215 528 1215 q 614 1194 592 1215 q 636 1140 636 1172 q 614 1088 636 1108 q 560 1067 592 1067 z "},"Ẁ":{"ha":833,"x_min":7,"x_max":826,"o":"m 682 0 l 524 0 l 414 722 l 303 0 l 140 0 l 7 957 l 128 957 l 229 132 l 344 846 l 492 846 l 601 132 l 715 957 l 826 957 l 682 0 m 578 1113 l 542 1049 l 257 1163 l 321 1263 l 578 1113 z "},"X":{"ha":833,"x_min":43,"x_max":790,"o":"m 207 957 l 417 589 l 628 957 l 757 957 l 486 517 l 790 0 l 651 0 l 414 432 l 172 0 l 43 0 l 343 510 l 68 957 l 207 957 z "},"Y":{"ha":833,"x_min":32,"x_max":801,"o":"m 478 0 l 356 0 l 356 368 l 32 957 l 165 957 l 419 476 l 676 957 l 801 957 l 478 369 l 478 0 z "},"Ý":{"ha":833,"x_min":32,"x_max":801,"o":"m 478 0 l 356 0 l 356 368 l 32 957 l 165 957 l 419 476 l 676 957 l 801 957 l 478 369 l 478 0 m 588 1158 l 292 1049 l 261 1113 l 536 1258 l 588 1158 z "},"Ŷ":{"ha":833,"x_min":32,"x_max":801,"o":"m 478 0 l 356 0 l 356 368 l 32 957 l 165 957 l 419 476 l 676 957 l 801 957 l 478 369 l 478 0 m 647 1115 l 596 1056 l 421 1168 l 247 1056 l 194 1115 l 382 1264 l 461 1264 l 647 1115 z "},"Ÿ":{"ha":833,"x_min":32,"x_max":801,"o":"m 478 0 l 356 0 l 356 368 l 32 957 l 165 957 l 419 476 l 676 957 l 801 957 l 478 369 l 478 0 m 278 1067 q 223 1088 244 1067 q 201 1140 201 1108 q 223 1194 201 1172 q 278 1215 244 1215 q 331 1194 310 1215 q 353 1140 353 1172 q 331 1088 353 1108 q 278 1067 310 1067 m 564 1067 q 510 1088 532 1067 q 489 1140 489 1108 q 510 1194 489 1172 q 564 1215 532 1215 q 618 1194 596 1215 q 640 1140 640 1172 q 618 1088 640 1108 q 564 1067 596 1067 z "},"Ỳ":{"ha":833,"x_min":32,"x_max":801,"o":"m 478 0 l 356 0 l 356 368 l 32 957 l 165 957 l 419 476 l 676 957 l 801 957 l 478 369 l 478 0 m 582 1113 l 546 1049 l 261 1163 l 325 1263 l 582 1113 z "},"Z":{"ha":833,"x_min":100,"x_max":733,"o":"m 732 104 l 718 0 l 100 0 l 100 97 l 604 853 l 150 853 l 150 957 l 733 957 l 733 857 l 232 104 l 732 104 z "},"Ź":{"ha":833,"x_min":100,"x_max":733,"o":"m 732 104 l 718 0 l 100 0 l 100 97 l 604 853 l 150 853 l 150 957 l 733 957 l 733 857 l 232 104 l 732 104 m 608 1158 l 313 1049 l 282 1113 l 557 1258 l 608 1158 z "},"Ž":{"ha":833,"x_min":100,"x_max":733,"o":"m 732 104 l 718 0 l 100 0 l 100 97 l 604 853 l 150 853 l 150 957 l 733 957 l 733 857 l 232 104 l 732 104 m 669 1197 l 483 1047 l 404 1047 l 217 1197 l 269 1257 l 443 1144 l 618 1257 l 669 1197 z "},"Ż":{"ha":833,"x_min":100,"x_max":733,"o":"m 732 104 l 718 0 l 100 0 l 100 97 l 604 853 l 150 853 l 150 957 l 733 957 l 733 857 l 232 104 l 732 104 m 440 1240 q 502 1217 478 1240 q 526 1158 526 1193 q 502 1099 526 1122 q 440 1075 478 1075 q 380 1099 403 1075 q 357 1158 357 1122 q 380 1217 357 1193 q 440 1240 403 1240 z "},"a":{"ha":833,"x_min":96,"x_max":724,"o":"m 664 160 q 678 97 664 117 q 724 67 692 76 l 694 -17 q 561 88 588 -3 q 463 11 522 38 q 332 -15 404 -15 q 159 46 222 -15 q 96 210 96 107 q 184 383 96 322 q 438 444 272 444 l 546 444 l 546 504 q 501 616 546 582 q 372 650 457 650 q 182 613 289 650 l 150 701 q 390 747 279 747 q 594 685 524 747 q 664 511 664 622 l 664 160 m 361 72 q 465 100 415 72 q 546 176 514 128 l 546 364 l 440 364 q 272 325 324 364 q 221 211 221 286 q 361 72 221 72 z "},"á":{"ha":833,"x_min":96,"x_max":724,"o":"m 664 160 q 678 97 664 117 q 724 67 692 76 l 694 -17 q 561 88 588 -3 q 463 11 522 38 q 332 -15 404 -15 q 159 46 222 -15 q 96 210 96 107 q 184 383 96 322 q 438 444 272 444 l 546 444 l 546 504 q 501 616 546 582 q 372 650 457 650 q 182 613 289 650 l 150 701 q 390 747 279 747 q 594 685 524 747 q 664 511 664 622 l 664 160 m 361 72 q 465 100 415 72 q 546 176 514 128 l 546 364 l 440 364 q 272 325 324 364 q 221 211 221 286 q 361 72 221 72 m 575 1007 l 285 889 l 249 951 l 522 1107 l 575 1007 z "},"ă":{"ha":833,"x_min":96,"x_max":724,"o":"m 664 160 q 678 97 664 117 q 724 67 692 76 l 694 -17 q 561 88 588 -3 q 463 11 522 38 q 332 -15 404 -15 q 159 46 222 -15 q 96 210 96 107 q 184 383 96 322 q 438 444 272 444 l 546 444 l 546 504 q 501 616 546 582 q 372 650 457 650 q 182 613 289 650 l 150 701 q 390 747 279 747 q 594 685 524 747 q 664 511 664 622 l 664 160 m 361 72 q 465 100 415 72 q 546 176 514 128 l 546 364 l 440 364 q 272 325 324 364 q 221 211 221 286 q 361 72 221 72 m 403 875 q 299 903 343 875 q 228 975 254 932 q 197 1064 203 1018 l 278 1082 q 403 964 313 964 q 483 995 451 964 q 532 1082 515 1026 l 611 1064 q 579 975 606 1018 q 508 903 553 932 q 403 875 463 875 z "},"â":{"ha":833,"x_min":96,"x_max":724,"o":"m 664 160 q 678 97 664 117 q 724 67 692 76 l 694 -17 q 561 88 588 -3 q 463 11 522 38 q 332 -15 404 -15 q 159 46 222 -15 q 96 210 96 107 q 184 383 96 322 q 438 444 272 444 l 546 444 l 546 504 q 501 616 546 582 q 372 650 457 650 q 182 613 289 650 l 150 701 q 390 747 279 747 q 594 685 524 747 q 664 511 664 622 l 664 160 m 361 72 q 465 100 415 72 q 546 176 514 128 l 546 364 l 440 364 q 272 325 324 364 q 221 211 221 286 q 361 72 221 72 m 179 931 l 367 1096 l 446 1096 l 632 931 l 579 874 l 407 1000 l 235 874 l 179 931 z "},"ä":{"ha":833,"x_min":96,"x_max":724,"o":"m 664 160 q 678 97 664 117 q 724 67 692 76 l 694 -17 q 561 88 588 -3 q 463 11 522 38 q 332 -15 404 -15 q 159 46 222 -15 q 96 210 96 107 q 184 383 96 322 q 438 444 272 444 l 546 444 l 546 504 q 501 616 546 582 q 372 650 457 650 q 182 613 289 650 l 150 701 q 390 747 279 747 q 594 685 524 747 q 664 511 664 622 l 664 160 m 361 72 q 465 100 415 72 q 546 176 514 128 l 546 364 l 440 364 q 272 325 324 364 q 221 211 221 286 q 361 72 221 72 m 261 900 q 207 922 229 900 q 185 974 185 943 q 207 1028 185 1007 q 261 1050 229 1050 q 315 1028 293 1050 q 336 974 336 1007 q 315 921 336 942 q 261 900 293 900 m 549 900 q 495 921 517 900 q 474 974 474 942 q 495 1028 474 1007 q 549 1050 517 1050 q 603 1028 581 1050 q 625 974 625 1007 q 603 922 625 943 q 549 900 581 900 z "},"à":{"ha":833,"x_min":96,"x_max":724,"o":"m 664 160 q 678 97 664 117 q 724 67 692 76 l 694 -17 q 561 88 588 -3 q 463 11 522 38 q 332 -15 404 -15 q 159 46 222 -15 q 96 210 96 107 q 184 383 96 322 q 438 444 272 444 l 546 444 l 546 504 q 501 616 546 582 q 372 650 457 650 q 182 613 289 650 l 150 701 q 390 747 279 747 q 594 685 524 747 q 664 511 664 622 l 664 160 m 361 72 q 465 100 415 72 q 546 176 514 128 l 546 364 l 440 364 q 272 325 324 364 q 221 211 221 286 q 361 72 221 72 m 244 993 l 308 1093 l 564 928 l 526 864 l 244 993 z "},"ā":{"ha":833,"x_min":96,"x_max":724,"o":"m 664 160 q 678 97 664 117 q 724 67 692 76 l 694 -17 q 561 88 588 -3 q 463 11 522 38 q 332 -15 404 -15 q 159 46 222 -15 q 96 210 96 107 q 184 383 96 322 q 438 444 272 444 l 546 444 l 546 504 q 501 616 546 582 q 372 650 457 650 q 182 613 289 650 l 150 701 q 390 747 279 747 q 594 685 524 747 q 664 511 664 622 l 664 160 m 361 72 q 465 100 415 72 q 546 176 514 128 l 546 364 l 440 364 q 272 325 324 364 q 221 211 221 286 q 361 72 221 72 m 218 939 l 218 1028 l 592 1028 l 592 939 l 218 939 z "},"ą":{"ha":833,"x_min":96,"x_max":724,"o":"m 694 -17 q 558 -97 594 -60 q 522 -175 522 -135 q 540 -225 522 -208 q 600 -242 558 -242 q 685 -232 638 -242 l 674 -326 q 585 -335 615 -335 q 461 -297 507 -335 q 415 -199 415 -258 q 465 -82 415 -133 q 621 8 515 -31 q 561 88 576 35 q 463 11 522 38 q 332 -15 404 -15 q 159 46 222 -15 q 96 210 96 107 q 184 383 96 322 q 438 444 272 444 l 546 444 l 546 504 q 501 616 546 582 q 372 650 457 650 q 182 613 289 650 l 150 701 q 390 747 279 747 q 594 685 524 747 q 664 511 664 622 l 664 160 q 678 97 664 117 q 724 67 692 76 l 694 -17 m 546 364 l 440 364 q 272 325 324 364 q 221 211 221 286 q 361 72 221 72 q 465 100 415 72 q 546 176 514 128 l 546 364 z "},"å":{"ha":833,"x_min":96,"x_max":724,"o":"m 664 160 q 678 97 664 117 q 724 67 692 76 l 694 -17 q 561 88 588 -3 q 463 11 522 38 q 332 -15 404 -15 q 159 46 222 -15 q 96 210 96 107 q 184 383 96 322 q 438 444 272 444 l 546 444 l 546 504 q 501 616 546 582 q 372 650 457 650 q 182 613 289 650 l 150 701 q 390 747 279 747 q 594 685 524 747 q 664 511 664 622 l 664 160 m 361 72 q 465 100 415 72 q 546 176 514 128 l 546 364 l 440 364 q 272 325 324 364 q 221 211 221 286 q 361 72 221 72 m 406 1144 q 516 1103 472 1144 q 560 1001 560 1061 q 516 901 560 942 q 406 860 472 860 q 295 901 339 860 q 251 1001 251 942 q 295 1103 251 1061 q 406 1144 339 1144 m 406 1079 q 351 1058 371 1079 q 331 1001 331 1038 q 351 943 331 964 q 406 922 371 922 q 461 943 442 922 q 481 1001 481 964 q 460 1058 481 1038 q 406 1079 440 1079 z "},"ã":{"ha":833,"x_min":96,"x_max":724,"o":"m 664 160 q 678 97 664 117 q 724 67 692 76 l 694 -17 q 561 88 588 -3 q 463 11 522 38 q 332 -15 404 -15 q 159 46 222 -15 q 96 210 96 107 q 184 383 96 322 q 438 444 272 444 l 546 444 l 546 504 q 501 616 546 582 q 372 650 457 650 q 182 613 289 650 l 150 701 q 390 747 279 747 q 594 685 524 747 q 664 511 664 622 l 664 160 m 361 72 q 465 100 415 72 q 546 176 514 128 l 546 364 l 440 364 q 272 325 324 364 q 221 211 221 286 q 361 72 221 72 m 486 915 q 438 925 460 915 q 390 953 417 935 q 355 975 369 968 q 325 982 340 982 q 286 967 303 982 q 251 918 269 951 l 178 954 q 241 1040 204 1008 q 325 1072 278 1072 q 375 1062 354 1072 q 422 1033 396 1051 q 458 1010 446 1017 q 486 1004 471 1004 q 524 1019 507 1004 q 560 1067 540 1033 l 635 1029 q 570 944 608 972 q 486 915 532 915 z "},"æ":{"ha":833,"x_min":-8,"x_max":843,"o":"m 604 747 q 784 653 725 747 q 843 388 843 560 q 840 324 843 357 l 467 324 q 513 140 476 197 q 624 82 550 82 q 692 95 661 82 q 761 138 724 108 l 815 57 q 724 3 769 21 q 621 -15 678 -15 q 500 16 550 -15 q 415 108 450 47 q 319 13 367 42 q 203 -15 271 -15 q 49 46 106 -15 q -8 210 -8 107 q 67 385 -8 325 q 289 444 143 444 l 353 444 l 353 504 q 226 650 353 650 q 160 642 190 650 q 81 613 129 633 l 50 700 q 238 747 149 747 q 360 716 315 747 q 429 625 406 685 q 494 715 449 682 q 604 747 539 747 m 600 650 q 506 597 536 650 q 467 415 475 544 l 729 415 q 697 592 726 535 q 600 650 668 650 m 294 364 q 158 326 199 364 q 118 217 118 288 q 146 110 118 147 q 221 74 174 74 q 298 106 264 74 q 372 208 332 138 q 353 364 353 271 l 294 364 z "},"ǽ":{"ha":833,"x_min":-8,"x_max":843,"o":"m 604 747 q 784 653 725 747 q 843 388 843 560 q 840 324 843 357 l 467 324 q 513 140 476 197 q 624 82 550 82 q 692 95 661 82 q 761 138 724 108 l 815 57 q 724 3 769 21 q 621 -15 678 -15 q 500 16 550 -15 q 415 108 450 47 q 319 13 367 42 q 203 -15 271 -15 q 49 46 106 -15 q -8 210 -8 107 q 67 385 -8 325 q 289 444 143 444 l 353 444 l 353 504 q 226 650 353 650 q 160 642 190 650 q 81 613 129 633 l 50 700 q 238 747 149 747 q 360 716 315 747 q 429 625 406 685 q 494 715 449 682 q 604 747 539 747 m 600 650 q 506 597 536 650 q 467 415 475 544 l 729 415 q 697 592 726 535 q 600 650 668 650 m 294 364 q 158 326 199 364 q 118 217 118 288 q 146 110 118 147 q 221 74 174 74 q 298 106 264 74 q 372 208 332 138 q 353 364 353 271 l 294 364 m 599 1007 l 308 889 l 272 951 l 546 1107 l 599 1007 z "},"b":{"ha":833,"x_min":139,"x_max":739,"o":"m 256 636 q 465 747 340 747 q 672 647 606 747 q 739 367 739 547 q 663 90 739 194 q 449 -15 586 -15 q 250 76 322 -15 l 242 0 l 139 0 l 139 1026 l 256 1040 l 256 636 m 422 79 q 563 151 514 79 q 613 367 613 224 q 569 581 613 508 q 439 653 525 653 q 337 619 383 653 q 256 536 290 586 l 256 174 q 328 104 285 129 q 422 79 371 79 z "},"c":{"ha":833,"x_min":126,"x_max":717,"o":"m 471 85 q 661 149 567 85 l 717 72 q 603 8 671 32 q 471 -15 535 -15 q 217 87 308 -15 q 126 363 126 189 q 167 560 126 472 q 286 697 208 647 q 471 747 364 747 q 715 661 613 747 l 658 585 q 469 649 563 649 q 312 576 371 649 q 253 363 253 503 q 312 153 253 222 q 471 85 371 85 z "},"ć":{"ha":833,"x_min":126,"x_max":717,"o":"m 471 85 q 661 149 567 85 l 717 72 q 603 8 671 32 q 471 -15 535 -15 q 217 87 308 -15 q 126 363 126 189 q 167 560 126 472 q 286 697 208 647 q 471 747 364 747 q 715 661 613 747 l 658 585 q 469 649 563 649 q 312 576 371 649 q 253 363 253 503 q 312 153 253 222 q 471 85 371 85 m 647 994 l 357 876 l 321 939 l 594 1094 l 647 994 z "},"č":{"ha":833,"x_min":126,"x_max":717,"o":"m 471 85 q 661 149 567 85 l 717 72 q 603 8 671 32 q 471 -15 535 -15 q 217 87 308 -15 q 126 363 126 189 q 167 560 126 472 q 286 697 208 647 q 471 747 364 747 q 715 661 613 747 l 658 585 q 469 649 563 649 q 312 576 371 649 q 253 363 253 503 q 312 153 253 222 q 471 85 371 85 m 704 1026 l 518 861 l 439 861 l 251 1026 l 307 1083 l 479 958 l 651 1083 l 704 1026 z "},"ç":{"ha":833,"x_min":126,"x_max":717,"o":"m 499 -79 q 595 -117 563 -85 q 628 -194 628 -150 q 578 -295 628 -260 q 458 -331 529 -331 q 378 -322 417 -331 q 313 -297 340 -312 l 350 -231 q 443 -253 392 -253 q 526 -196 526 -253 q 497 -147 526 -160 q 407 -135 468 -135 l 415 -12 q 202 105 278 6 q 126 363 126 204 q 167 560 126 472 q 286 697 208 647 q 471 747 364 747 q 715 661 613 747 l 658 585 q 469 649 563 649 q 312 576 371 649 q 253 363 253 503 q 312 153 253 222 q 471 85 371 85 q 661 149 567 85 l 717 72 q 617 13 676 36 q 499 -15 558 -10 l 499 -79 z "},"ĉ":{"ha":833,"x_min":126,"x_max":717,"o":"m 471 85 q 661 149 567 85 l 717 72 q 603 8 671 32 q 471 -15 535 -15 q 217 87 308 -15 q 126 363 126 189 q 167 560 126 472 q 286 697 208 647 q 471 747 364 747 q 715 661 613 747 l 658 585 q 469 649 563 649 q 312 576 371 649 q 253 363 253 503 q 312 153 253 222 q 471 85 371 85 m 251 918 l 439 1083 l 518 1083 l 704 918 l 651 861 l 479 988 l 307 861 l 251 918 z "},"ċ":{"ha":833,"x_min":126,"x_max":717,"o":"m 471 85 q 661 149 567 85 l 717 72 q 603 8 671 32 q 471 -15 535 -15 q 217 87 308 -15 q 126 363 126 189 q 167 560 126 472 q 286 697 208 647 q 471 747 364 747 q 715 661 613 747 l 658 585 q 469 649 563 649 q 312 576 371 649 q 253 363 253 503 q 312 153 253 222 q 471 85 371 85 m 476 1061 q 538 1038 514 1061 q 561 979 561 1015 q 538 920 561 943 q 476 897 514 897 q 416 920 439 897 q 393 979 393 943 q 416 1038 393 1015 q 476 1061 439 1061 z "},"d":{"ha":833,"x_min":94,"x_max":694,"o":"m 694 1026 l 694 0 l 592 0 l 581 96 q 488 13 540 40 q 374 -15 435 -15 q 165 86 235 -15 q 94 365 94 188 q 129 562 94 475 q 228 698 164 649 q 381 747 293 747 q 578 660 501 747 l 578 1040 l 694 1026 m 411 653 q 270 581 319 653 q 221 365 221 508 q 266 151 221 224 q 397 78 311 78 q 578 194 501 78 l 578 558 q 504 628 547 604 q 411 653 461 653 z "},"ð":{"ha":833,"x_min":93,"x_max":739,"o":"m 347 899 q 185 949 279 931 l 211 1040 q 418 972 339 1014 l 515 1074 l 586 1013 l 500 924 q 681 703 624 839 q 739 367 739 567 q 698 164 739 250 q 583 31 657 78 q 410 -15 508 -15 q 249 25 321 -15 q 135 142 176 65 q 93 326 93 219 q 133 504 93 426 q 242 625 174 582 q 389 668 310 668 q 607 572 524 668 q 542 731 589 660 q 428 850 496 801 l 318 739 l 236 781 l 347 899 m 622 371 q 617 461 622 406 q 526 546 582 517 q 403 575 471 575 q 267 513 321 575 q 213 332 213 451 q 266 145 213 211 q 408 79 319 79 q 565 155 507 79 q 622 371 622 231 z "},"ď":{"ha":833,"x_min":54,"x_max":851,"o":"m 654 1026 l 654 0 l 551 0 l 540 96 q 447 13 500 40 q 333 -15 394 -15 q 124 86 194 -15 q 54 365 54 188 q 89 562 54 475 q 188 698 124 649 q 340 747 253 747 q 538 660 461 747 l 538 1040 l 654 1026 m 371 653 q 230 581 279 653 q 181 365 181 508 q 226 151 181 224 q 357 78 271 78 q 538 194 461 78 l 538 558 q 464 628 507 604 q 371 653 421 653 m 851 1025 l 778 778 l 711 788 l 746 1039 l 851 1025 z "},"đ":{"ha":833,"x_min":97,"x_max":807,"o":"m 807 829 l 697 829 l 697 0 l 594 0 l 583 96 q 376 -15 504 -15 q 167 86 238 -15 q 97 365 97 188 q 132 562 97 475 q 231 698 167 649 q 385 747 296 747 q 581 660 506 747 l 581 829 l 343 829 l 343 924 l 581 924 l 581 1040 l 697 1026 l 697 924 l 807 924 l 807 829 m 581 558 q 507 628 550 604 q 414 653 464 653 q 274 581 322 653 q 225 365 225 508 q 269 151 225 224 q 400 78 314 78 q 581 194 504 78 l 581 558 z "},"e":{"ha":833,"x_min":110,"x_max":726,"o":"m 232 325 q 295 143 236 204 q 444 82 354 82 q 544 98 499 82 q 640 147 589 114 l 694 69 q 577 7 643 29 q 444 -15 511 -15 q 198 88 286 -15 q 110 365 110 192 q 149 562 110 475 q 260 698 188 649 q 428 747 332 747 q 647 651 567 747 q 726 388 726 554 q 724 325 726 356 l 232 325 m 429 651 q 292 591 344 651 q 232 414 239 531 l 613 414 q 563 590 611 529 q 429 651 514 651 z "},"é":{"ha":833,"x_min":110,"x_max":726,"o":"m 232 325 q 295 143 236 204 q 444 82 354 82 q 544 98 499 82 q 640 147 589 114 l 694 69 q 577 7 643 29 q 444 -15 511 -15 q 198 88 286 -15 q 110 365 110 192 q 149 562 110 475 q 260 698 188 649 q 428 747 332 747 q 647 651 567 747 q 726 388 726 554 q 724 325 726 356 l 232 325 m 429 651 q 292 591 344 651 q 232 414 239 531 l 613 414 q 563 590 611 529 q 429 651 514 651 m 600 1007 l 310 889 l 274 951 l 547 1107 l 600 1007 z "},"ĕ":{"ha":833,"x_min":110,"x_max":726,"o":"m 232 325 q 295 143 236 204 q 444 82 354 82 q 544 98 499 82 q 640 147 589 114 l 694 69 q 577 7 643 29 q 444 -15 511 -15 q 198 88 286 -15 q 110 365 110 192 q 149 562 110 475 q 260 698 188 649 q 428 747 332 747 q 647 651 567 747 q 726 388 726 554 q 724 325 726 356 l 232 325 m 429 651 q 292 591 344 651 q 232 414 239 531 l 613 414 q 563 590 611 529 q 429 651 514 651 m 428 875 q 324 903 368 875 q 253 975 279 932 q 222 1064 228 1018 l 303 1082 q 428 964 338 964 q 508 995 476 964 q 557 1082 540 1026 l 636 1064 q 604 975 631 1018 q 533 903 578 932 q 428 875 488 875 z "},"ě":{"ha":833,"x_min":110,"x_max":726,"o":"m 232 325 q 295 143 236 204 q 444 82 354 82 q 544 98 499 82 q 640 147 589 114 l 694 69 q 577 7 643 29 q 444 -15 511 -15 q 198 88 286 -15 q 110 365 110 192 q 149 562 110 475 q 260 698 188 649 q 428 747 332 747 q 647 651 567 747 q 726 388 726 554 q 724 325 726 356 l 232 325 m 429 651 q 292 591 344 651 q 232 414 239 531 l 613 414 q 563 590 611 529 q 429 651 514 651 m 657 1039 l 471 874 l 392 874 l 204 1039 l 260 1096 l 432 971 l 604 1096 l 657 1039 z "},"ê":{"ha":833,"x_min":110,"x_max":726,"o":"m 232 325 q 295 143 236 204 q 444 82 354 82 q 544 98 499 82 q 640 147 589 114 l 694 69 q 577 7 643 29 q 444 -15 511 -15 q 198 88 286 -15 q 110 365 110 192 q 149 562 110 475 q 260 698 188 649 q 428 747 332 747 q 647 651 567 747 q 726 388 726 554 q 724 325 726 356 l 232 325 m 429 651 q 292 591 344 651 q 232 414 239 531 l 613 414 q 563 590 611 529 q 429 651 514 651 m 204 931 l 392 1096 l 471 1096 l 657 931 l 604 874 l 432 1000 l 260 874 l 204 931 z "},"ë":{"ha":833,"x_min":110,"x_max":726,"o":"m 232 325 q 295 143 236 204 q 444 82 354 82 q 544 98 499 82 q 640 147 589 114 l 694 69 q 577 7 643 29 q 444 -15 511 -15 q 198 88 286 -15 q 110 365 110 192 q 149 562 110 475 q 260 698 188 649 q 428 747 332 747 q 647 651 567 747 q 726 388 726 554 q 724 325 726 356 l 232 325 m 429 651 q 292 591 344 651 q 232 414 239 531 l 613 414 q 563 590 611 529 q 429 651 514 651 m 286 900 q 232 922 254 900 q 210 974 210 943 q 232 1028 210 1007 q 286 1050 254 1050 q 340 1028 318 1050 q 361 974 361 1007 q 340 921 361 942 q 286 900 318 900 m 574 900 q 520 921 542 900 q 499 974 499 942 q 520 1028 499 1007 q 574 1050 542 1050 q 628 1028 606 1050 q 650 974 650 1007 q 628 922 650 943 q 574 900 606 900 z "},"ė":{"ha":833,"x_min":110,"x_max":726,"o":"m 232 325 q 295 143 236 204 q 444 82 354 82 q 544 98 499 82 q 640 147 589 114 l 694 69 q 577 7 643 29 q 444 -15 511 -15 q 198 88 286 -15 q 110 365 110 192 q 149 562 110 475 q 260 698 188 649 q 428 747 332 747 q 647 651 567 747 q 726 388 726 554 q 724 325 726 356 l 232 325 m 429 651 q 292 591 344 651 q 232 414 239 531 l 613 414 q 563 590 611 529 q 429 651 514 651 m 429 1074 q 490 1051 467 1074 q 514 992 514 1028 q 490 933 514 956 q 429 910 467 910 q 369 933 392 910 q 346 992 346 956 q 369 1051 346 1028 q 429 1074 392 1074 z "},"è":{"ha":833,"x_min":110,"x_max":726,"o":"m 232 325 q 295 143 236 204 q 444 82 354 82 q 544 98 499 82 q 640 147 589 114 l 694 69 q 577 7 643 29 q 444 -15 511 -15 q 198 88 286 -15 q 110 365 110 192 q 149 562 110 475 q 260 698 188 649 q 428 747 332 747 q 647 651 567 747 q 726 388 726 554 q 724 325 726 356 l 232 325 m 429 651 q 292 591 344 651 q 232 414 239 531 l 613 414 q 563 590 611 529 q 429 651 514 651 m 269 993 l 333 1093 l 589 928 l 551 864 l 269 993 z "},"ē":{"ha":833,"x_min":110,"x_max":726,"o":"m 232 325 q 295 143 236 204 q 444 82 354 82 q 544 98 499 82 q 640 147 589 114 l 694 69 q 577 7 643 29 q 444 -15 511 -15 q 198 88 286 -15 q 110 365 110 192 q 149 562 110 475 q 260 698 188 649 q 428 747 332 747 q 647 651 567 747 q 726 388 726 554 q 724 325 726 356 l 232 325 m 429 651 q 292 591 344 651 q 232 414 239 531 l 613 414 q 563 590 611 529 q 429 651 514 651 m 243 939 l 243 1028 l 617 1028 l 617 939 l 243 939 z "},"ę":{"ha":833,"x_min":110,"x_max":726,"o":"m 726 388 q 724 325 726 356 l 232 325 q 295 143 236 204 q 444 82 354 82 q 544 98 499 82 q 640 147 589 114 l 694 69 q 551 -1 636 24 q 417 -81 453 -44 q 382 -158 382 -118 q 400 -208 382 -192 q 460 -225 418 -225 q 544 -215 497 -225 l 533 -310 q 444 -318 475 -318 q 321 -280 367 -318 q 275 -182 275 -242 q 311 -86 275 -129 q 417 -15 347 -43 q 190 97 271 -6 q 110 365 110 199 q 149 562 110 475 q 260 698 188 649 q 428 747 332 747 q 647 651 567 747 q 726 388 726 554 m 613 414 q 563 590 611 529 q 429 651 514 651 q 292 591 344 651 q 232 414 239 531 l 613 414 z "},"f":{"ha":833,"x_min":131,"x_max":769,"o":"m 571 1040 q 769 1001 675 1040 l 732 914 q 575 944 663 944 q 422 824 422 944 l 422 675 l 669 675 l 657 582 l 422 582 l 422 0 l 304 0 l 304 582 l 131 582 l 131 675 l 304 675 l 304 821 q 380 980 304 919 q 571 1040 456 1040 z "},"g":{"ha":833,"x_min":92,"x_max":769,"o":"m 769 699 q 679 681 728 685 q 556 678 631 678 q 683 493 683 619 q 610 313 683 382 q 408 244 536 244 q 299 260 343 244 q 272 228 282 247 q 261 189 261 208 q 358 126 261 126 l 490 126 q 622 101 563 126 q 715 29 681 75 q 749 -72 749 -17 q 658 -237 749 -179 q 400 -294 567 -294 q 161 -242 231 -294 q 92 -74 92 -189 l 197 -74 q 215 -147 197 -119 q 276 -187 232 -174 q 400 -200 319 -200 q 574 -169 518 -200 q 631 -79 631 -139 q 585 -2 631 -29 q 467 25 539 25 l 336 25 q 199 65 246 25 q 151 164 151 104 q 172 233 151 199 q 232 292 193 267 q 140 373 169 324 q 110 493 110 422 q 147 624 110 567 q 249 715 183 682 q 401 747 315 747 q 592 761 526 747 q 735 808 657 775 l 769 699 m 400 661 q 272 616 315 661 q 229 493 229 571 q 273 369 229 415 q 403 322 317 322 q 522 367 481 322 q 563 494 563 413 q 400 661 563 661 z "},"ğ":{"ha":833,"x_min":92,"x_max":769,"o":"m 769 699 q 679 681 728 685 q 556 678 631 678 q 683 493 683 619 q 610 313 683 382 q 408 244 536 244 q 299 260 343 244 q 272 228 282 247 q 261 189 261 208 q 358 126 261 126 l 490 126 q 622 101 563 126 q 715 29 681 75 q 749 -72 749 -17 q 658 -237 749 -179 q 400 -294 567 -294 q 161 -242 231 -294 q 92 -74 92 -189 l 197 -74 q 215 -147 197 -119 q 276 -187 232 -174 q 400 -200 319 -200 q 574 -169 518 -200 q 631 -79 631 -139 q 585 -2 631 -29 q 467 25 539 25 l 336 25 q 199 65 246 25 q 151 164 151 104 q 172 233 151 199 q 232 292 193 267 q 140 373 169 324 q 110 493 110 422 q 147 624 110 567 q 249 715 183 682 q 401 747 315 747 q 592 761 526 747 q 735 808 657 775 l 769 699 m 400 661 q 272 616 315 661 q 229 493 229 571 q 273 369 229 415 q 403 322 317 322 q 522 367 481 322 q 563 494 563 413 q 400 661 563 661 m 404 875 q 300 903 344 875 q 230 975 256 932 q 199 1064 204 1018 l 279 1082 q 404 964 314 964 q 485 995 453 964 q 533 1082 517 1026 l 613 1064 q 581 975 607 1018 q 509 903 554 932 q 404 875 464 875 z "},"ĝ":{"ha":833,"x_min":92,"x_max":769,"o":"m 769 699 q 679 681 728 685 q 556 678 631 678 q 683 493 683 619 q 610 313 683 382 q 408 244 536 244 q 299 260 343 244 q 272 228 282 247 q 261 189 261 208 q 358 126 261 126 l 490 126 q 622 101 563 126 q 715 29 681 75 q 749 -72 749 -17 q 658 -237 749 -179 q 400 -294 567 -294 q 161 -242 231 -294 q 92 -74 92 -189 l 197 -74 q 215 -147 197 -119 q 276 -187 232 -174 q 400 -200 319 -200 q 574 -169 518 -200 q 631 -79 631 -139 q 585 -2 631 -29 q 467 25 539 25 l 336 25 q 199 65 246 25 q 151 164 151 104 q 172 233 151 199 q 232 292 193 267 q 140 373 169 324 q 110 493 110 422 q 147 624 110 567 q 249 715 183 682 q 401 747 315 747 q 592 761 526 747 q 735 808 657 775 l 769 699 m 400 661 q 272 616 315 661 q 229 493 229 571 q 273 369 229 415 q 403 322 317 322 q 522 367 481 322 q 563 494 563 413 q 400 661 563 661 m 181 931 l 368 1096 l 447 1096 l 633 931 l 581 874 l 408 1000 l 236 874 l 181 931 z "},"ģ":{"ha":833,"x_min":92,"x_max":769,"o":"m 403 831 q 349 852 371 831 q 326 904 326 874 q 347 981 326 933 l 418 1129 l 488 1129 l 447 967 q 478 904 478 943 q 456 851 478 872 q 403 831 435 831 m 769 699 q 679 681 728 685 q 556 678 631 678 q 683 493 683 619 q 610 313 683 382 q 408 244 536 244 q 299 260 343 244 q 272 228 282 247 q 261 189 261 208 q 358 126 261 126 l 490 126 q 622 101 563 126 q 715 29 681 75 q 749 -72 749 -17 q 658 -237 749 -179 q 400 -294 567 -294 q 161 -242 231 -294 q 92 -74 92 -189 l 197 -74 q 215 -147 197 -119 q 276 -187 232 -174 q 400 -200 319 -200 q 574 -169 518 -200 q 631 -79 631 -139 q 585 -2 631 -29 q 467 25 539 25 l 336 25 q 199 65 246 25 q 151 164 151 104 q 172 233 151 199 q 232 292 193 267 q 140 373 169 324 q 110 493 110 422 q 147 624 110 567 q 249 715 183 682 q 401 747 315 747 q 592 761 526 747 q 735 808 657 775 l 769 699 m 400 661 q 272 616 315 661 q 229 493 229 571 q 273 369 229 415 q 403 322 317 322 q 522 367 481 322 q 563 494 563 413 q 400 661 563 661 z "},"ġ":{"ha":833,"x_min":92,"x_max":769,"o":"m 769 699 q 679 681 728 685 q 556 678 631 678 q 683 493 683 619 q 610 313 683 382 q 408 244 536 244 q 299 260 343 244 q 272 228 282 247 q 261 189 261 208 q 358 126 261 126 l 490 126 q 622 101 563 126 q 715 29 681 75 q 749 -72 749 -17 q 658 -237 749 -179 q 400 -294 567 -294 q 161 -242 231 -294 q 92 -74 92 -189 l 197 -74 q 215 -147 197 -119 q 276 -187 232 -174 q 400 -200 319 -200 q 574 -169 518 -200 q 631 -79 631 -139 q 585 -2 631 -29 q 467 25 539 25 l 336 25 q 199 65 246 25 q 151 164 151 104 q 172 233 151 199 q 232 292 193 267 q 140 373 169 324 q 110 493 110 422 q 147 624 110 567 q 249 715 183 682 q 401 747 315 747 q 592 761 526 747 q 735 808 657 775 l 769 699 m 400 661 q 272 616 315 661 q 229 493 229 571 q 273 369 229 415 q 403 322 317 322 q 522 367 481 322 q 563 494 563 413 q 400 661 563 661 m 406 1074 q 467 1051 443 1074 q 490 992 490 1028 q 467 933 490 956 q 406 910 443 910 q 345 933 368 910 q 322 992 322 956 q 345 1051 322 1028 q 406 1074 368 1074 z "},"h":{"ha":833,"x_min":139,"x_max":696,"o":"m 256 631 q 361 717 299 686 q 490 747 424 747 q 696 531 696 747 l 696 0 l 579 0 l 579 529 q 549 624 579 594 q 451 654 518 654 q 342 618 394 654 q 256 533 289 582 l 256 0 l 139 0 l 139 1025 l 256 1038 l 256 631 z "},"ħ":{"ha":833,"x_min":26,"x_max":696,"o":"m 490 747 q 696 531 696 747 l 696 0 l 579 0 l 579 529 q 549 624 579 594 q 451 654 518 654 q 342 618 394 654 q 256 533 289 582 l 256 0 l 139 0 l 139 829 l 26 829 l 26 924 l 139 924 l 139 1025 l 256 1038 l 256 924 l 490 924 l 490 829 l 256 829 l 256 631 q 361 717 299 686 q 490 747 424 747 z "},"ĥ":{"ha":833,"x_min":139,"x_max":696,"o":"m 256 631 q 361 717 299 686 q 490 747 424 747 q 696 531 696 747 l 696 0 l 579 0 l 579 529 q 549 624 579 594 q 451 654 518 654 q 342 618 394 654 q 256 533 289 582 l 256 0 l 139 0 l 139 1025 l 256 1038 l 256 631 m 643 1185 l 592 1125 l 417 1238 l 243 1125 l 190 1185 l 378 1333 l 457 1333 l 643 1185 z "},"i":{"ha":833,"x_min":168,"x_max":715,"o":"m 417 1074 q 479 1051 456 1074 q 503 992 503 1028 q 479 933 503 956 q 417 910 456 910 q 356 933 379 910 q 333 992 333 956 q 356 1051 333 1028 q 417 1074 379 1074 m 510 93 l 715 93 l 715 0 l 168 0 l 168 93 l 393 93 l 393 639 l 175 639 l 175 732 l 510 732 l 510 93 z "},"ı":{"ha":833,"x_min":168,"x_max":715,"o":"m 510 93 l 715 93 l 715 0 l 168 0 l 168 93 l 393 93 l 393 639 l 175 639 l 175 732 l 510 732 l 510 93 z "},"í":{"ha":833,"x_min":168,"x_max":715,"o":"m 510 93 l 715 93 l 715 0 l 168 0 l 168 93 l 393 93 l 393 639 l 175 639 l 175 732 l 510 732 l 510 93 m 588 1007 l 297 889 l 261 951 l 535 1107 l 588 1007 z "},"ĭ":{"ha":833,"x_min":168,"x_max":715,"o":"m 510 93 l 715 93 l 715 0 l 168 0 l 168 93 l 393 93 l 393 639 l 175 639 l 175 732 l 510 732 l 510 93 m 415 875 q 311 903 356 875 q 241 975 267 932 q 210 1064 215 1018 l 290 1082 q 415 964 325 964 q 496 995 464 964 q 544 1082 528 1026 l 624 1064 q 592 975 618 1018 q 520 903 565 932 q 415 875 475 875 z "},"î":{"ha":833,"x_min":168,"x_max":715,"o":"m 510 93 l 715 93 l 715 0 l 168 0 l 168 93 l 393 93 l 393 639 l 175 639 l 175 732 l 510 732 l 510 93 m 192 931 l 379 1096 l 458 1096 l 644 931 l 592 874 l 419 1000 l 247 874 l 192 931 z "},"ï":{"ha":833,"x_min":168,"x_max":715,"o":"m 510 93 l 715 93 l 715 0 l 168 0 l 168 93 l 393 93 l 393 639 l 175 639 l 175 732 l 510 732 l 510 93 m 274 900 q 219 922 242 900 q 197 974 197 943 q 219 1028 197 1007 q 274 1050 242 1050 q 327 1028 306 1050 q 349 974 349 1007 q 327 921 349 942 q 274 900 306 900 m 561 900 q 508 921 529 900 q 486 974 486 942 q 508 1028 486 1007 q 561 1050 529 1050 q 615 1028 593 1050 q 638 974 638 1007 q 615 922 638 943 q 561 900 593 900 z "},"ì":{"ha":833,"x_min":168,"x_max":715,"o":"m 510 93 l 715 93 l 715 0 l 168 0 l 168 93 l 393 93 l 393 639 l 175 639 l 175 732 l 510 732 l 510 93 m 257 993 l 321 1093 l 576 928 l 539 864 l 257 993 z "},"ĳ":{"ha":833,"x_min":67,"x_max":708,"o":"m 256 1074 q 317 1051 293 1074 q 342 992 342 1028 q 317 933 342 956 q 256 910 293 910 q 195 933 218 910 q 172 992 172 956 q 195 1051 172 1028 q 256 1074 218 1074 m 622 1074 q 684 1051 660 1074 q 708 992 708 1028 q 684 933 708 956 q 622 910 660 910 q 562 933 585 910 q 539 992 539 956 q 562 1051 539 1028 q 622 1074 585 1074 m 694 76 q 599 -152 694 -64 q 340 -294 504 -240 l 306 -203 q 506 -94 432 -154 q 581 69 581 -35 l 581 642 l 310 642 l 310 93 l 443 93 l 443 0 l 67 0 l 67 93 l 197 93 l 197 642 l 74 642 l 74 732 l 694 732 l 694 76 z "},"ī":{"ha":833,"x_min":168,"x_max":715,"o":"m 510 93 l 715 93 l 715 0 l 168 0 l 168 93 l 393 93 l 393 639 l 175 639 l 175 732 l 510 732 l 510 93 m 231 939 l 231 1028 l 604 1028 l 604 939 l 231 939 z "},"į":{"ha":833,"x_min":168,"x_max":715,"o":"m 417 910 q 356 933 379 910 q 333 992 333 956 q 356 1051 333 1028 q 417 1074 379 1074 q 478 1051 454 1074 q 501 992 501 1028 q 478 933 501 956 q 417 910 454 910 m 715 93 l 715 0 l 510 0 q 374 -81 410 -43 q 338 -158 338 -118 q 356 -208 338 -192 q 415 -225 374 -225 q 500 -215 453 -225 l 489 -310 q 400 -318 431 -318 q 276 -280 322 -318 q 231 -182 231 -242 q 376 0 231 -71 l 168 0 l 168 93 l 393 93 l 393 639 l 175 639 l 175 732 l 510 732 l 510 93 l 715 93 z "},"ĩ":{"ha":833,"x_min":168,"x_max":715,"o":"m 510 93 l 715 93 l 715 0 l 168 0 l 168 93 l 393 93 l 393 639 l 175 639 l 175 732 l 510 732 l 510 93 m 499 915 q 451 925 472 915 q 403 953 429 935 q 367 975 382 968 q 338 982 353 982 q 299 967 315 982 q 264 918 282 951 l 190 954 q 253 1040 217 1008 q 338 1072 290 1072 q 388 1062 367 1072 q 435 1033 408 1051 q 471 1010 458 1017 q 499 1004 483 1004 q 536 1019 519 1004 q 572 1067 553 1033 l 647 1029 q 583 944 621 972 q 499 915 544 915 z "},"j":{"ha":833,"x_min":133,"x_max":618,"o":"m 510 1074 q 571 1051 547 1074 q 594 992 594 1028 q 571 933 594 956 q 510 910 547 910 q 449 933 472 910 q 425 992 425 956 q 449 1051 425 1028 q 510 1074 472 1074 m 618 117 q 501 -158 618 -60 q 153 -294 383 -256 l 133 -204 q 406 -102 310 -175 q 501 110 501 -29 l 501 639 l 197 639 l 197 732 l 618 732 l 618 117 z "},"ȷ":{"ha":833,"x_min":133,"x_max":618,"o":"m 618 117 q 501 -158 618 -60 q 153 -294 383 -256 l 133 -204 q 406 -102 310 -175 q 501 110 501 -29 l 501 639 l 197 639 l 197 732 l 618 732 l 618 117 z "},"ĵ":{"ha":833,"x_min":133,"x_max":738,"o":"m 618 117 q 501 -158 618 -60 q 153 -294 383 -256 l 133 -204 q 406 -102 310 -175 q 501 110 501 -29 l 501 639 l 197 639 l 197 732 l 618 732 l 618 117 m 285 931 l 472 1096 l 551 1096 l 738 931 l 685 874 l 513 1000 l 340 874 l 285 931 z "},"k":{"ha":833,"x_min":147,"x_max":790,"o":"m 264 0 l 147 0 l 147 1026 l 264 1040 l 264 0 m 424 401 l 790 0 l 636 0 l 276 400 l 601 732 l 751 732 l 424 401 z "},"ķ":{"ha":833,"x_min":147,"x_max":790,"o":"m 264 0 l 147 0 l 147 1026 l 264 1040 l 264 0 m 424 401 l 790 0 l 636 0 l 276 400 l 601 732 l 751 732 l 424 401 m 429 -99 q 483 -120 461 -99 q 506 -172 506 -142 q 485 -249 506 -201 l 414 -397 l 344 -397 l 385 -235 q 354 -172 354 -211 q 376 -119 354 -140 q 429 -99 397 -99 z "},"ĸ":{"ha":833,"x_min":139,"x_max":782,"o":"m 256 0 l 139 0 l 139 732 l 256 732 l 256 0 m 413 400 l 782 0 l 629 0 l 269 393 l 593 732 l 744 732 l 413 400 z "},"l":{"ha":833,"x_min":83,"x_max":699,"o":"m 425 181 q 546 82 425 82 q 668 107 603 82 l 699 22 q 525 -15 629 -15 q 367 39 426 -15 q 308 186 308 93 l 308 933 l 83 933 l 83 1026 l 425 1026 l 425 181 z "},"ĺ":{"ha":833,"x_min":83,"x_max":699,"o":"m 425 181 q 546 82 425 82 q 668 107 603 82 l 699 22 q 525 -15 629 -15 q 367 39 426 -15 q 308 186 308 93 l 308 933 l 83 933 l 83 1026 l 425 1026 l 425 181 m 538 1301 l 247 1183 l 211 1246 l 485 1401 l 538 1301 z "},"ľ":{"ha":833,"x_min":83,"x_max":699,"o":"m 425 181 q 546 82 425 82 q 668 107 603 82 l 699 22 q 525 -15 629 -15 q 367 39 426 -15 q 308 186 308 93 l 308 933 l 83 933 l 83 1026 l 425 1026 l 425 181 m 636 1025 l 563 778 l 496 788 l 531 1039 l 636 1025 z "},"ļ":{"ha":833,"x_min":83,"x_max":699,"o":"m 425 181 q 546 82 425 82 q 668 107 603 82 l 699 22 q 525 -15 629 -15 q 367 39 426 -15 q 308 186 308 93 l 308 933 l 83 933 l 83 1026 l 425 1026 l 425 181 m 506 -99 q 560 -120 538 -99 q 582 -172 582 -142 q 561 -249 582 -201 l 490 -397 l 421 -397 l 461 -235 q 431 -172 431 -211 q 452 -119 431 -140 q 506 -99 474 -99 z "},"ŀ":{"ha":833,"x_min":83,"x_max":863,"o":"m 425 181 q 546 82 425 82 q 668 107 603 82 l 699 22 q 525 -15 629 -15 q 367 39 426 -15 q 308 186 308 93 l 308 933 l 83 933 l 83 1026 l 425 1026 l 425 181 m 778 611 q 839 588 815 611 q 863 529 863 565 q 839 470 863 493 q 778 447 815 447 q 717 470 740 447 q 694 529 694 493 q 717 588 694 565 q 778 611 740 611 z "},"ł":{"ha":833,"x_min":83,"x_max":699,"o":"m 699 22 q 525 -15 629 -15 q 367 39 426 -15 q 308 186 308 93 l 308 425 l 214 368 l 164 443 l 308 529 l 308 933 l 83 933 l 83 1026 l 425 1026 l 425 601 l 549 679 l 599 604 l 425 496 l 425 181 q 546 82 425 82 q 668 107 603 82 l 699 22 z "},"m":{"ha":833,"x_min":71,"x_max":763,"o":"m 621 747 q 723 703 683 747 q 763 544 763 660 l 763 0 l 656 0 l 656 525 q 646 628 656 601 q 599 656 636 656 q 471 568 528 656 l 471 0 l 363 0 l 363 525 q 353 628 363 601 q 306 656 343 656 q 178 568 235 656 l 178 0 l 71 0 l 71 732 l 161 732 l 169 646 q 240 721 203 694 q 328 747 276 747 q 460 650 431 747 q 531 722 493 697 q 621 747 568 747 z "},"n":{"ha":833,"x_min":139,"x_max":696,"o":"m 139 732 l 239 732 l 249 629 q 358 716 292 685 q 490 747 424 747 q 696 531 696 747 l 696 0 l 579 0 l 579 444 q 570 569 579 526 q 535 633 561 613 q 454 654 508 654 q 342 618 394 654 q 256 532 289 582 l 256 0 l 139 0 l 139 732 z "},"ń":{"ha":833,"x_min":139,"x_max":696,"o":"m 139 732 l 239 732 l 249 629 q 358 716 292 685 q 490 747 424 747 q 696 531 696 747 l 696 0 l 579 0 l 579 444 q 570 569 579 526 q 535 633 561 613 q 454 654 508 654 q 342 618 394 654 q 256 532 289 582 l 256 0 l 139 0 l 139 732 m 586 1007 l 296 889 l 260 951 l 533 1107 l 586 1007 z "},"ŉ":{"ha":833,"x_min":1,"x_max":708,"o":"m 88 1044 q 142 1023 119 1044 q 164 969 164 1001 q 156 931 164 953 q 128 863 149 908 l 71 742 l 1 742 l 43 907 q 11 969 11 935 q 33 1023 11 1001 q 88 1044 56 1044 m 151 732 l 251 732 l 260 629 q 370 716 304 685 q 501 747 436 747 q 708 531 708 747 l 708 0 l 592 0 l 592 444 q 583 569 592 526 q 547 633 574 613 q 465 654 519 654 q 353 618 406 654 q 268 532 301 582 l 268 0 l 151 0 l 151 732 z "},"ň":{"ha":833,"x_min":139,"x_max":696,"o":"m 139 732 l 239 732 l 249 629 q 358 716 292 685 q 490 747 424 747 q 696 531 696 747 l 696 0 l 579 0 l 579 444 q 570 569 579 526 q 535 633 561 613 q 454 654 508 654 q 342 618 394 654 q 256 532 289 582 l 256 0 l 139 0 l 139 732 m 643 1039 l 457 874 l 378 874 l 190 1039 l 246 1096 l 418 971 l 590 1096 l 643 1039 z "},"ņ":{"ha":833,"x_min":139,"x_max":696,"o":"m 139 732 l 239 732 l 249 629 q 358 716 292 685 q 490 747 424 747 q 696 531 696 747 l 696 0 l 579 0 l 579 444 q 570 569 579 526 q 535 633 561 613 q 454 654 508 654 q 342 618 394 654 q 256 532 289 582 l 256 0 l 139 0 l 139 732 m 422 -99 q 476 -120 454 -99 q 499 -172 499 -142 q 478 -249 499 -201 l 407 -397 l 338 -397 l 378 -235 q 347 -172 347 -211 q 369 -119 347 -140 q 422 -99 390 -99 z "},"ŋ":{"ha":833,"x_min":139,"x_max":696,"o":"m 696 40 q 673 -122 696 -61 q 605 -220 650 -183 q 481 -293 560 -257 l 438 -208 q 521 -158 492 -182 q 565 -90 550 -133 q 579 32 579 -46 l 579 444 q 570 569 579 526 q 534 633 561 613 q 451 654 507 654 q 342 618 394 654 q 256 533 289 582 l 256 0 l 139 0 l 139 732 l 239 732 l 249 629 q 358 716 292 685 q 490 747 424 747 q 696 531 696 747 l 696 40 z "},"ñ":{"ha":833,"x_min":139,"x_max":696,"o":"m 139 732 l 239 732 l 249 629 q 358 716 292 685 q 490 747 424 747 q 696 531 696 747 l 696 0 l 579 0 l 579 444 q 570 569 579 526 q 535 633 561 613 q 454 654 508 654 q 342 618 394 654 q 256 532 289 582 l 256 0 l 139 0 l 139 732 m 497 915 q 449 925 471 915 q 401 953 428 935 q 366 975 381 968 q 336 982 351 982 q 297 967 314 982 q 263 918 281 951 l 189 954 q 252 1040 215 1008 q 336 1072 289 1072 q 386 1062 365 1072 q 433 1033 407 1051 q 469 1010 457 1017 q 497 1004 482 1004 q 535 1019 518 1004 q 571 1067 551 1033 l 646 1029 q 581 944 619 972 q 497 915 543 915 z "},"o":{"ha":833,"x_min":101,"x_max":732,"o":"m 418 747 q 651 645 569 747 q 732 367 732 543 q 649 90 732 194 q 417 -15 567 -15 q 183 87 265 -15 q 101 365 101 189 q 184 643 101 539 q 418 747 267 747 m 418 651 q 275 581 322 651 q 228 365 228 510 q 274 151 228 221 q 417 81 321 81 q 559 151 513 81 q 606 367 606 221 q 559 581 606 511 q 418 651 513 651 z "},"ó":{"ha":833,"x_min":101,"x_max":732,"o":"m 418 747 q 651 645 569 747 q 732 367 732 543 q 649 90 732 194 q 417 -15 567 -15 q 183 87 265 -15 q 101 365 101 189 q 184 643 101 539 q 418 747 267 747 m 418 651 q 275 581 322 651 q 228 365 228 510 q 274 151 228 221 q 417 81 321 81 q 559 151 513 81 q 606 367 606 221 q 559 581 606 511 q 418 651 513 651 m 586 1007 l 296 889 l 260 951 l 533 1107 l 586 1007 z "},"ŏ":{"ha":833,"x_min":101,"x_max":732,"o":"m 418 747 q 651 645 569 747 q 732 367 732 543 q 649 90 732 194 q 417 -15 567 -15 q 183 87 265 -15 q 101 365 101 189 q 184 643 101 539 q 418 747 267 747 m 418 651 q 275 581 322 651 q 228 365 228 510 q 274 151 228 221 q 417 81 321 81 q 559 151 513 81 q 606 367 606 221 q 559 581 606 511 q 418 651 513 651 m 414 875 q 310 903 354 875 q 240 975 265 932 q 208 1064 214 1018 l 289 1082 q 414 964 324 964 q 494 995 463 964 q 543 1082 526 1026 l 622 1064 q 590 975 617 1018 q 519 903 564 932 q 414 875 474 875 z "},"ô":{"ha":833,"x_min":101,"x_max":732,"o":"m 418 747 q 651 645 569 747 q 732 367 732 543 q 649 90 732 194 q 417 -15 567 -15 q 183 87 265 -15 q 101 365 101 189 q 184 643 101 539 q 418 747 267 747 m 418 651 q 275 581 322 651 q 228 365 228 510 q 274 151 228 221 q 417 81 321 81 q 559 151 513 81 q 606 367 606 221 q 559 581 606 511 q 418 651 513 651 m 190 931 l 378 1096 l 457 1096 l 643 931 l 590 874 l 418 1000 l 246 874 l 190 931 z "},"ö":{"ha":833,"x_min":101,"x_max":732,"o":"m 418 747 q 651 645 569 747 q 732 367 732 543 q 649 90 732 194 q 417 -15 567 -15 q 183 87 265 -15 q 101 365 101 189 q 184 643 101 539 q 418 747 267 747 m 418 651 q 275 581 322 651 q 228 365 228 510 q 274 151 228 221 q 417 81 321 81 q 559 151 513 81 q 606 367 606 221 q 559 581 606 511 q 418 651 513 651 m 272 900 q 218 922 240 900 q 196 974 196 943 q 218 1028 196 1007 q 272 1050 240 1050 q 326 1028 304 1050 q 347 974 347 1007 q 326 921 347 942 q 272 900 304 900 m 560 900 q 506 921 528 900 q 485 974 485 942 q 506 1028 485 1007 q 560 1050 528 1050 q 614 1028 592 1050 q 636 974 636 1007 q 614 922 636 943 q 560 900 592 900 z "},"ò":{"ha":833,"x_min":101,"x_max":732,"o":"m 418 747 q 651 645 569 747 q 732 367 732 543 q 649 90 732 194 q 417 -15 567 -15 q 183 87 265 -15 q 101 365 101 189 q 184 643 101 539 q 418 747 267 747 m 418 651 q 275 581 322 651 q 228 365 228 510 q 274 151 228 221 q 417 81 321 81 q 559 151 513 81 q 606 367 606 221 q 559 581 606 511 q 418 651 513 651 m 256 993 l 319 1093 l 575 928 l 538 864 l 256 993 z "},"ő":{"ha":833,"x_min":101,"x_max":732,"o":"m 418 747 q 651 645 569 747 q 732 367 732 543 q 649 90 732 194 q 417 -15 567 -15 q 183 87 265 -15 q 101 365 101 189 q 184 643 101 539 q 418 747 267 747 m 418 651 q 275 581 322 651 q 228 365 228 510 q 274 151 228 221 q 417 81 321 81 q 559 151 513 81 q 606 367 606 221 q 559 581 606 511 q 418 651 513 651 m 353 1161 l 457 1111 l 322 883 l 244 919 l 353 1161 m 594 1161 l 697 1107 l 547 881 l 474 919 l 594 1161 z "},"ō":{"ha":833,"x_min":101,"x_max":732,"o":"m 418 747 q 651 645 569 747 q 732 367 732 543 q 649 90 732 194 q 417 -15 567 -15 q 183 87 265 -15 q 101 365 101 189 q 184 643 101 539 q 418 747 267 747 m 418 651 q 275 581 322 651 q 228 365 228 510 q 274 151 228 221 q 417 81 321 81 q 559 151 513 81 q 606 367 606 221 q 559 581 606 511 q 418 651 513 651 m 229 939 l 229 1028 l 603 1028 l 603 939 l 229 939 z "},"ø":{"ha":833,"x_min":101,"x_max":732,"o":"m 579 706 q 692 573 653 661 q 732 367 732 485 q 649 90 732 194 q 417 -15 567 -15 q 347 -10 376 -15 l 296 -181 l 199 -153 l 257 25 q 142 158 182 69 q 101 365 101 246 q 184 643 101 539 q 418 747 267 747 q 486 740 449 747 l 539 908 l 636 879 l 579 706 m 418 651 q 228 365 228 651 q 300 118 228 182 l 464 647 q 418 651 443 651 m 417 81 q 606 367 606 81 q 535 613 606 550 l 371 85 q 417 81 392 81 z "},"ǿ":{"ha":833,"x_min":101,"x_max":732,"o":"m 579 706 q 692 573 653 661 q 732 367 732 485 q 649 90 732 194 q 417 -15 567 -15 q 347 -10 376 -15 l 296 -181 l 199 -153 l 257 25 q 142 158 182 69 q 101 365 101 246 q 184 643 101 539 q 418 747 267 747 q 486 740 449 747 l 539 908 l 636 879 l 579 706 m 418 651 q 228 365 228 651 q 300 118 228 182 l 464 647 q 418 651 443 651 m 417 81 q 606 367 606 81 q 535 613 606 550 l 371 85 q 417 81 392 81 m 586 1007 l 296 889 l 260 951 l 533 1107 l 586 1007 z "},"õ":{"ha":833,"x_min":101,"x_max":732,"o":"m 418 747 q 651 645 569 747 q 732 367 732 543 q 649 90 732 194 q 417 -15 567 -15 q 183 87 265 -15 q 101 365 101 189 q 184 643 101 539 q 418 747 267 747 m 418 651 q 275 581 322 651 q 228 365 228 510 q 274 151 228 221 q 417 81 321 81 q 559 151 513 81 q 606 367 606 221 q 559 581 606 511 q 418 651 513 651 m 497 915 q 449 925 471 915 q 401 953 428 935 q 366 975 381 968 q 336 982 351 982 q 297 967 314 982 q 263 918 281 951 l 189 954 q 252 1040 215 1008 q 336 1072 289 1072 q 386 1062 365 1072 q 433 1033 407 1051 q 469 1010 457 1017 q 497 1004 482 1004 q 535 1019 518 1004 q 571 1067 551 1033 l 646 1029 q 581 944 619 972 q 497 915 543 915 z "},"œ":{"ha":833,"x_min":-3,"x_max":854,"o":"m 624 747 q 798 654 742 747 q 854 388 854 561 q 851 324 854 357 l 486 324 q 531 140 496 197 q 639 82 567 82 q 705 95 675 82 q 772 138 735 108 l 826 57 q 737 3 782 21 q 636 -15 692 -15 q 509 21 561 -15 q 429 125 457 57 q 355 21 401 57 q 232 -15 308 -15 q 56 85 114 -15 q -3 365 -3 186 q 55 645 -3 543 q 232 747 113 747 q 359 710 314 747 q 429 604 404 674 q 624 747 488 747 m 247 653 q 150 583 179 653 q 121 365 121 514 q 150 147 121 214 q 247 81 179 81 q 319 108 293 81 q 358 198 346 136 q 369 367 369 260 q 341 584 369 515 q 247 653 313 653 m 621 650 q 526 597 557 650 q 486 415 494 544 l 740 415 q 712 593 738 536 q 621 650 686 650 z "},"p":{"ha":833,"x_min":139,"x_max":732,"o":"m 467 747 q 732 367 732 747 q 660 89 732 193 q 450 -15 588 -15 q 256 68 331 -15 l 256 -281 l 139 -294 l 139 732 l 239 732 l 249 629 q 345 717 289 686 q 467 747 401 747 m 439 653 q 337 619 383 653 q 256 536 290 586 l 256 174 q 328 106 285 131 q 424 82 372 82 q 560 152 515 82 q 606 367 606 222 q 565 582 606 511 q 439 653 525 653 z "},"þ":{"ha":833,"x_min":139,"x_max":732,"o":"m 256 640 q 351 719 296 692 q 467 747 406 747 q 732 367 732 747 q 660 89 732 193 q 450 -15 588 -15 q 256 68 331 -15 l 256 -281 l 139 -294 l 139 1026 l 256 1040 l 256 640 m 439 653 q 337 619 383 653 q 256 536 290 586 l 256 174 q 328 106 285 131 q 424 82 372 82 q 560 152 515 82 q 606 367 606 222 q 565 582 606 511 q 439 653 525 653 z "},"q":{"ha":833,"x_min":101,"x_max":694,"o":"m 381 747 q 585 651 508 747 l 594 732 l 694 732 l 694 -294 l 578 -281 l 578 92 q 371 -15 500 -15 q 101 365 101 -15 q 175 641 101 535 q 381 747 249 747 m 410 653 q 228 365 228 653 q 269 152 228 222 q 396 82 311 82 q 499 113 453 82 q 578 194 544 144 l 578 558 q 505 628 549 603 q 410 653 461 653 z "},"r":{"ha":833,"x_min":146,"x_max":736,"o":"m 633 747 q 736 732 678 747 l 719 483 l 625 483 l 625 640 l 618 640 q 378 399 449 640 l 378 90 l 526 90 l 526 0 l 146 0 l 146 90 l 261 90 l 261 642 l 146 642 l 146 732 l 349 732 l 371 558 q 477 700 415 653 q 633 747 539 747 z "},"ŕ":{"ha":833,"x_min":146,"x_max":736,"o":"m 633 747 q 736 732 678 747 l 719 483 l 625 483 l 625 640 l 618 640 q 378 399 449 640 l 378 90 l 526 90 l 526 0 l 146 0 l 146 90 l 261 90 l 261 642 l 146 642 l 146 732 l 349 732 l 371 558 q 477 700 415 653 q 633 747 539 747 m 629 1007 l 339 889 l 303 951 l 576 1107 l 629 1007 z "},"ř":{"ha":833,"x_min":146,"x_max":736,"o":"m 633 747 q 736 732 678 747 l 719 483 l 625 483 l 625 640 l 618 640 q 378 399 449 640 l 378 90 l 526 90 l 526 0 l 146 0 l 146 90 l 261 90 l 261 642 l 146 642 l 146 732 l 349 732 l 371 558 q 477 700 415 653 q 633 747 539 747 m 686 1039 l 500 874 l 421 874 l 233 1039 l 289 1096 l 461 971 l 633 1096 l 686 1039 z "},"ŗ":{"ha":833,"x_min":146,"x_max":736,"o":"m 633 747 q 736 732 678 747 l 719 483 l 625 483 l 625 640 l 618 640 q 378 399 449 640 l 378 90 l 526 90 l 526 0 l 146 0 l 146 90 l 261 90 l 261 642 l 146 642 l 146 732 l 349 732 l 371 558 q 477 700 415 653 q 633 747 539 747 m 324 -99 q 378 -120 356 -99 q 400 -172 400 -142 q 379 -249 400 -201 l 308 -397 l 239 -397 l 279 -235 q 249 -172 249 -211 q 270 -119 249 -140 q 324 -99 292 -99 z "},"s":{"ha":833,"x_min":103,"x_max":696,"o":"m 389 81 q 521 113 472 81 q 569 197 569 144 q 557 256 569 233 q 507 298 544 279 q 393 336 469 317 q 204 413 265 368 q 143 547 143 458 q 219 693 143 639 q 421 747 296 747 q 688 667 574 747 l 635 586 q 539 635 589 618 q 424 653 489 653 q 265 557 265 653 q 283 503 265 524 q 340 466 300 482 q 458 428 379 450 q 637 347 578 396 q 696 203 696 297 q 607 39 696 93 q 389 -15 518 -15 q 103 83 217 -15 l 168 160 q 269 102 213 124 q 389 81 326 81 z "},"ś":{"ha":833,"x_min":103,"x_max":696,"o":"m 389 81 q 521 113 472 81 q 569 197 569 144 q 557 256 569 233 q 507 298 544 279 q 393 336 469 317 q 204 413 265 368 q 143 547 143 458 q 219 693 143 639 q 421 747 296 747 q 688 667 574 747 l 635 586 q 539 635 589 618 q 424 653 489 653 q 265 557 265 653 q 283 503 265 524 q 340 466 300 482 q 458 428 379 450 q 637 347 578 396 q 696 203 696 297 q 607 39 696 93 q 389 -15 518 -15 q 103 83 217 -15 l 168 160 q 269 102 213 124 q 389 81 326 81 m 596 1007 l 306 889 l 269 951 l 543 1107 l 596 1007 z "},"š":{"ha":833,"x_min":103,"x_max":696,"o":"m 389 81 q 521 113 472 81 q 569 197 569 144 q 557 256 569 233 q 507 298 544 279 q 393 336 469 317 q 204 413 265 368 q 143 547 143 458 q 219 693 143 639 q 421 747 296 747 q 688 667 574 747 l 635 586 q 539 635 589 618 q 424 653 489 653 q 265 557 265 653 q 283 503 265 524 q 340 466 300 482 q 458 428 379 450 q 637 347 578 396 q 696 203 696 297 q 607 39 696 93 q 389 -15 518 -15 q 103 83 217 -15 l 168 160 q 269 102 213 124 q 389 81 326 81 m 653 1039 l 467 874 l 388 874 l 200 1039 l 256 1096 l 428 971 l 600 1096 l 653 1039 z "},"ş":{"ha":833,"x_min":103,"x_max":696,"o":"m 696 203 q 624 50 696 104 q 440 -14 551 -4 l 440 -79 q 537 -117 504 -85 q 569 -194 569 -150 q 520 -295 569 -260 q 400 -331 471 -331 q 320 -322 358 -331 q 254 -297 282 -312 l 292 -231 q 385 -253 333 -253 q 468 -196 468 -253 q 439 -147 468 -160 q 349 -135 410 -135 l 357 -15 q 103 83 204 -6 l 168 160 q 269 102 213 124 q 389 81 326 81 q 521 113 472 81 q 569 197 569 144 q 557 256 569 233 q 507 298 544 279 q 393 336 469 317 q 204 413 265 368 q 143 547 143 458 q 219 693 143 639 q 421 747 296 747 q 688 667 574 747 l 635 586 q 539 635 589 618 q 424 653 489 653 q 265 557 265 653 q 283 503 265 524 q 340 466 300 482 q 458 428 379 450 q 637 347 578 396 q 696 203 696 297 z "},"ŝ":{"ha":833,"x_min":103,"x_max":696,"o":"m 389 81 q 521 113 472 81 q 569 197 569 144 q 557 256 569 233 q 507 298 544 279 q 393 336 469 317 q 204 413 265 368 q 143 547 143 458 q 219 693 143 639 q 421 747 296 747 q 688 667 574 747 l 635 586 q 539 635 589 618 q 424 653 489 653 q 265 557 265 653 q 283 503 265 524 q 340 466 300 482 q 458 428 379 450 q 637 347 578 396 q 696 203 696 297 q 607 39 696 93 q 389 -15 518 -15 q 103 83 217 -15 l 168 160 q 269 102 213 124 q 389 81 326 81 m 200 931 l 388 1096 l 467 1096 l 653 931 l 600 874 l 428 1000 l 256 874 l 200 931 z "},"ș":{"ha":833,"x_min":103,"x_max":696,"o":"m 389 81 q 521 113 472 81 q 569 197 569 144 q 557 256 569 233 q 507 298 544 279 q 393 336 469 317 q 204 413 265 368 q 143 547 143 458 q 219 693 143 639 q 421 747 296 747 q 688 667 574 747 l 635 586 q 539 635 589 618 q 424 653 489 653 q 265 557 265 653 q 283 503 265 524 q 340 466 300 482 q 458 428 379 450 q 637 347 578 396 q 696 203 696 297 q 607 39 696 93 q 389 -15 518 -15 q 103 83 217 -15 l 168 160 q 269 102 213 124 q 389 81 326 81 m 417 -99 q 471 -120 449 -99 q 493 -172 493 -142 q 472 -249 493 -201 l 401 -397 l 332 -397 l 372 -235 q 342 -172 342 -211 q 363 -119 342 -140 q 417 -99 385 -99 z "},"ß":{"ha":833,"x_min":133,"x_max":775,"o":"m 413 1040 q 587 985 519 1040 q 654 840 654 929 q 631 758 654 790 q 563 689 607 726 q 512 641 528 660 q 496 596 496 622 q 521 537 496 561 q 603 476 546 513 q 691 413 657 442 q 750 340 725 385 q 775 232 775 294 q 740 98 775 154 q 647 13 706 42 q 517 -15 588 -15 q 336 32 411 -15 l 385 113 q 442 88 410 97 q 506 79 475 79 q 616 116 576 79 q 656 226 656 153 q 622 322 656 286 q 519 401 588 358 q 446 453 474 431 q 399 507 418 475 q 381 582 381 539 q 403 658 381 628 q 468 722 426 689 q 524 774 506 751 q 542 829 542 797 q 510 911 542 875 q 411 947 479 947 q 290 900 331 947 q 250 749 250 853 l 250 0 l 133 0 l 133 740 q 207 963 133 886 q 413 1040 281 1040 z "},"t":{"ha":833,"x_min":110,"x_max":721,"o":"m 721 38 q 630 -1 683 13 q 524 -15 576 -15 q 343 45 408 -15 q 278 204 278 106 l 278 640 l 110 640 l 110 732 l 278 732 l 278 897 l 394 911 l 394 732 l 649 732 l 633 640 l 394 640 l 394 206 q 428 113 394 143 q 535 82 461 82 q 675 117 610 82 l 721 38 z "},"ŧ":{"ha":833,"x_min":110,"x_max":721,"o":"m 721 38 q 630 -1 683 13 q 524 -15 576 -15 q 343 45 408 -15 q 278 204 278 106 l 278 400 l 125 400 l 125 489 l 278 489 l 278 640 l 110 640 l 110 732 l 278 732 l 278 897 l 394 911 l 394 732 l 649 732 l 633 640 l 394 640 l 394 489 l 635 489 l 635 400 l 394 400 l 394 206 q 428 113 394 143 q 535 82 461 82 q 675 117 610 82 l 721 38 z "},"ť":{"ha":833,"x_min":110,"x_max":721,"o":"m 721 38 q 630 -1 683 13 q 524 -15 576 -15 q 343 45 408 -15 q 278 204 278 106 l 278 640 l 110 640 l 110 732 l 278 732 l 278 897 l 394 911 l 394 732 l 649 732 l 633 640 l 394 640 l 394 206 q 428 113 394 143 q 535 82 461 82 q 675 117 610 82 l 721 38 m 611 1044 l 538 797 l 471 807 l 506 1058 l 611 1044 z "},"ţ":{"ha":833,"x_min":110,"x_max":721,"o":"m 543 -79 q 640 -117 607 -85 q 672 -194 672 -150 q 623 -295 672 -260 q 503 -331 574 -331 q 423 -322 461 -331 q 357 -297 385 -312 l 394 -231 q 488 -253 436 -253 q 571 -196 571 -253 q 542 -147 571 -160 q 451 -135 513 -135 l 460 -10 q 326 63 374 6 q 278 204 278 121 l 278 640 l 110 640 l 110 732 l 278 732 l 278 897 l 394 911 l 394 732 l 649 732 l 633 640 l 394 640 l 394 206 q 428 113 394 143 q 535 82 461 82 q 675 117 610 82 l 721 38 q 640 1 688 15 q 543 -15 592 -12 l 543 -79 z "},"ț":{"ha":833,"x_min":110,"x_max":721,"o":"m 721 38 q 630 -1 683 13 q 524 -15 576 -15 q 343 45 408 -15 q 278 204 278 106 l 278 640 l 110 640 l 110 732 l 278 732 l 278 897 l 394 911 l 394 732 l 649 732 l 633 640 l 394 640 l 394 206 q 428 113 394 143 q 535 82 461 82 q 675 117 610 82 l 721 38 m 519 -99 q 574 -120 551 -99 q 596 -172 596 -142 q 575 -249 596 -201 l 504 -397 l 435 -397 l 475 -235 q 444 -172 444 -211 q 466 -119 444 -140 q 519 -99 488 -99 z "},"u":{"ha":833,"x_min":139,"x_max":694,"o":"m 256 213 q 285 109 256 142 q 379 76 315 76 q 492 110 438 76 q 578 193 546 143 l 578 732 l 694 732 l 694 0 l 594 0 l 585 99 q 478 15 542 44 q 350 -15 415 -15 q 192 40 246 -15 q 139 200 139 96 l 139 732 l 256 732 l 256 213 z "},"ú":{"ha":833,"x_min":139,"x_max":694,"o":"m 256 213 q 285 109 256 142 q 379 76 315 76 q 492 110 438 76 q 578 193 546 143 l 578 732 l 694 732 l 694 0 l 594 0 l 585 99 q 478 15 542 44 q 350 -15 415 -15 q 192 40 246 -15 q 139 200 139 96 l 139 732 l 256 732 l 256 213 m 586 1007 l 296 889 l 260 951 l 533 1107 l 586 1007 z "},"ŭ":{"ha":833,"x_min":139,"x_max":694,"o":"m 256 213 q 285 109 256 142 q 379 76 315 76 q 492 110 438 76 q 578 193 546 143 l 578 732 l 694 732 l 694 0 l 594 0 l 585 99 q 478 15 542 44 q 350 -15 415 -15 q 192 40 246 -15 q 139 200 139 96 l 139 732 l 256 732 l 256 213 m 414 875 q 310 903 354 875 q 240 975 265 932 q 208 1064 214 1018 l 289 1082 q 414 964 324 964 q 494 995 463 964 q 543 1082 526 1026 l 622 1064 q 590 975 617 1018 q 519 903 564 932 q 414 875 474 875 z "},"û":{"ha":833,"x_min":139,"x_max":694,"o":"m 256 213 q 285 109 256 142 q 379 76 315 76 q 492 110 438 76 q 578 193 546 143 l 578 732 l 694 732 l 694 0 l 594 0 l 585 99 q 478 15 542 44 q 350 -15 415 -15 q 192 40 246 -15 q 139 200 139 96 l 139 732 l 256 732 l 256 213 m 190 931 l 378 1096 l 457 1096 l 643 931 l 590 874 l 418 1000 l 246 874 l 190 931 z "},"ü":{"ha":833,"x_min":139,"x_max":694,"o":"m 256 213 q 285 109 256 142 q 379 76 315 76 q 492 110 438 76 q 578 193 546 143 l 578 732 l 694 732 l 694 0 l 594 0 l 585 99 q 478 15 542 44 q 350 -15 415 -15 q 192 40 246 -15 q 139 200 139 96 l 139 732 l 256 732 l 256 213 m 272 900 q 218 922 240 900 q 196 974 196 943 q 218 1028 196 1007 q 272 1050 240 1050 q 326 1028 304 1050 q 347 974 347 1007 q 326 921 347 942 q 272 900 304 900 m 560 900 q 506 921 528 900 q 485 974 485 942 q 506 1028 485 1007 q 560 1050 528 1050 q 614 1028 592 1050 q 636 974 636 1007 q 614 922 636 943 q 560 900 592 900 z "},"ù":{"ha":833,"x_min":139,"x_max":694,"o":"m 256 213 q 285 109 256 142 q 379 76 315 76 q 492 110 438 76 q 578 193 546 143 l 578 732 l 694 732 l 694 0 l 594 0 l 585 99 q 478 15 542 44 q 350 -15 415 -15 q 192 40 246 -15 q 139 200 139 96 l 139 732 l 256 732 l 256 213 m 256 993 l 319 1093 l 575 928 l 538 864 l 256 993 z "},"ű":{"ha":833,"x_min":139,"x_max":697,"o":"m 256 213 q 285 109 256 142 q 379 76 315 76 q 492 110 438 76 q 578 193 546 143 l 578 732 l 694 732 l 694 0 l 594 0 l 585 99 q 478 15 542 44 q 350 -15 415 -15 q 192 40 246 -15 q 139 200 139 96 l 139 732 l 256 732 l 256 213 m 353 1161 l 457 1111 l 322 883 l 244 919 l 353 1161 m 594 1161 l 697 1107 l 547 881 l 474 919 l 594 1161 z "},"ū":{"ha":833,"x_min":139,"x_max":694,"o":"m 256 213 q 285 109 256 142 q 379 76 315 76 q 492 110 438 76 q 578 193 546 143 l 578 732 l 694 732 l 694 0 l 594 0 l 585 99 q 478 15 542 44 q 350 -15 415 -15 q 192 40 246 -15 q 139 200 139 96 l 139 732 l 256 732 l 256 213 m 229 939 l 229 1028 l 603 1028 l 603 939 l 229 939 z "},"ų":{"ha":833,"x_min":139,"x_max":694,"o":"m 522 -158 q 540 -208 522 -192 q 600 -225 558 -225 q 685 -215 638 -225 l 674 -310 q 585 -318 615 -318 q 461 -280 507 -318 q 415 -182 415 -242 q 593 14 415 -58 l 585 99 q 478 15 542 44 q 350 -15 415 -15 q 192 40 246 -15 q 139 200 139 96 l 139 732 l 256 732 l 256 213 q 285 109 256 142 q 379 76 315 76 q 492 110 438 76 q 578 193 546 143 l 578 732 l 694 732 l 694 0 q 558 -81 594 -43 q 522 -158 522 -118 z "},"ů":{"ha":833,"x_min":139,"x_max":694,"o":"m 256 213 q 285 109 256 142 q 379 76 315 76 q 492 110 438 76 q 578 193 546 143 l 578 732 l 694 732 l 694 0 l 594 0 l 585 99 q 478 15 542 44 q 350 -15 415 -15 q 192 40 246 -15 q 139 200 139 96 l 139 732 l 256 732 l 256 213 m 417 1144 q 527 1103 483 1144 q 571 1001 571 1061 q 527 901 571 942 q 417 860 483 860 q 306 901 350 860 q 263 1001 263 942 q 306 1103 263 1061 q 417 1144 350 1144 m 417 1079 q 362 1058 382 1079 q 342 1001 342 1038 q 362 943 342 964 q 417 922 382 922 q 472 943 453 922 q 492 1001 492 964 q 472 1058 492 1038 q 417 1079 451 1079 z "},"ũ":{"ha":833,"x_min":139,"x_max":694,"o":"m 256 213 q 285 109 256 142 q 379 76 315 76 q 492 110 438 76 q 578 193 546 143 l 578 732 l 694 732 l 694 0 l 594 0 l 585 99 q 478 15 542 44 q 350 -15 415 -15 q 192 40 246 -15 q 139 200 139 96 l 139 732 l 256 732 l 256 213 m 497 915 q 449 925 471 915 q 401 953 428 935 q 366 975 381 968 q 336 982 351 982 q 297 967 314 982 q 263 918 281 951 l 189 954 q 252 1040 215 1008 q 336 1072 289 1072 q 386 1062 365 1072 q 433 1033 407 1051 q 469 1010 457 1017 q 497 1004 482 1004 q 535 1019 518 1004 q 571 1067 551 1033 l 646 1029 q 581 944 619 972 q 497 915 543 915 z "},"v":{"ha":833,"x_min":83,"x_max":750,"o":"m 483 0 l 349 0 l 83 732 l 208 732 l 419 106 l 628 732 l 750 732 l 483 0 z "},"w":{"ha":833,"x_min":25,"x_max":808,"o":"m 517 0 l 421 536 l 318 0 l 157 0 l 25 732 l 143 732 l 238 72 l 354 639 l 492 639 l 601 72 l 696 732 l 808 732 l 682 0 l 517 0 z "},"ẃ":{"ha":833,"x_min":25,"x_max":808,"o":"m 517 0 l 421 536 l 318 0 l 157 0 l 25 732 l 143 732 l 238 72 l 354 639 l 492 639 l 601 72 l 696 732 l 808 732 l 682 0 l 517 0 m 586 1007 l 296 889 l 260 951 l 533 1107 l 586 1007 z "},"ŵ":{"ha":833,"x_min":25,"x_max":808,"o":"m 517 0 l 421 536 l 318 0 l 157 0 l 25 732 l 143 732 l 238 72 l 354 639 l 492 639 l 601 72 l 696 732 l 808 732 l 682 0 l 517 0 m 190 931 l 378 1096 l 457 1096 l 643 931 l 590 874 l 418 1000 l 246 874 l 190 931 z "},"ẅ":{"ha":833,"x_min":25,"x_max":808,"o":"m 517 0 l 421 536 l 318 0 l 157 0 l 25 732 l 143 732 l 238 72 l 354 639 l 492 639 l 601 72 l 696 732 l 808 732 l 682 0 l 517 0 m 272 900 q 218 922 240 900 q 196 974 196 943 q 218 1028 196 1007 q 272 1050 240 1050 q 326 1028 304 1050 q 347 974 347 1007 q 326 921 347 942 q 272 900 304 900 m 560 900 q 506 921 528 900 q 485 974 485 942 q 506 1028 485 1007 q 560 1050 528 1050 q 614 1028 592 1050 q 636 974 636 1007 q 614 922 636 943 q 560 900 592 900 z "},"ẁ":{"ha":833,"x_min":25,"x_max":808,"o":"m 517 0 l 421 536 l 318 0 l 157 0 l 25 732 l 143 732 l 238 72 l 354 639 l 492 639 l 601 72 l 696 732 l 808 732 l 682 0 l 517 0 m 256 993 l 319 1093 l 575 928 l 538 864 l 256 993 z "},"x":{"ha":833,"x_min":78,"x_max":756,"o":"m 78 0 l 347 386 l 110 732 l 249 732 l 418 460 l 589 732 l 724 732 l 486 392 l 756 0 l 614 0 l 413 314 l 211 0 l 78 0 z "},"y":{"ha":833,"x_min":86,"x_max":747,"o":"m 492 -4 q 374 -206 449 -131 q 164 -294 299 -281 l 147 -201 q 265 -163 221 -189 q 333 -99 308 -137 q 379 0 358 -61 l 340 0 l 86 732 l 210 732 l 419 89 l 626 732 l 747 732 l 492 -4 z "},"ý":{"ha":833,"x_min":86,"x_max":747,"o":"m 492 -4 q 374 -206 449 -131 q 164 -294 299 -281 l 147 -201 q 265 -163 221 -189 q 333 -99 308 -137 q 379 0 358 -61 l 340 0 l 86 732 l 210 732 l 419 89 l 626 732 l 747 732 l 492 -4 m 586 1007 l 296 889 l 260 951 l 533 1107 l 586 1007 z "},"ŷ":{"ha":833,"x_min":86,"x_max":747,"o":"m 492 -4 q 374 -206 449 -131 q 164 -294 299 -281 l 147 -201 q 265 -163 221 -189 q 333 -99 308 -137 q 379 0 358 -61 l 340 0 l 86 732 l 210 732 l 419 89 l 626 732 l 747 732 l 492 -4 m 190 931 l 378 1096 l 457 1096 l 643 931 l 590 874 l 418 1000 l 246 874 l 190 931 z "},"ÿ":{"ha":833,"x_min":86,"x_max":747,"o":"m 492 -4 q 374 -206 449 -131 q 164 -294 299 -281 l 147 -201 q 265 -163 221 -189 q 333 -99 308 -137 q 379 0 358 -61 l 340 0 l 86 732 l 210 732 l 419 89 l 626 732 l 747 732 l 492 -4 m 272 900 q 218 922 240 900 q 196 974 196 943 q 218 1028 196 1007 q 272 1050 240 1050 q 326 1028 304 1050 q 347 974 347 1007 q 326 921 347 942 q 272 900 304 900 m 560 900 q 506 921 528 900 q 485 974 485 942 q 506 1028 485 1007 q 560 1050 528 1050 q 614 1028 592 1050 q 636 974 636 1007 q 614 922 636 943 q 560 900 592 900 z "},"ỳ":{"ha":833,"x_min":86,"x_max":747,"o":"m 492 -4 q 374 -206 449 -131 q 164 -294 299 -281 l 147 -201 q 265 -163 221 -189 q 333 -99 308 -137 q 379 0 358 -61 l 340 0 l 86 732 l 210 732 l 419 89 l 626 732 l 747 732 l 492 -4 m 256 993 l 319 1093 l 575 928 l 538 864 l 256 993 z "},"z":{"ha":833,"x_min":142,"x_max":692,"o":"m 692 100 l 678 0 l 142 0 l 142 89 l 547 629 l 174 629 l 174 732 l 688 732 l 688 640 l 285 100 l 692 100 z "},"ź":{"ha":833,"x_min":142,"x_max":692,"o":"m 692 100 l 678 0 l 142 0 l 142 89 l 547 629 l 174 629 l 174 732 l 688 732 l 688 640 l 285 100 l 692 100 m 600 1007 l 310 889 l 274 951 l 547 1107 l 600 1007 z "},"ž":{"ha":833,"x_min":142,"x_max":692,"o":"m 692 100 l 678 0 l 142 0 l 142 89 l 547 629 l 174 629 l 174 732 l 688 732 l 688 640 l 285 100 l 692 100 m 657 1039 l 471 874 l 392 874 l 204 1039 l 260 1096 l 432 971 l 604 1096 l 657 1039 z "},"ż":{"ha":833,"x_min":142,"x_max":692,"o":"m 692 100 l 678 0 l 142 0 l 142 89 l 547 629 l 174 629 l 174 732 l 688 732 l 688 640 l 285 100 l 692 100 m 429 1074 q 490 1051 467 1074 q 514 992 514 1028 q 490 933 514 956 q 429 910 467 910 q 369 933 392 910 q 346 992 346 956 q 369 1051 346 1028 q 429 1074 392 1074 z "},"ﬁ":{"ha":833,"x_min":28,"x_max":814,"o":"m 436 0 l 436 93 l 565 93 l 565 639 l 271 639 l 271 0 l 153 0 l 153 639 l 28 639 l 28 732 l 153 732 l 153 821 q 188 936 153 886 q 285 1013 224 986 q 424 1040 347 1040 q 622 1001 528 1040 l 585 914 q 428 944 515 944 q 271 824 271 944 l 271 732 l 683 732 l 683 93 l 814 93 l 814 0 l 436 0 z "},"ﬂ":{"ha":833,"x_min":19,"x_max":835,"o":"m 835 14 q 778 -8 806 0 q 711 -15 750 -15 q 586 29 633 -15 q 539 163 539 74 l 539 929 q 422 944 488 944 q 264 824 264 944 l 264 732 l 439 732 l 425 639 l 264 639 l 264 0 l 146 0 l 146 639 l 19 639 l 19 732 l 146 732 l 146 821 q 223 980 146 919 q 417 1040 300 1040 q 553 1015 482 1040 l 657 1038 l 657 167 q 675 101 657 119 q 728 82 693 82 q 803 97 761 82 l 835 14 z "},"ª":{"ha":833,"x_min":142,"x_max":692,"o":"m 403 1040 q 575 990 517 1040 q 633 846 633 939 l 633 572 q 644 525 633 542 q 681 501 656 508 l 654 426 q 581 451 610 432 q 539 508 553 471 q 456 448 506 469 q 353 426 407 426 q 200 477 258 426 q 142 611 142 528 q 221 752 142 703 q 443 801 300 801 l 525 801 l 525 842 q 388 951 525 951 q 218 917 311 951 l 186 999 q 403 1040 297 1040 m 444 722 q 260 617 260 722 q 290 537 260 564 q 379 510 321 510 q 459 531 421 510 q 525 588 497 551 l 525 722 l 444 722 m 692 0 l 147 0 l 147 104 l 692 104 l 692 0 z "},"º":{"ha":833,"x_min":133,"x_max":699,"o":"m 417 1040 q 623 958 547 1040 q 699 735 699 875 q 664 574 699 644 q 565 465 629 504 q 417 426 501 426 q 210 510 288 426 q 133 735 133 594 q 169 894 133 825 q 268 1001 204 963 q 417 1040 332 1040 m 417 951 q 294 897 339 951 q 250 735 250 843 q 294 571 250 625 q 417 517 338 517 q 538 571 494 517 q 582 735 582 625 q 538 897 582 843 q 417 951 494 951 m 690 0 l 144 0 l 144 104 l 690 104 l 690 0 z "},"ⁿ":{"ha":833,"x_min":233,"x_max":601,"o":"m 461 1004 q 601 861 601 1004 l 601 525 l 503 525 l 503 808 q 490 900 503 875 q 438 925 478 925 q 381 906 410 925 q 332 860 351 886 l 332 525 l 233 525 l 233 994 l 322 994 l 325 939 q 388 988 351 971 q 461 1004 425 1004 z "},"Ԭ":{"ha":833,"x_min":74,"x_max":781,"o":"m 781 101 l 781 -204 l 686 -204 l 665 0 l 189 0 l 169 -204 l 74 -204 l 74 101 l 124 101 q 207 238 167 146 q 278 481 247 331 q 132 576 179 504 q 85 775 85 647 l 85 957 l 208 957 l 208 781 q 229 654 208 701 q 297 586 250 607 l 310 678 l 344 957 l 732 957 l 732 101 l 781 101 m 433 672 q 419 565 425 601 l 611 565 l 611 853 l 454 853 l 433 672 m 611 101 l 611 467 l 411 467 l 403 467 q 335 235 374 315 q 246 101 297 156 l 611 101 z "},"Ԫ":{"ha":833,"x_min":-18,"x_max":850,"o":"m 850 0 l 735 0 l 628 449 l 592 449 l 592 0 l 510 0 l 510 -204 l 421 -204 l 399 0 l 92 0 l 71 -204 l -18 -204 l -18 89 l 29 89 q 67 205 53 154 q 95 353 81 256 q 119 604 110 450 l 142 957 l 419 957 l 419 549 l 490 549 l 490 957 l 592 957 l 592 549 l 629 549 l 721 957 l 821 957 l 715 503 l 850 0 m 318 864 l 242 864 l 226 599 q 192 271 215 381 q 125 89 168 161 l 318 89 l 318 864 m 419 449 l 419 89 l 490 89 l 490 449 l 419 449 z "},"Ԯ":{"ha":833,"x_min":4,"x_max":760,"o":"m 760 101 l 760 -204 l 665 -204 l 644 0 l 554 0 l 554 853 l 324 853 l 289 569 q 233 243 263 353 q 167 83 204 133 q 57 -15 129 33 l 4 74 q 68 143 44 107 q 117 271 92 179 q 164 536 142 363 l 218 957 l 675 957 l 675 101 l 760 101 z "},"Ԩ":{"ha":833,"x_min":-122,"x_max":718,"o":"m 718 957 l 718 0 l 597 0 l 597 454 l 236 454 l 236 -86 q 183 -241 236 -187 q 35 -294 129 -294 q -122 -243 -54 -294 l -75 -164 q -26 -190 -49 -182 q 29 -197 -4 -197 q 115 -93 115 -197 l 115 957 l 236 957 l 236 553 l 597 553 l 597 957 l 718 957 z "},"А":{"ha":833,"x_min":28,"x_max":804,"o":"m 224 244 l 147 0 l 28 0 l 340 957 l 493 957 l 804 0 l 679 0 l 603 244 l 224 244 m 571 344 l 414 854 l 256 344 l 571 344 z "},"Б":{"ha":833,"x_min":140,"x_max":753,"o":"m 663 856 l 260 856 l 260 585 l 381 585 q 656 515 560 585 q 753 299 753 444 q 654 71 753 142 q 382 0 556 0 l 140 0 l 140 957 l 674 957 l 663 856 m 260 489 l 260 97 l 397 97 q 568 140 508 97 q 628 297 628 183 q 566 443 628 397 q 399 489 504 489 l 260 489 z "},"В":{"ha":833,"x_min":133,"x_max":750,"o":"m 750 272 q 647 64 750 128 q 392 0 543 0 l 133 0 l 133 957 l 369 957 q 612 901 515 957 q 708 715 708 844 q 657 577 708 629 q 529 507 606 525 q 750 272 750 469 m 585 708 q 536 823 585 788 q 397 858 488 858 l 254 858 l 254 550 l 408 550 q 585 708 585 550 m 622 268 q 567 410 622 369 q 417 450 513 450 l 254 450 l 254 100 l 413 100 q 561 136 500 100 q 622 268 622 172 z "},"Г":{"ha":833,"x_min":189,"x_max":756,"o":"m 743 850 l 310 850 l 310 0 l 189 0 l 189 957 l 756 957 l 743 850 z "},"Ѓ":{"ha":833,"x_min":189,"x_max":756,"o":"m 743 850 l 310 850 l 310 0 l 189 0 l 189 957 l 756 957 l 743 850 m 651 1158 l 356 1049 l 325 1113 l 600 1258 l 651 1158 z "},"Ґ":{"ha":833,"x_min":189,"x_max":756,"o":"m 756 1160 l 756 957 l 743 850 l 310 850 l 310 0 l 189 0 l 189 957 l 639 957 l 639 1160 l 756 1160 z "},"Д":{"ha":833,"x_min":0,"x_max":785,"o":"m 785 101 l 785 -204 l 689 -204 l 668 0 l 639 0 l 146 0 l 115 0 l 96 -204 l 0 -204 l 0 101 l 60 101 q 115 187 96 136 q 149 321 135 238 q 189 608 163 404 q 193 642 190 624 q 199 682 196 660 l 233 957 l 714 957 l 714 101 l 785 101 m 592 854 l 340 854 l 319 674 q 278 353 293 450 q 240 197 263 256 q 176 101 218 139 l 592 101 l 592 854 z "},"Е":{"ha":833,"x_min":175,"x_max":731,"o":"m 294 535 l 650 535 l 650 436 l 294 436 l 294 97 l 731 97 l 731 0 l 175 0 l 175 957 l 718 957 l 704 857 l 294 857 l 294 535 z "},"Ѐ":{"ha":833,"x_min":175,"x_max":731,"o":"m 294 535 l 650 535 l 650 436 l 294 436 l 294 97 l 731 97 l 731 0 l 175 0 l 175 957 l 718 957 l 704 857 l 294 857 l 294 535 m 607 1113 l 571 1049 l 286 1163 l 350 1263 l 607 1113 z "},"Ё":{"ha":833,"x_min":175,"x_max":731,"o":"m 294 535 l 650 535 l 650 436 l 294 436 l 294 97 l 731 97 l 731 0 l 175 0 l 175 957 l 718 957 l 704 857 l 294 857 l 294 535 m 303 1067 q 248 1088 269 1067 q 226 1140 226 1108 q 248 1194 226 1172 q 303 1215 269 1215 q 356 1194 335 1215 q 378 1140 378 1172 q 356 1088 378 1108 q 303 1067 335 1067 m 589 1067 q 535 1088 557 1067 q 514 1140 514 1108 q 535 1194 514 1172 q 589 1215 557 1215 q 643 1194 621 1215 q 665 1140 665 1172 q 643 1088 665 1108 q 589 1067 621 1067 z "},"Ж":{"ha":833,"x_min":17,"x_max":817,"o":"m 278 454 l 133 0 l 17 0 l 188 506 l 38 957 l 153 957 l 279 553 l 363 553 l 363 957 l 471 957 l 471 553 l 554 553 l 682 957 l 796 957 l 646 506 l 817 0 l 697 0 l 554 454 l 471 454 l 471 0 l 363 0 l 363 454 l 278 454 z "},"З":{"ha":833,"x_min":49,"x_max":751,"o":"m 390 972 q 565 941 490 972 q 678 853 639 910 q 718 722 718 796 q 663 585 718 638 q 521 521 607 533 q 685 451 618 513 q 751 285 751 389 q 707 131 751 199 q 579 24 663 63 q 386 -15 496 -15 q 198 19 285 -15 q 49 119 111 54 l 124 188 q 386 86 238 86 q 559 138 497 86 q 621 281 621 189 q 560 417 621 372 q 397 463 499 463 l 229 463 l 243 564 l 389 564 q 535 603 476 564 q 594 721 594 643 q 537 834 594 794 q 388 874 479 874 q 253 851 313 874 q 135 782 193 828 l 68 853 q 219 942 140 913 q 390 972 297 972 z "},"И":{"ha":833,"x_min":115,"x_max":718,"o":"m 115 957 l 235 957 l 235 472 q 230 273 235 353 q 215 107 225 193 l 563 957 l 718 957 l 718 0 l 599 0 l 599 485 q 618 842 599 669 l 274 0 l 115 0 l 115 957 z "},"Й":{"ha":833,"x_min":115,"x_max":718,"o":"m 115 957 l 235 957 l 235 472 q 230 273 235 353 q 215 107 225 193 l 563 957 l 718 957 l 718 0 l 599 0 l 599 485 q 618 842 599 669 l 274 0 l 115 0 l 115 957 m 414 1074 q 274 1115 331 1074 q 208 1229 217 1156 l 289 1247 q 334 1183 304 1203 q 414 1164 364 1164 q 496 1183 464 1164 q 543 1247 528 1203 l 622 1229 q 556 1115 614 1156 q 414 1074 497 1074 z "},"Ѝ":{"ha":833,"x_min":115,"x_max":718,"o":"m 115 957 l 235 957 l 235 472 q 230 273 235 353 q 215 107 225 193 l 563 957 l 718 957 l 718 0 l 599 0 l 599 485 q 618 842 599 669 l 274 0 l 115 0 l 115 957 m 578 1113 l 542 1049 l 257 1163 l 321 1263 l 578 1113 z "},"Ҋ":{"ha":833,"x_min":115,"x_max":843,"o":"m 414 1074 q 274 1115 331 1074 q 208 1229 217 1156 l 289 1247 q 334 1183 304 1203 q 414 1164 364 1164 q 496 1183 464 1164 q 543 1247 528 1203 l 622 1229 q 556 1115 614 1156 q 414 1074 497 1074 m 843 96 l 735 -204 l 640 -204 l 689 0 l 599 0 l 599 485 q 618 842 599 669 l 274 0 l 115 0 l 115 957 l 235 957 l 235 472 q 230 273 235 353 q 215 107 225 193 l 563 957 l 718 957 l 718 96 l 843 96 z "},"К":{"ha":833,"x_min":132,"x_max":815,"o":"m 251 453 l 251 0 l 132 0 l 132 957 l 251 957 l 251 554 l 364 554 l 658 957 l 789 957 l 467 506 l 815 0 l 669 0 l 363 453 l 251 453 z "},"Ќ":{"ha":833,"x_min":132,"x_max":815,"o":"m 251 453 l 251 0 l 132 0 l 132 957 l 251 957 l 251 554 l 364 554 l 658 957 l 789 957 l 467 506 l 815 0 l 669 0 l 363 453 l 251 453 m 610 1158 l 314 1049 l 283 1113 l 558 1258 l 610 1158 z "},"Л":{"ha":833,"x_min":21,"x_max":718,"o":"m 718 0 l 597 0 l 597 853 l 340 853 l 306 569 q 250 243 279 353 q 183 83 221 133 q 74 -15 146 33 l 21 74 q 85 143 61 107 q 133 271 108 179 q 181 536 158 363 l 235 957 l 718 957 l 718 0 z "},"М":{"ha":833,"x_min":42,"x_max":792,"o":"m 792 0 l 675 0 l 646 500 q 638 846 638 632 l 476 172 l 356 172 l 183 846 q 186 713 186 796 q 181 500 186 585 l 156 0 l 42 0 l 96 957 l 264 957 l 419 301 l 568 957 l 738 957 l 792 0 z "},"Н":{"ha":833,"x_min":115,"x_max":718,"o":"m 597 454 l 236 454 l 236 0 l 115 0 l 115 957 l 236 957 l 236 553 l 597 553 l 597 957 l 718 957 l 718 0 l 597 0 l 597 454 z "},"О":{"ha":833,"x_min":65,"x_max":768,"o":"m 768 478 q 677 119 768 254 q 417 -15 586 -15 q 156 117 246 -15 q 65 476 65 249 q 106 735 65 622 q 225 910 146 847 q 417 972 304 972 q 677 838 586 972 q 768 478 768 704 m 643 478 q 589 772 643 674 q 417 871 535 871 q 244 772 299 871 q 190 476 190 672 q 245 184 190 282 q 417 86 300 86 q 589 184 535 86 q 643 478 643 282 z "},"П":{"ha":833,"x_min":115,"x_max":718,"o":"m 597 851 l 236 851 l 236 0 l 115 0 l 115 957 l 718 957 l 718 0 l 597 0 l 597 851 z "},"Р":{"ha":833,"x_min":161,"x_max":774,"o":"m 774 663 q 675 429 774 503 q 404 356 576 356 l 281 356 l 281 0 l 161 0 l 161 957 l 404 957 q 677 883 581 957 q 774 663 774 810 m 644 661 q 584 813 644 765 q 419 861 524 861 l 281 861 l 281 451 l 415 451 q 584 499 524 451 q 644 661 644 546 z "},"С":{"ha":833,"x_min":88,"x_max":789,"o":"m 497 972 q 650 949 586 972 q 775 879 714 926 l 707 800 q 506 871 622 871 q 295 777 376 871 q 214 479 214 683 q 293 182 214 276 q 504 88 372 88 q 628 108 576 88 q 726 167 679 129 l 789 89 q 503 -15 682 -15 q 290 42 385 -15 q 142 211 196 100 q 88 479 88 322 q 142 747 88 635 q 291 915 197 858 q 497 972 385 972 z "},"Т":{"ha":833,"x_min":56,"x_max":776,"o":"m 475 0 l 354 0 l 354 853 l 56 853 l 56 957 l 776 957 l 764 853 l 475 853 l 475 0 z "},"У":{"ha":833,"x_min":36,"x_max":806,"o":"m 513 250 q 437 113 478 165 q 332 29 396 61 q 169 -15 268 -3 l 151 81 q 283 115 235 93 q 357 172 331 138 q 404 264 383 206 l 353 264 l 36 957 l 163 957 l 435 342 l 685 957 l 806 957 l 513 250 z "},"Ў":{"ha":833,"x_min":36,"x_max":806,"o":"m 513 250 q 437 113 478 165 q 332 29 396 61 q 169 -15 268 -3 l 151 81 q 283 115 235 93 q 357 172 331 138 q 404 264 383 206 l 353 264 l 36 957 l 163 957 l 435 342 l 685 957 l 806 957 l 513 250 m 428 1054 q 289 1099 347 1054 q 224 1219 231 1144 l 303 1238 q 428 1144 338 1144 q 508 1169 475 1144 q 557 1238 542 1194 l 638 1219 q 569 1099 629 1144 q 428 1054 510 1054 z "},"Ф":{"ha":833,"x_min":18,"x_max":815,"o":"m 475 915 q 732 795 649 903 q 815 482 815 688 q 728 161 815 271 q 475 43 640 51 l 475 -40 l 358 -40 l 358 43 q 105 160 192 50 q 18 482 18 269 q 101 795 18 688 q 358 915 185 903 l 358 997 l 475 997 l 475 915 m 360 826 q 193 743 246 822 q 140 482 140 664 q 192 224 140 306 q 360 132 243 143 l 360 826 m 474 132 q 642 224 590 143 q 693 482 693 306 q 640 743 693 664 q 474 826 588 822 l 474 132 z "},"Х":{"ha":833,"x_min":43,"x_max":790,"o":"m 207 957 l 417 589 l 628 957 l 757 957 l 486 517 l 790 0 l 651 0 l 414 432 l 172 0 l 43 0 l 343 510 l 68 957 l 207 957 z "},"Ч":{"ha":833,"x_min":71,"x_max":718,"o":"m 718 957 l 718 0 l 597 0 l 597 392 q 478 324 533 344 q 349 304 422 304 q 147 381 224 304 q 71 588 71 458 l 71 957 l 190 957 l 190 597 q 239 456 190 503 q 379 410 288 410 q 597 494 513 410 l 597 957 l 718 957 z "},"Ц":{"ha":833,"x_min":115,"x_max":803,"o":"m 803 101 l 803 -204 l 707 -204 l 688 0 l 115 0 l 115 957 l 236 957 l 236 100 l 597 100 l 597 957 l 718 957 l 718 101 l 803 101 z "},"Ш":{"ha":833,"x_min":64,"x_max":769,"o":"m 769 0 l 64 0 l 64 957 l 178 957 l 178 101 l 363 101 l 363 957 l 471 957 l 471 101 l 656 101 l 656 957 l 769 957 l 769 0 z "},"Щ":{"ha":833,"x_min":64,"x_max":854,"o":"m 854 101 l 854 -204 l 758 -204 l 739 0 l 64 0 l 64 957 l 178 957 l 178 101 l 363 101 l 363 957 l 471 957 l 471 101 l 656 101 l 656 957 l 769 957 l 769 101 l 854 101 z "},"Џ":{"ha":833,"x_min":115,"x_max":718,"o":"m 718 0 l 475 0 l 475 -204 l 379 -204 l 360 0 l 115 0 l 115 957 l 236 957 l 236 100 l 338 100 l 338 101 l 475 101 l 475 100 l 597 100 l 597 957 l 718 957 l 718 0 z "},"Ь":{"ha":833,"x_min":131,"x_max":765,"o":"m 251 601 l 396 601 q 669 530 574 601 q 765 307 765 458 q 667 74 765 149 q 397 0 568 0 l 131 0 l 131 957 l 251 957 l 251 601 m 251 506 l 251 99 l 411 99 q 578 144 519 99 q 638 306 638 189 q 577 458 638 411 q 413 506 517 506 l 251 506 z "},"Ъ":{"ha":833,"x_min":0,"x_max":807,"o":"m 290 601 l 438 601 q 711 530 615 601 q 807 307 807 458 q 708 74 807 147 q 439 0 610 0 l 168 0 l 168 850 l 0 850 l 0 957 l 290 957 l 290 601 m 290 506 l 290 99 l 460 99 q 624 144 565 99 q 682 306 682 189 q 622 458 682 411 q 457 506 561 506 l 290 506 z "},"Ы":{"ha":833,"x_min":43,"x_max":790,"o":"m 165 601 l 253 601 q 512 526 426 601 q 597 307 597 451 q 509 77 597 154 q 256 0 421 0 l 43 0 l 43 957 l 165 957 l 165 601 m 790 0 l 668 0 l 668 957 l 790 957 l 790 0 m 165 510 l 165 96 l 268 96 q 419 145 368 96 q 469 306 469 194 q 265 510 469 510 l 165 510 z "},"Љ":{"ha":833,"x_min":3,"x_max":833,"o":"m 493 601 q 749 530 665 601 q 833 307 833 458 q 504 0 833 0 l 374 0 l 374 857 l 243 857 l 211 432 q 181 182 199 267 q 137 59 163 97 q 64 -15 111 21 l 3 64 q 43 126 28 92 q 72 232 58 160 q 96 435 85 304 l 138 957 l 493 957 l 493 601 m 493 508 l 493 97 l 514 97 q 661 142 614 97 q 708 306 708 186 q 660 462 708 415 q 515 508 613 508 l 493 508 z "},"Њ":{"ha":833,"x_min":57,"x_max":833,"o":"m 492 575 q 749 507 665 575 q 833 294 833 439 q 749 69 833 139 q 504 0 664 0 l 374 0 l 374 485 l 176 485 l 176 0 l 57 0 l 57 957 l 176 957 l 176 575 l 374 575 l 374 957 l 492 957 l 492 575 m 492 485 l 492 94 l 515 94 q 623 110 582 94 q 685 169 664 126 q 707 293 707 213 q 660 441 707 397 q 515 485 613 485 l 492 485 z "},"Ѕ":{"ha":833,"x_min":60,"x_max":746,"o":"m 746 265 q 704 119 746 182 q 583 20 663 56 q 396 -15 504 -15 q 206 16 292 -15 q 60 106 121 47 l 132 188 q 249 111 185 138 q 397 85 314 85 q 556 131 492 85 q 619 263 619 176 q 601 343 619 311 q 538 400 583 375 q 411 449 493 425 q 179 556 256 494 q 103 725 103 618 q 142 853 103 796 q 251 941 181 910 q 413 972 322 972 q 581 944 507 972 q 718 863 656 917 l 646 785 q 417 871 547 871 q 279 835 333 871 q 225 729 225 799 q 247 658 225 688 q 321 604 269 629 q 465 553 372 579 q 673 451 600 514 q 746 265 746 389 z "},"Є":{"ha":833,"x_min":81,"x_max":781,"o":"m 489 972 q 643 949 578 972 q 767 879 708 925 l 704 806 q 497 874 610 874 q 299 794 378 874 q 207 542 221 714 l 631 542 l 631 442 l 204 442 q 292 173 213 261 q 496 85 371 85 q 717 168 625 85 l 781 89 q 659 14 731 43 q 492 -15 588 -15 q 278 42 371 -15 q 133 210 185 99 q 81 479 81 322 q 135 747 81 635 q 283 915 190 858 q 489 972 376 972 z "},"Э":{"ha":833,"x_min":58,"x_max":749,"o":"m 374 972 q 649 850 550 972 q 749 490 749 728 q 646 115 749 244 q 363 -15 543 -15 q 192 17 271 -15 q 58 107 113 50 l 131 175 q 235 107 182 129 q 356 85 289 85 q 549 172 482 85 q 624 440 615 258 l 203 440 l 203 543 l 624 543 q 550 796 614 718 q 368 874 486 874 q 241 849 294 874 q 136 783 188 825 l 69 854 q 374 972 206 972 z "},"І":{"ha":833,"x_min":143,"x_max":690,"o":"m 690 860 l 478 860 l 478 96 l 690 96 l 690 0 l 143 0 l 143 96 l 356 96 l 356 860 l 143 860 l 143 957 l 690 957 l 690 860 z "},"Ї":{"ha":833,"x_min":143,"x_max":690,"o":"m 690 860 l 478 860 l 478 96 l 690 96 l 690 0 l 143 0 l 143 96 l 356 96 l 356 860 l 143 860 l 143 957 l 690 957 l 690 860 m 274 1067 q 219 1088 240 1067 q 197 1140 197 1108 q 219 1194 197 1172 q 274 1215 240 1215 q 327 1194 306 1215 q 349 1140 349 1172 q 327 1088 349 1108 q 274 1067 306 1067 m 560 1067 q 506 1088 528 1067 q 485 1140 485 1108 q 506 1194 485 1172 q 560 1215 528 1215 q 614 1194 592 1215 q 636 1140 636 1172 q 614 1088 636 1108 q 560 1067 592 1067 z "},"Ј":{"ha":833,"x_min":101,"x_max":690,"o":"m 690 318 q 613 81 690 178 q 363 -17 536 -17 q 224 6 292 -17 q 101 71 157 28 l 154 150 q 361 85 258 85 q 515 148 461 85 q 569 324 569 211 l 569 858 l 286 858 l 286 957 l 690 957 l 690 318 z "},"Ћ":{"ha":833,"x_min":-7,"x_max":786,"o":"m 561 856 l 339 856 l 339 542 q 539 625 425 625 q 786 342 786 625 l 786 0 l 667 0 l 667 333 q 631 476 667 433 q 513 519 596 519 q 413 499 454 519 q 339 446 372 478 l 339 0 l 218 0 l 218 856 l -7 856 l -7 957 l 574 957 l 561 856 z "},"Ю":{"ha":833,"x_min":65,"x_max":804,"o":"m 539 972 q 744 851 685 972 q 804 478 804 731 q 741 109 804 233 q 539 -15 678 -15 q 338 104 397 -15 q 275 446 278 224 l 181 446 l 181 0 l 65 0 l 65 957 l 181 957 l 181 546 l 276 546 q 346 866 285 760 q 539 972 407 972 m 539 874 q 456 836 486 874 q 413 713 426 799 q 399 479 399 628 q 413 244 399 329 q 456 121 426 158 q 539 83 486 83 q 619 121 589 83 q 665 244 650 158 q 681 478 681 331 q 665 710 681 624 q 619 835 650 797 q 539 874 589 874 z "},"Я":{"ha":833,"x_min":46,"x_max":718,"o":"m 718 0 l 597 0 l 597 385 l 385 385 l 182 0 l 46 0 l 271 413 q 147 517 189 450 q 104 672 104 585 q 197 883 104 808 q 467 957 290 957 l 718 957 l 718 0 m 451 860 q 287 815 340 860 q 233 674 233 769 q 426 482 233 482 l 597 482 l 597 860 l 451 860 z "},"Ђ":{"ha":833,"x_min":-7,"x_max":786,"o":"m 339 542 q 539 625 429 625 q 786 342 786 625 l 786 133 q 727 -75 786 -4 q 546 -187 668 -146 l 515 -92 q 609 -39 576 -67 q 654 28 642 -11 q 667 132 667 68 l 667 333 q 631 476 667 433 q 513 519 596 519 q 413 499 454 519 q 339 446 372 478 l 339 0 l 218 0 l 218 856 l -7 856 l -7 957 l 574 957 l 561 856 l 339 856 l 339 542 z "},"Ѡ":{"ha":833,"x_min":24,"x_max":813,"o":"m 713 957 q 784 716 756 842 q 813 414 813 590 q 588 -15 813 -15 q 481 21 522 -15 q 418 129 440 57 q 356 21 396 57 q 250 -15 317 -15 q 139 27 190 -15 q 56 165 88 69 q 24 414 24 261 q 40 640 24 538 q 74 808 56 743 q 122 957 93 872 l 239 957 q 166 704 190 829 q 142 419 142 579 q 269 83 142 83 q 333 119 308 83 q 358 235 358 156 l 358 553 l 476 553 l 476 236 q 504 121 476 158 q 574 83 532 83 q 662 153 631 83 q 693 415 693 222 q 668 697 693 574 q 596 957 643 821 l 713 957 z "},"Ѣ":{"ha":833,"x_min":14,"x_max":789,"o":"m 433 594 q 694 522 600 594 q 789 307 789 449 q 689 76 789 151 q 417 0 589 0 l 214 0 l 214 736 l 14 736 l 14 826 l 214 826 l 214 957 l 335 957 l 335 826 l 547 826 l 547 736 l 335 736 l 335 594 l 433 594 m 431 99 q 600 144 540 99 q 660 304 660 190 q 602 454 660 408 q 436 500 544 500 l 335 500 l 335 99 l 431 99 z "},"Ѥ":{"ha":833,"x_min":56,"x_max":826,"o":"m 826 51 q 737 2 785 19 q 619 -15 689 -15 q 374 103 465 -15 q 275 442 282 222 l 178 442 l 178 0 l 56 0 l 56 956 l 178 956 l 178 546 l 276 546 q 384 862 290 751 q 626 972 478 972 q 731 958 689 972 q 817 915 774 944 l 758 836 q 697 864 725 856 q 629 872 669 872 q 400 543 426 872 l 718 543 l 718 440 l 397 440 q 465 172 407 258 q 624 86 524 86 q 700 97 671 86 q 769 132 729 108 l 826 51 z "},"Ѧ":{"ha":833,"x_min":28,"x_max":804,"o":"m 551 403 l 471 403 l 471 0 l 357 0 l 357 403 l 276 403 l 153 0 l 28 0 l 340 957 l 493 957 l 804 0 l 675 0 l 551 403 m 519 506 l 414 850 l 308 506 l 519 506 z "},"Ѩ":{"ha":833,"x_min":51,"x_max":832,"o":"m 624 404 l 574 404 l 574 0 l 472 0 l 472 404 l 422 404 l 332 0 l 219 0 l 317 404 l 171 404 l 171 0 l 51 0 l 51 957 l 171 957 l 171 500 l 319 500 l 322 432 l 324 435 l 449 957 l 603 957 l 832 0 l 714 0 l 624 404 m 603 500 l 524 863 l 443 500 l 603 500 z "},"Ѫ":{"ha":833,"x_min":53,"x_max":781,"o":"m 781 0 l 669 0 l 556 432 l 476 432 l 476 0 l 358 0 l 358 432 l 279 432 l 164 0 l 53 0 l 208 526 l 308 526 l 129 876 l 129 957 l 713 957 l 713 876 l 525 526 l 638 526 l 781 0 m 421 526 l 592 869 l 254 869 l 421 526 z "},"Ѭ":{"ha":833,"x_min":25,"x_max":872,"o":"m 872 0 l 758 0 l 651 432 l 588 432 l 588 0 l 468 0 l 468 432 l 404 432 l 296 0 l 182 0 l 306 432 l 144 432 l 144 0 l 25 0 l 25 957 l 144 957 l 144 526 l 424 526 l 264 876 l 264 957 l 797 957 l 797 876 l 632 526 l 733 526 l 872 0 m 385 868 l 532 526 l 681 868 l 385 868 z "},"Ѯ":{"ha":833,"x_min":114,"x_max":719,"o":"m 354 1047 l 167 1197 l 219 1257 l 393 1144 l 568 1257 l 619 1197 l 433 1047 l 354 1047 m 404 522 q 638 449 557 522 q 719 246 719 376 q 637 44 719 119 q 426 -44 554 -32 q 319 -62 356 -53 q 267 -83 282 -71 q 253 -118 253 -96 q 278 -169 253 -144 q 354 -219 304 -193 l 310 -297 q 178 -212 222 -258 q 133 -108 133 -167 q 190 -2 133 -40 q 365 47 247 36 q 593 246 593 69 q 541 388 593 344 q 382 432 489 432 l 235 432 l 235 521 l 528 856 l 114 856 l 114 957 l 672 957 l 672 856 l 367 522 l 404 522 z "},"Ѱ":{"ha":833,"x_min":18,"x_max":815,"o":"m 356 267 q 102 368 186 279 q 18 597 18 457 l 18 957 l 142 957 l 142 604 q 190 437 142 494 q 357 369 239 379 l 357 957 l 478 957 l 478 371 q 642 438 593 381 q 692 604 692 496 l 692 957 l 815 957 l 815 597 q 731 370 815 458 q 479 268 646 282 l 479 0 l 356 0 l 356 267 z "},"Ѳ":{"ha":833,"x_min":65,"x_max":768,"o":"m 768 478 q 677 119 768 254 q 417 -15 586 -15 q 156 117 246 -15 q 65 476 65 249 q 106 735 65 622 q 225 910 146 847 q 417 972 304 972 q 677 838 586 972 q 768 478 768 704 m 417 871 q 255 787 308 871 q 193 533 201 703 l 639 533 q 578 787 632 703 q 417 871 525 871 m 417 86 q 583 175 529 86 q 640 442 636 264 l 192 442 q 251 175 196 264 q 417 86 306 86 z "},"Ѵ":{"ha":833,"x_min":39,"x_max":825,"o":"m 786 869 q 739 879 757 879 q 697 861 713 879 q 669 804 681 843 l 456 0 l 322 0 l 39 957 l 168 957 l 388 139 l 561 821 q 621 936 582 900 q 725 972 660 972 q 825 947 772 972 l 786 869 z "},"Ѷ":{"ha":833,"x_min":39,"x_max":825,"o":"m 786 869 q 739 879 757 879 q 697 861 713 879 q 669 804 681 843 l 456 0 l 322 0 l 39 957 l 168 957 l 388 139 l 561 821 q 621 936 582 900 q 725 972 660 972 q 825 947 772 972 l 786 869 m 257 1106 l 107 1332 l 210 1386 l 331 1144 l 257 1106 m 482 1108 l 347 1336 l 451 1386 l 560 1144 l 482 1108 z "},"Ѹ":{"ha":833,"x_min":13,"x_max":825,"o":"m 228 -15 q 63 108 113 -15 q 13 476 13 232 q 63 845 13 718 q 228 972 113 972 q 394 847 343 972 q 444 478 444 721 q 394 109 444 233 q 228 -15 343 -15 m 228 76 q 292 117 269 76 q 323 244 314 158 q 332 478 332 331 q 323 710 332 624 q 292 838 314 796 q 228 879 269 879 q 165 838 188 879 q 134 709 143 796 q 125 476 125 622 q 148 169 125 261 q 228 76 171 76 m 469 -206 q 566 -140 531 -187 q 615 0 601 -92 l 567 0 l 450 732 l 556 732 l 640 89 l 718 732 l 825 732 l 710 -4 q 634 -197 690 -126 q 485 -294 578 -267 l 469 -206 z "},"Ғ":{"ha":833,"x_min":92,"x_max":799,"o":"m 351 850 l 351 601 l 571 601 l 571 508 l 351 508 l 351 0 l 232 0 l 232 508 l 92 508 l 92 601 l 232 601 l 232 957 l 799 957 l 786 850 l 351 850 z "},"Ҕ":{"ha":833,"x_min":118,"x_max":763,"o":"m 490 625 q 689 545 615 625 q 763 326 763 465 l 763 -85 q 709 -240 763 -186 q 561 -293 656 -293 q 406 -242 474 -293 l 451 -162 q 501 -188 478 -181 q 557 -196 524 -196 q 621 -170 599 -196 q 643 -92 643 -144 l 643 325 q 599 469 643 419 q 469 519 556 519 q 342 492 396 519 q 238 408 288 464 l 238 0 l 118 0 l 118 957 l 238 957 l 651 957 l 636 856 l 238 856 l 238 519 q 349 598 288 571 q 490 625 411 625 z "},"Җ":{"ha":833,"x_min":17,"x_max":847,"o":"m 847 101 l 847 -204 l 749 -204 l 728 0 l 694 0 l 696 6 l 554 454 l 471 454 l 471 0 l 363 0 l 363 454 l 278 454 l 133 0 l 17 0 l 188 506 l 38 957 l 153 957 l 279 553 l 363 553 l 363 957 l 471 957 l 471 553 l 554 553 l 682 957 l 796 957 l 646 506 l 782 101 l 847 101 z "},"Ҙ":{"ha":833,"x_min":49,"x_max":751,"o":"m 751 285 q 713 141 751 206 q 603 35 675 76 q 436 -14 532 -6 l 436 -79 q 533 -117 500 -85 q 565 -194 565 -150 q 516 -295 565 -260 q 396 -331 467 -331 q 316 -322 354 -331 q 250 -297 278 -312 l 288 -231 q 381 -253 329 -253 q 464 -196 464 -253 q 435 -147 464 -160 q 344 -135 406 -135 l 353 -15 q 184 26 263 -8 q 49 119 106 60 l 124 188 q 386 86 238 86 q 559 138 497 86 q 621 281 621 189 q 560 417 621 372 q 397 463 499 463 l 229 463 l 243 564 l 389 564 q 535 603 476 564 q 594 721 594 643 q 537 834 594 794 q 388 874 479 874 q 253 851 313 874 q 135 782 193 828 l 68 853 q 219 942 140 913 q 390 972 297 972 q 565 941 490 972 q 678 853 639 910 q 718 722 718 796 q 663 585 718 638 q 521 521 607 533 q 685 451 618 513 q 751 285 751 389 z "},"Қ":{"ha":833,"x_min":132,"x_max":815,"o":"m 815 101 l 815 -204 l 719 -204 l 700 0 l 669 0 l 363 453 l 251 453 l 251 0 l 132 0 l 132 957 l 251 957 l 251 554 l 364 554 l 658 957 l 789 957 l 467 506 l 744 101 l 815 101 z "},"Ҝ":{"ha":833,"x_min":132,"x_max":815,"o":"m 317 453 l 250 453 l 250 0 l 132 0 l 132 957 l 250 957 l 250 553 l 317 553 l 317 792 l 392 792 l 392 553 l 428 553 l 663 957 l 789 957 l 522 506 l 815 0 l 681 0 l 428 453 l 392 453 l 392 208 l 317 208 l 317 453 z "},"Ҟ":{"ha":833,"x_min":51,"x_max":811,"o":"m 811 0 l 665 0 l 386 453 l 275 453 l 275 0 l 156 0 l 156 726 l 51 726 l 51 824 l 156 824 l 156 957 l 275 957 l 275 824 l 435 824 l 435 726 l 275 726 l 275 554 l 389 554 l 654 957 l 785 957 l 490 506 l 811 0 z "},"Ҡ":{"ha":833,"x_min":15,"x_max":832,"o":"m 306 451 l 306 0 l 183 0 l 183 850 l 15 850 l 15 957 l 306 957 l 306 554 l 404 554 l 675 957 l 806 957 l 507 506 l 832 0 l 686 0 l 401 451 l 306 451 z "},"Ң":{"ha":833,"x_min":115,"x_max":803,"o":"m 803 101 l 803 -204 l 707 -204 l 688 0 l 597 0 l 597 454 l 236 454 l 236 0 l 115 0 l 115 957 l 236 957 l 236 553 l 597 553 l 597 957 l 718 957 l 718 101 l 803 101 z "},"Ҧ":{"ha":833,"x_min":38,"x_max":824,"o":"m 624 626 q 769 567 715 626 q 824 408 824 508 l 824 -81 q 768 -238 824 -183 q 622 -293 713 -293 q 465 -242 533 -293 l 513 -162 q 563 -187 542 -179 q 617 -194 585 -194 q 703 -90 703 -194 l 703 410 q 606 519 703 519 q 483 469 542 519 l 483 0 l 363 0 l 363 849 l 158 849 l 158 0 l 38 0 l 38 957 l 483 957 l 483 571 q 624 626 543 626 z "},"Ԥ":{"ha":833,"x_min":115,"x_max":803,"o":"m 803 101 l 803 -204 l 707 -204 l 688 0 l 597 0 l 597 851 l 236 851 l 236 0 l 115 0 l 115 957 l 718 957 l 718 101 l 803 101 z "},"Ҩ":{"ha":833,"x_min":49,"x_max":808,"o":"m 808 360 q 760 173 808 263 q 626 33 713 83 l 664 -14 q 735 -106 715 -78 l 656 -165 q 579 -69 633 -136 l 529 -6 q 436 -15 478 -15 q 232 42 319 -15 q 97 210 144 99 q 49 479 49 321 q 100 747 49 635 q 238 915 151 858 q 424 972 324 972 q 563 950 506 972 q 679 879 621 928 l 617 800 q 524 853 569 836 q 428 871 479 871 q 250 777 321 871 q 179 479 179 683 q 249 184 179 278 q 440 90 318 90 l 458 90 q 385 224 411 161 q 360 353 360 288 q 388 478 360 422 q 468 566 417 533 q 585 599 519 599 q 749 533 690 599 q 808 360 808 467 m 479 354 q 501 232 479 289 q 563 117 522 175 q 653 209 622 147 q 685 361 683 271 q 585 501 685 501 q 506 463 533 501 q 479 354 479 424 z "},"Ҫ":{"ha":833,"x_min":88,"x_max":789,"o":"m 547 -14 q 650 -178 650 -81 q 603 -290 650 -247 q 476 -332 557 -332 q 342 -297 397 -332 l 372 -226 q 419 -245 399 -239 q 469 -251 439 -251 q 528 -231 508 -251 q 549 -174 549 -210 q 522 -86 549 -128 q 443 -12 496 -44 q 259 63 339 1 q 133 231 179 125 q 88 479 88 336 q 142 747 88 635 q 291 915 197 858 q 497 972 385 972 q 650 949 586 972 q 775 879 714 926 l 707 800 q 506 871 622 871 q 295 777 376 871 q 214 479 214 683 q 293 182 214 276 q 504 88 372 88 q 628 108 576 88 q 726 167 679 129 l 789 89 q 547 -14 699 -1 z "},"Ҭ":{"ha":833,"x_min":56,"x_max":776,"o":"m 475 853 l 475 101 l 560 101 l 560 -204 l 464 -204 l 444 0 l 354 0 l 354 853 l 56 853 l 56 957 l 776 957 l 764 853 l 475 853 z "},"Ү":{"ha":833,"x_min":32,"x_max":801,"o":"m 478 0 l 356 0 l 356 368 l 32 957 l 165 957 l 419 476 l 676 957 l 801 957 l 478 369 l 478 0 z "},"Ұ":{"ha":833,"x_min":32,"x_max":801,"o":"m 518 443 l 656 443 l 656 349 l 478 349 l 478 0 l 356 0 l 356 349 l 178 349 l 178 443 l 314 443 l 32 957 l 165 957 l 419 476 l 676 957 l 801 957 l 518 443 z "},"Ҳ":{"ha":833,"x_min":43,"x_max":797,"o":"m 797 101 l 797 -204 l 701 -204 l 682 0 l 651 0 l 414 432 l 172 0 l 43 0 l 343 510 l 68 957 l 207 957 l 417 589 l 628 957 l 757 957 l 486 517 l 731 101 l 797 101 z "},"Ҷ":{"ha":833,"x_min":71,"x_max":803,"o":"m 803 101 l 803 -204 l 707 -204 l 688 0 l 597 0 l 597 392 q 478 324 533 344 q 349 304 422 304 q 147 381 224 304 q 71 588 71 458 l 71 957 l 190 957 l 190 597 q 239 456 190 503 q 379 410 288 410 q 597 494 513 410 l 597 957 l 718 957 l 718 101 l 803 101 z "},"Ҹ":{"ha":833,"x_min":71,"x_max":718,"o":"m 718 957 l 718 0 l 597 0 l 597 392 q 442 314 515 331 l 442 165 l 361 165 l 361 304 l 349 304 q 147 381 224 304 q 71 588 71 458 l 71 957 l 190 957 l 190 597 q 361 411 190 419 l 361 747 l 442 747 l 442 415 q 597 494 532 432 l 597 957 l 718 957 z "},"Һ":{"ha":833,"x_min":115,"x_max":761,"o":"m 489 625 q 688 545 614 625 q 761 326 761 465 l 761 0 l 640 0 l 640 325 q 597 469 640 419 q 468 519 554 519 q 340 492 394 519 q 236 408 286 464 l 236 0 l 115 0 l 115 957 l 236 957 l 236 519 q 347 599 286 572 q 489 625 408 625 z "},"Ԧ":{"ha":833,"x_min":115,"x_max":835,"o":"m 835 101 l 835 -204 l 739 -204 l 718 0 l 632 0 l 632 325 q 447 519 632 519 q 330 492 381 519 q 236 410 279 464 l 236 0 l 115 0 l 115 957 l 236 957 l 236 526 q 474 625 326 625 q 678 546 604 625 q 751 326 751 467 l 751 101 l 835 101 z "},"Ҽ":{"ha":833,"x_min":1,"x_max":788,"o":"m 788 496 q 783 428 788 465 l 306 428 q 367 166 310 250 q 514 82 424 82 q 607 98 571 82 q 690 146 643 114 l 747 74 q 515 -15 644 -15 q 280 98 368 -15 q 185 428 192 211 q 49 474 97 429 q 1 586 1 519 q 56 732 1 658 l 135 696 q 113 642 121 665 q 106 596 106 619 q 176 526 106 526 l 185 526 q 235 765 193 664 q 345 919 276 865 q 501 972 414 972 q 710 850 633 972 q 788 496 788 728 m 674 526 q 622 792 667 708 q 499 875 578 875 q 365 789 415 875 q 306 526 315 703 l 674 526 z "},"Ҿ":{"ha":833,"x_min":1,"x_max":788,"o":"m 788 496 q 783 428 788 465 l 306 428 q 367 166 310 250 q 514 82 424 82 q 607 98 571 82 q 690 146 643 114 l 747 74 q 621 0 686 21 q 485 -81 521 -43 q 449 -158 449 -118 q 467 -208 449 -192 q 526 -225 485 -225 q 611 -215 564 -225 l 600 -310 q 511 -318 542 -318 q 388 -280 433 -318 q 342 -182 342 -242 q 464 -12 342 -79 q 265 119 339 7 q 185 428 190 231 q 49 474 97 429 q 1 586 1 519 q 56 732 1 658 l 135 696 q 113 642 121 665 q 106 596 106 619 q 176 526 106 526 l 185 526 q 235 765 193 664 q 345 919 276 865 q 501 972 414 972 q 710 850 633 972 q 788 496 788 728 m 674 526 q 622 792 667 708 q 499 875 578 875 q 365 789 415 875 q 306 526 315 703 l 674 526 z "},"Ӏ":{"ha":833,"x_min":143,"x_max":690,"o":"m 690 860 l 478 860 l 478 96 l 690 96 l 690 0 l 143 0 l 143 96 l 356 96 l 356 860 l 143 860 l 143 957 l 690 957 l 690 860 z "},"Ӂ":{"ha":833,"x_min":17,"x_max":817,"o":"m 278 454 l 133 0 l 17 0 l 188 506 l 38 957 l 153 957 l 279 553 l 363 553 l 363 957 l 471 957 l 471 553 l 554 553 l 682 957 l 796 957 l 646 506 l 817 0 l 697 0 l 554 454 l 471 454 l 471 0 l 363 0 l 363 454 l 278 454 m 414 1074 q 274 1115 331 1074 q 208 1229 217 1156 l 289 1247 q 334 1183 304 1203 q 414 1164 364 1164 q 496 1183 464 1164 q 543 1247 528 1203 l 622 1229 q 556 1115 614 1156 q 414 1074 497 1074 z "},"Ӄ":{"ha":833,"x_min":115,"x_max":742,"o":"m 488 533 q 676 444 614 519 q 739 238 739 368 l 739 -85 q 685 -240 739 -186 q 538 -293 632 -293 q 382 -242 447 -293 l 428 -162 q 477 -188 454 -181 q 532 -196 500 -196 q 618 -92 618 -196 l 618 236 q 574 385 618 336 q 436 433 529 433 l 436 446 l 429 433 l 236 433 l 236 0 l 115 0 l 115 957 l 236 957 l 236 535 l 374 535 l 613 957 l 742 957 l 488 533 z "},"Ӆ":{"ha":833,"x_min":26,"x_max":807,"o":"m 807 96 l 699 -204 l 604 -204 l 653 0 l 561 0 l 561 853 l 346 853 l 311 569 q 256 243 285 353 q 189 83 226 133 q 79 -15 151 33 l 26 74 q 90 143 67 107 q 139 271 114 179 q 186 536 164 363 l 240 957 l 682 957 l 682 96 l 807 96 z "},"Ӈ":{"ha":833,"x_min":115,"x_max":718,"o":"m 718 -85 q 665 -240 718 -186 q 517 -293 611 -293 q 360 -242 428 -293 l 407 -162 q 456 -188 433 -181 q 511 -196 478 -196 q 597 -92 597 -196 l 597 454 l 236 454 l 236 0 l 115 0 l 115 957 l 236 957 l 236 553 l 597 553 l 597 957 l 718 957 l 718 -85 z "},"Ӊ":{"ha":833,"x_min":100,"x_max":801,"o":"m 801 96 l 693 -204 l 599 -204 l 647 0 l 556 0 l 556 454 l 221 454 l 221 0 l 100 0 l 100 957 l 221 957 l 221 553 l 556 553 l 556 957 l 676 957 l 676 96 l 801 96 z "},"Ӌ":{"ha":833,"x_min":71,"x_max":718,"o":"m 718 957 l 718 0 l 631 0 l 611 -204 l 515 -204 l 515 101 l 597 101 l 597 392 q 478 324 533 344 q 349 304 422 304 q 147 381 224 304 q 71 588 71 458 l 71 957 l 190 957 l 190 597 q 239 456 190 503 q 379 410 288 410 q 597 494 513 410 l 597 957 l 718 957 z "},"Ӎ":{"ha":833,"x_min":26,"x_max":839,"o":"m 839 96 l 732 -204 l 633 -204 l 682 0 l 619 0 l 589 500 q 582 793 582 629 l 582 838 l 440 172 l 319 172 l 169 838 l 169 757 q 165 500 169 579 l 139 0 l 26 0 l 81 957 l 249 957 l 383 301 l 511 957 l 681 957 l 729 96 l 839 96 z "},"Ӑ":{"ha":833,"x_min":28,"x_max":804,"o":"m 224 244 l 147 0 l 28 0 l 340 957 l 493 957 l 804 0 l 679 0 l 603 244 l 224 244 m 571 344 l 414 854 l 256 344 l 571 344 m 414 1074 q 274 1115 331 1074 q 208 1229 217 1156 l 289 1247 q 334 1183 304 1203 q 414 1164 364 1164 q 496 1183 464 1164 q 543 1247 528 1203 l 622 1229 q 556 1115 614 1156 q 414 1074 497 1074 z "},"Ӓ":{"ha":833,"x_min":28,"x_max":804,"o":"m 224 244 l 147 0 l 28 0 l 340 957 l 493 957 l 804 0 l 679 0 l 603 244 l 224 244 m 571 344 l 414 854 l 256 344 l 571 344 m 274 1067 q 219 1088 240 1067 q 197 1140 197 1108 q 219 1194 197 1172 q 274 1215 240 1215 q 327 1194 306 1215 q 349 1140 349 1172 q 327 1088 349 1108 q 274 1067 306 1067 m 560 1067 q 506 1088 528 1067 q 485 1140 485 1108 q 506 1194 485 1172 q 560 1215 528 1215 q 614 1194 592 1215 q 636 1140 636 1172 q 614 1088 636 1108 q 560 1067 592 1067 z "},"Ӗ":{"ha":833,"x_min":175,"x_max":731,"o":"m 294 535 l 650 535 l 650 436 l 294 436 l 294 97 l 731 97 l 731 0 l 175 0 l 175 957 l 718 957 l 704 857 l 294 857 l 294 535 m 443 1074 q 303 1115 360 1074 q 238 1229 246 1156 l 318 1247 q 363 1183 333 1203 q 443 1164 393 1164 q 525 1183 493 1164 q 572 1247 557 1203 l 651 1229 q 585 1115 643 1156 q 443 1074 526 1074 z "},"Ә":{"ha":833,"x_min":63,"x_max":765,"o":"m 65 529 l 642 529 q 575 793 636 711 q 403 875 514 875 q 289 854 339 875 q 185 794 239 833 l 122 865 q 251 944 182 917 q 407 972 321 972 q 674 851 582 972 q 765 490 765 729 q 723 219 765 333 q 601 45 681 106 q 413 -15 521 -15 q 155 106 247 -15 q 63 460 63 226 l 65 529 m 414 83 q 642 429 624 83 l 179 429 q 244 164 188 244 q 414 83 301 83 z "},"Ӛ":{"ha":833,"x_min":63,"x_max":765,"o":"m 65 529 l 642 529 q 575 793 636 711 q 403 875 514 875 q 289 854 339 875 q 185 794 239 833 l 122 865 q 251 944 182 917 q 407 972 321 972 q 674 851 582 972 q 765 490 765 729 q 723 219 765 333 q 601 45 681 106 q 413 -15 521 -15 q 155 106 247 -15 q 63 460 63 226 l 65 529 m 414 83 q 642 429 624 83 l 179 429 q 244 164 188 244 q 414 83 301 83 m 264 1067 q 209 1088 231 1067 q 188 1140 188 1108 q 209 1194 188 1172 q 264 1215 231 1215 q 317 1194 296 1215 q 339 1140 339 1172 q 317 1088 339 1108 q 264 1067 296 1067 m 550 1067 q 497 1088 518 1067 q 475 1140 475 1108 q 497 1194 475 1172 q 550 1215 518 1215 q 604 1194 582 1215 q 626 1140 626 1172 q 604 1088 626 1108 q 550 1067 582 1067 z "},"Ӝ":{"ha":833,"x_min":17,"x_max":817,"o":"m 278 454 l 133 0 l 17 0 l 188 506 l 38 957 l 153 957 l 279 553 l 363 553 l 363 957 l 471 957 l 471 553 l 554 553 l 682 957 l 796 957 l 646 506 l 817 0 l 697 0 l 554 454 l 471 454 l 471 0 l 363 0 l 363 454 l 278 454 m 274 1067 q 219 1088 240 1067 q 197 1140 197 1108 q 219 1194 197 1172 q 274 1215 240 1215 q 327 1194 306 1215 q 349 1140 349 1172 q 327 1088 349 1108 q 274 1067 306 1067 m 560 1067 q 506 1088 528 1067 q 485 1140 485 1108 q 506 1194 485 1172 q 560 1215 528 1215 q 614 1194 592 1215 q 636 1140 636 1172 q 614 1088 636 1108 q 560 1067 592 1067 z "},"Ӟ":{"ha":833,"x_min":49,"x_max":751,"o":"m 390 972 q 565 941 490 972 q 678 853 639 910 q 718 722 718 796 q 663 585 718 638 q 521 521 607 533 q 685 451 618 513 q 751 285 751 389 q 707 131 751 199 q 579 24 663 63 q 386 -15 496 -15 q 198 19 285 -15 q 49 119 111 54 l 124 188 q 386 86 238 86 q 559 138 497 86 q 621 281 621 189 q 560 417 621 372 q 397 463 499 463 l 229 463 l 243 564 l 389 564 q 535 603 476 564 q 594 721 594 643 q 537 834 594 794 q 388 874 479 874 q 253 851 313 874 q 135 782 193 828 l 68 853 q 219 942 140 913 q 390 972 297 972 m 271 1067 q 216 1088 238 1067 q 194 1140 194 1108 q 216 1194 194 1172 q 271 1215 238 1215 q 324 1194 303 1215 q 346 1140 346 1172 q 324 1088 346 1108 q 271 1067 303 1067 m 557 1067 q 503 1088 525 1067 q 482 1140 482 1108 q 503 1194 482 1172 q 557 1215 525 1215 q 611 1194 589 1215 q 633 1140 633 1172 q 611 1088 633 1108 q 557 1067 589 1067 z "},"Ӡ":{"ha":833,"x_min":97,"x_max":736,"o":"m 410 556 q 658 483 579 556 q 736 285 736 411 q 694 128 736 196 q 574 22 651 60 q 392 -15 496 -15 q 226 10 293 -15 q 97 88 160 36 l 160 164 q 267 105 217 124 q 393 86 318 86 q 554 139 499 86 q 610 288 610 192 q 414 460 610 460 l 247 460 l 247 549 l 556 856 l 135 856 l 135 957 l 696 957 l 696 856 l 386 556 l 410 556 z "},"Ӣ":{"ha":833,"x_min":115,"x_max":718,"o":"m 115 957 l 235 957 l 235 472 q 230 273 235 353 q 215 107 225 193 l 563 957 l 718 957 l 718 0 l 599 0 l 599 485 q 618 842 599 669 l 274 0 l 115 0 l 115 957 m 229 1104 l 229 1193 l 603 1193 l 603 1104 l 229 1104 z "},"Ӥ":{"ha":833,"x_min":115,"x_max":718,"o":"m 115 957 l 235 957 l 235 472 q 230 273 235 353 q 215 107 225 193 l 563 957 l 718 957 l 718 0 l 599 0 l 599 485 q 618 842 599 669 l 274 0 l 115 0 l 115 957 m 274 1067 q 219 1088 240 1067 q 197 1140 197 1108 q 219 1194 197 1172 q 274 1215 240 1215 q 327 1194 306 1215 q 349 1140 349 1172 q 327 1088 349 1108 q 274 1067 306 1067 m 560 1067 q 506 1088 528 1067 q 485 1140 485 1108 q 506 1194 485 1172 q 560 1215 528 1215 q 614 1194 592 1215 q 636 1140 636 1172 q 614 1088 636 1108 q 560 1067 592 1067 z "},"Ӧ":{"ha":833,"x_min":65,"x_max":768,"o":"m 768 478 q 677 119 768 254 q 417 -15 586 -15 q 156 117 246 -15 q 65 476 65 249 q 106 735 65 622 q 225 910 146 847 q 417 972 304 972 q 677 838 586 972 q 768 478 768 704 m 643 478 q 589 772 643 674 q 417 871 535 871 q 244 772 299 871 q 190 476 190 672 q 245 184 190 282 q 417 86 300 86 q 589 184 535 86 q 643 478 643 282 m 274 1067 q 219 1088 240 1067 q 197 1140 197 1108 q 219 1194 197 1172 q 274 1215 240 1215 q 327 1194 306 1215 q 349 1140 349 1172 q 327 1088 349 1108 q 274 1067 306 1067 m 560 1067 q 506 1088 528 1067 q 485 1140 485 1108 q 506 1194 485 1172 q 560 1215 528 1215 q 614 1194 592 1215 q 636 1140 636 1172 q 614 1088 636 1108 q 560 1067 592 1067 z "},"Ө":{"ha":833,"x_min":65,"x_max":768,"o":"m 768 478 q 677 119 768 254 q 417 -15 586 -15 q 156 117 246 -15 q 65 476 65 249 q 106 735 65 622 q 225 910 146 847 q 417 972 304 972 q 677 838 586 972 q 768 478 768 704 m 417 871 q 255 787 308 871 q 193 533 201 703 l 639 533 q 578 787 632 703 q 417 871 525 871 m 417 86 q 583 175 529 86 q 640 442 636 264 l 192 442 q 251 175 196 264 q 417 86 306 86 z "},"Ӫ":{"ha":833,"x_min":65,"x_max":768,"o":"m 768 478 q 677 119 768 254 q 417 -15 586 -15 q 156 117 246 -15 q 65 476 65 249 q 106 735 65 622 q 225 910 146 847 q 417 972 304 972 q 677 838 586 972 q 768 478 768 704 m 417 871 q 255 787 308 871 q 193 533 201 703 l 639 533 q 578 787 632 703 q 417 871 525 871 m 417 86 q 583 175 529 86 q 640 442 636 264 l 192 442 q 251 175 196 264 q 417 86 306 86 m 274 1067 q 219 1088 240 1067 q 197 1140 197 1108 q 219 1194 197 1172 q 274 1215 240 1215 q 327 1194 306 1215 q 349 1140 349 1172 q 327 1088 349 1108 q 274 1067 306 1067 m 560 1067 q 506 1088 528 1067 q 485 1140 485 1108 q 506 1194 485 1172 q 560 1215 528 1215 q 614 1194 592 1215 q 636 1140 636 1172 q 614 1088 636 1108 q 560 1067 592 1067 z "},"Ӭ":{"ha":833,"x_min":58,"x_max":749,"o":"m 374 972 q 649 850 550 972 q 749 490 749 728 q 646 115 749 244 q 363 -15 543 -15 q 192 17 271 -15 q 58 107 113 50 l 131 175 q 235 107 182 129 q 356 85 289 85 q 549 172 482 85 q 624 440 615 258 l 203 440 l 203 543 l 624 543 q 550 796 614 718 q 368 874 486 874 q 241 849 294 874 q 136 783 188 825 l 69 854 q 374 972 206 972 m 258 1067 q 203 1088 225 1067 q 182 1140 182 1108 q 203 1194 182 1172 q 258 1215 225 1215 q 312 1194 290 1215 q 333 1140 333 1172 q 312 1088 333 1108 q 258 1067 290 1067 m 544 1067 q 491 1088 513 1067 q 469 1140 469 1108 q 491 1194 469 1172 q 544 1215 513 1215 q 599 1194 576 1215 q 621 1140 621 1172 q 599 1088 621 1108 q 544 1067 576 1067 z "},"Ӯ":{"ha":833,"x_min":36,"x_max":806,"o":"m 513 250 q 437 113 478 165 q 332 29 396 61 q 169 -15 268 -3 l 151 81 q 283 115 235 93 q 357 172 331 138 q 404 264 383 206 l 353 264 l 36 957 l 163 957 l 435 342 l 685 957 l 806 957 l 513 250 m 243 1104 l 243 1193 l 617 1193 l 617 1104 l 243 1104 z "},"Ӱ":{"ha":833,"x_min":36,"x_max":806,"o":"m 513 250 q 437 113 478 165 q 332 29 396 61 q 169 -15 268 -3 l 151 81 q 283 115 235 93 q 357 172 331 138 q 404 264 383 206 l 353 264 l 36 957 l 163 957 l 435 342 l 685 957 l 806 957 l 513 250 m 288 1067 q 233 1088 254 1067 q 211 1140 211 1108 q 233 1194 211 1172 q 288 1215 254 1215 q 341 1194 319 1215 q 363 1140 363 1172 q 341 1088 363 1108 q 288 1067 319 1067 m 574 1067 q 520 1088 542 1067 q 499 1140 499 1108 q 520 1194 499 1172 q 574 1215 542 1215 q 628 1194 606 1215 q 650 1140 650 1172 q 628 1088 650 1108 q 574 1067 606 1067 z "},"Ӳ":{"ha":833,"x_min":36,"x_max":806,"o":"m 513 250 q 437 113 478 165 q 332 29 396 61 q 169 -15 268 -3 l 151 81 q 283 115 235 93 q 357 172 331 138 q 404 264 383 206 l 353 264 l 36 957 l 163 957 l 435 342 l 685 957 l 806 957 l 513 250 m 376 1326 l 479 1278 l 344 1050 l 268 1086 l 376 1326 m 618 1326 l 719 1272 l 569 1046 l 496 1085 l 618 1326 z "},"Ӵ":{"ha":833,"x_min":71,"x_max":718,"o":"m 718 957 l 718 0 l 597 0 l 597 392 q 478 324 533 344 q 349 304 422 304 q 147 381 224 304 q 71 588 71 458 l 71 957 l 190 957 l 190 597 q 239 456 190 503 q 379 410 288 410 q 597 494 513 410 l 597 957 l 718 957 m 258 1067 q 203 1088 225 1067 q 182 1140 182 1108 q 203 1194 182 1172 q 258 1215 225 1215 q 312 1194 290 1215 q 333 1140 333 1172 q 312 1088 333 1108 q 258 1067 290 1067 m 544 1067 q 491 1088 513 1067 q 469 1140 469 1108 q 491 1194 469 1172 q 544 1215 513 1215 q 599 1194 576 1215 q 621 1140 621 1172 q 599 1088 621 1108 q 544 1067 576 1067 z "},"Ӷ":{"ha":833,"x_min":189,"x_max":756,"o":"m 310 850 l 310 101 l 392 101 l 392 -204 l 296 -204 l 276 0 l 189 0 l 189 957 l 756 957 l 743 850 l 310 850 z "},"Ӹ":{"ha":833,"x_min":43,"x_max":790,"o":"m 165 601 l 253 601 q 512 526 426 601 q 597 307 597 451 q 509 77 597 154 q 256 0 421 0 l 43 0 l 43 957 l 165 957 l 165 601 m 790 0 l 668 0 l 668 957 l 790 957 l 790 0 m 165 510 l 165 96 l 268 96 q 419 145 368 96 q 469 306 469 194 q 265 510 469 510 l 165 510 m 274 1067 q 219 1088 240 1067 q 197 1140 197 1108 q 219 1194 197 1172 q 274 1215 240 1215 q 327 1194 306 1215 q 349 1140 349 1172 q 327 1088 349 1108 q 274 1067 306 1067 m 560 1067 q 506 1088 528 1067 q 485 1140 485 1108 q 506 1194 485 1172 q 560 1215 528 1215 q 614 1194 592 1215 q 636 1140 636 1172 q 614 1088 636 1108 q 560 1067 592 1067 z "},"Ӻ":{"ha":833,"x_min":88,"x_max":810,"o":"m 363 850 l 363 601 l 582 601 l 582 508 l 363 508 l 363 101 l 446 101 l 446 -85 q 392 -240 446 -186 q 244 -293 339 -293 q 88 -242 156 -293 l 133 -162 q 183 -188 161 -181 q 239 -196 206 -196 q 325 -92 325 -196 l 325 0 l 243 0 l 243 508 l 103 508 l 103 601 l 243 601 l 243 957 l 810 957 l 797 850 l 363 850 z "},"Ӽ":{"ha":833,"x_min":21,"x_max":800,"o":"m 800 -85 q 747 -240 800 -186 q 599 -293 693 -293 q 443 -242 511 -293 l 489 -162 q 539 -188 517 -181 q 594 -196 561 -196 q 658 -170 636 -196 q 681 -92 681 -144 l 681 0 l 629 0 l 392 432 l 150 0 l 21 0 l 321 510 l 46 957 l 185 957 l 394 589 l 606 957 l 735 957 l 464 517 l 708 101 l 800 101 l 800 -85 z "},"Ӿ":{"ha":833,"x_min":43,"x_max":790,"o":"m 790 0 l 651 0 l 414 432 l 172 0 l 43 0 l 317 464 l 100 464 l 100 556 l 315 556 l 68 957 l 207 957 l 417 589 l 628 957 l 757 957 l 511 556 l 733 556 l 733 464 l 517 464 l 790 0 z "},"Ԁ":{"ha":833,"x_min":68,"x_max":703,"o":"m 421 0 q 166 75 264 0 q 68 292 68 150 q 165 513 68 433 q 429 592 263 592 l 582 592 l 582 957 l 703 957 l 703 0 l 421 0 m 582 99 l 582 497 l 426 497 q 256 447 315 497 q 196 292 196 396 q 422 99 196 99 l 582 99 z "},"Ԃ":{"ha":833,"x_min":13,"x_max":813,"o":"m 806 524 q 813 347 813 433 q 749 72 813 163 q 583 -19 686 -19 q 479 10 524 -19 q 411 92 435 39 q 228 -19 344 -19 q 121 13 169 -19 q 42 108 72 44 q 13 264 13 172 q 91 506 13 421 q 322 592 169 592 l 386 592 l 386 957 l 507 957 l 507 215 q 526 113 507 149 q 585 78 546 78 q 662 140 632 78 q 692 344 692 201 q 685 524 692 426 l 806 524 m 250 78 q 326 107 294 78 q 386 197 357 136 l 386 499 l 319 499 q 183 440 232 499 q 133 264 133 382 q 165 122 133 167 q 250 78 197 78 z "},"Ԅ":{"ha":833,"x_min":35,"x_max":799,"o":"m 792 528 q 799 354 799 438 q 732 75 799 165 q 551 -15 665 -15 q 406 31 464 -15 q 301 176 347 76 l 192 410 l 76 410 l 76 506 l 176 506 q 338 549 283 506 q 393 688 393 592 q 338 819 393 779 q 160 860 282 860 l 35 860 l 35 957 l 161 957 q 429 888 338 957 q 521 688 521 819 q 469 525 521 588 q 313 432 418 463 l 411 210 q 475 108 444 138 q 551 79 506 79 q 645 142 611 79 q 679 354 679 204 q 672 528 679 431 l 792 528 z "},"Ԇ":{"ha":833,"x_min":101,"x_max":771,"o":"m 771 101 l 771 -204 l 675 -204 l 656 0 l 604 0 l 343 410 l 142 410 l 142 504 l 353 504 q 515 548 460 504 q 569 688 569 592 q 517 819 569 779 q 353 860 465 860 l 101 860 l 101 957 l 339 957 q 608 889 517 957 q 699 688 699 821 q 635 517 699 585 q 465 424 571 450 l 681 101 l 771 101 z "},"Ԉ":{"ha":833,"x_min":7,"x_max":815,"o":"m 808 524 q 815 347 815 433 q 751 72 815 163 q 585 -19 688 -19 q 444 42 499 -19 q 389 219 389 103 l 389 856 l 257 856 l 232 514 q 199 226 218 325 q 153 81 179 126 q 76 -15 126 35 l 7 68 q 53 137 36 99 q 83 267 69 175 q 113 539 97 358 l 146 957 l 508 957 l 508 215 q 528 113 508 149 q 588 78 549 78 q 665 140 635 78 q 694 344 694 201 q 688 524 694 426 l 808 524 z "},"Ԋ":{"ha":833,"x_min":68,"x_max":819,"o":"m 813 524 q 819 347 819 433 q 756 72 819 163 q 590 -19 692 -19 q 449 42 504 -19 q 394 219 394 103 l 394 454 l 188 454 l 188 0 l 68 0 l 68 957 l 188 957 l 188 554 l 394 554 l 394 957 l 514 957 l 514 215 q 534 113 514 149 q 593 78 554 78 q 670 140 640 78 q 700 344 700 201 q 693 524 700 426 l 813 524 z "},"Ԍ":{"ha":833,"x_min":63,"x_max":749,"o":"m 436 -15 q 162 110 261 -15 q 63 479 63 236 q 118 749 63 638 q 265 916 174 860 q 464 972 357 972 q 615 947 554 972 q 736 867 676 922 l 664 792 q 572 851 619 832 q 464 871 524 871 q 269 778 347 871 q 192 479 192 685 q 255 181 192 275 q 446 86 318 86 q 628 132 547 86 l 628 422 l 440 422 l 426 524 l 749 524 l 749 68 q 603 6 676 28 q 436 -15 531 -15 z "},"Ԏ":{"ha":833,"x_min":21,"x_max":789,"o":"m 782 526 q 789 356 789 436 q 746 147 789 231 q 636 24 703 64 q 497 -15 569 -15 q 334 51 399 -15 q 269 238 269 117 l 269 851 l 21 851 l 21 957 l 674 957 l 661 851 l 390 851 l 390 257 q 501 79 390 79 q 622 143 575 79 q 669 356 669 207 q 663 526 669 429 l 782 526 z "},"Ԑ":{"ha":833,"x_min":82,"x_max":785,"o":"m 444 972 q 616 942 538 972 q 765 853 694 913 l 699 782 q 581 851 640 828 q 446 874 521 874 q 297 834 354 874 q 239 719 239 794 q 297 603 239 642 q 444 564 356 564 l 607 564 l 593 463 l 436 463 q 274 417 335 463 q 213 279 213 372 q 274 138 213 189 q 447 86 336 86 q 713 188 594 86 l 785 119 q 635 19 724 54 q 443 -15 546 -15 q 251 22 333 -15 q 126 126 169 60 q 82 278 82 193 q 149 447 82 383 q 313 521 215 510 q 172 585 228 533 q 115 718 115 638 q 157 851 115 793 q 274 940 199 908 q 444 972 349 972 z "},"Ԓ":{"ha":833,"x_min":21,"x_max":718,"o":"m 718 -85 q 665 -240 718 -186 q 517 -293 611 -293 q 360 -242 428 -293 l 407 -162 q 456 -188 433 -181 q 511 -196 478 -196 q 597 -92 597 -196 l 597 853 l 340 853 l 306 569 q 250 243 279 353 q 183 83 221 133 q 74 -15 146 33 l 21 74 q 85 143 61 107 q 133 271 108 179 q 181 536 158 363 l 235 957 l 718 957 l 718 -85 z "},"Ԕ":{"ha":833,"x_min":6,"x_max":844,"o":"m 844 0 l 722 0 l 550 426 l 386 0 l 269 0 l 485 511 l 336 850 l 256 850 l 231 514 q 197 226 217 325 q 152 81 178 126 q 76 -15 126 35 l 6 68 q 51 137 35 99 q 82 267 68 175 q 111 539 96 358 l 144 957 l 153 949 l 146 957 l 413 957 l 560 592 l 703 957 l 818 957 l 626 511 l 844 0 z "},"Ԗ":{"ha":833,"x_min":76,"x_max":818,"o":"m 688 0 l 463 446 q 365 379 422 403 q 243 356 308 356 l 192 356 l 192 0 l 76 0 l 76 957 l 243 957 q 462 876 382 957 q 542 663 542 794 l 542 640 l 697 957 l 817 957 l 572 490 l 818 0 l 688 0 m 239 453 q 376 501 325 453 q 428 661 428 550 q 380 810 428 760 q 246 860 332 860 l 192 860 l 192 453 l 239 453 z "},"Ԙ":{"ha":833,"x_min":11,"x_max":831,"o":"m 831 97 l 831 0 l 408 0 l 408 385 l 311 385 l 149 0 l 11 0 l 196 413 q 68 515 111 449 q 25 671 25 581 q 115 880 25 803 q 364 957 206 957 l 818 957 l 804 857 l 532 857 l 532 536 l 749 536 l 749 436 l 532 436 l 532 97 l 831 97 m 408 860 l 350 860 q 208 812 258 860 q 157 672 157 764 q 202 531 157 578 q 325 483 247 483 l 408 483 l 408 860 z "},"Ԛ":{"ha":833,"x_min":63,"x_max":824,"o":"m 769 478 q 723 206 769 317 q 571 38 676 96 q 731 -35 674 17 q 824 -190 789 -86 l 696 -240 q 585 -68 649 -122 q 403 -14 521 -14 q 218 47 294 -14 q 102 217 142 107 q 63 476 63 328 q 103 735 63 622 q 223 910 143 847 q 417 972 303 972 q 678 838 586 972 q 769 478 769 704 m 643 478 q 589 772 643 674 q 417 871 535 871 q 244 772 299 871 q 189 476 189 672 q 244 184 189 282 q 417 86 300 86 q 589 184 535 86 q 643 478 643 282 z "},"Ԝ":{"ha":833,"x_min":7,"x_max":826,"o":"m 682 0 l 524 0 l 414 722 l 303 0 l 140 0 l 7 957 l 128 957 l 229 132 l 344 846 l 492 846 l 601 132 l 715 957 l 826 957 l 682 0 z "},"Ԟ":{"ha":833,"x_min":124,"x_max":807,"o":"m 807 0 l 661 0 l 356 453 l 244 453 l 244 0 l 124 0 l 124 957 l 244 957 l 244 554 l 357 554 l 482 726 l 315 835 l 368 911 l 538 801 l 650 957 l 781 957 l 628 743 l 778 646 l 725 568 l 574 667 l 458 506 l 807 0 z "},"Ԡ":{"ha":833,"x_min":-10,"x_max":810,"o":"m 624 626 q 760 569 710 626 q 810 424 810 513 l 810 -81 q 754 -238 810 -183 q 607 -293 699 -293 q 450 -242 518 -293 l 497 -161 q 547 -185 525 -178 q 601 -193 568 -193 q 688 -90 688 -193 l 688 410 q 604 519 688 519 q 492 471 546 519 l 492 0 l 372 0 l 372 856 l 240 856 l 215 514 q 182 226 201 325 q 136 81 163 126 q 60 -15 110 35 l -10 68 q 36 137 19 99 q 67 267 53 175 q 96 539 81 358 l 129 957 l 492 957 l 492 571 q 624 626 550 626 z "},"Ԣ":{"ha":833,"x_min":36,"x_max":824,"o":"m 624 626 q 769 567 715 626 q 824 408 824 508 l 824 -81 q 768 -238 824 -183 q 622 -293 713 -293 q 465 -242 533 -293 l 513 -162 q 563 -187 542 -179 q 617 -194 585 -194 q 703 -90 703 -194 l 703 410 q 606 519 703 519 q 543 508 572 519 q 482 469 514 496 l 482 0 l 363 0 l 363 454 l 156 454 l 156 0 l 36 0 l 36 957 l 156 957 l 156 554 l 363 554 l 363 957 l 482 957 l 482 571 q 624 626 542 626 z "},"Ҍ":{"ha":833,"x_min":42,"x_max":790,"o":"m 436 594 q 696 522 601 594 q 790 307 790 449 q 690 76 790 151 q 418 0 590 0 l 174 0 l 174 738 l 42 738 l 42 825 l 174 825 l 174 957 l 294 957 l 294 825 l 476 825 l 476 738 l 294 738 l 294 594 l 436 594 m 432 99 q 601 144 542 99 q 661 304 661 190 q 603 454 661 408 q 438 500 546 500 l 294 500 l 294 99 l 432 99 z "},"Ҏ":{"ha":833,"x_min":161,"x_max":774,"o":"m 774 660 q 656 422 774 504 l 771 233 l 661 233 l 572 381 q 404 356 497 356 l 281 356 l 281 0 l 161 0 l 161 957 l 404 957 q 677 883 581 957 q 774 660 774 808 m 414 451 q 521 465 478 451 l 397 665 l 507 665 l 600 513 q 643 658 643 561 q 583 813 643 765 q 418 861 522 861 l 281 861 l 281 451 l 414 451 z "},"а":{"ha":833,"x_min":96,"x_max":724,"o":"m 664 160 q 678 97 664 117 q 724 67 692 76 l 694 -17 q 561 88 588 -3 q 463 11 522 38 q 332 -15 404 -15 q 159 46 222 -15 q 96 210 96 107 q 184 383 96 322 q 438 444 272 444 l 546 444 l 546 504 q 501 616 546 582 q 372 650 457 650 q 182 613 289 650 l 150 701 q 390 747 279 747 q 594 685 524 747 q 664 511 664 622 l 664 160 m 361 72 q 465 100 415 72 q 546 176 514 128 l 546 364 l 440 364 q 272 325 324 364 q 221 211 221 286 q 361 72 221 72 z "},"б":{"ha":833,"x_min":104,"x_max":728,"o":"m 461 683 q 601 643 540 683 q 694 527 661 603 q 728 350 728 451 q 688 152 728 235 q 578 27 649 69 q 415 -15 508 -15 q 190 89 276 -15 q 104 401 104 193 q 128 663 104 561 q 209 832 151 765 q 372 935 267 899 q 507 988 461 967 q 601 1042 553 1008 l 651 951 q 431 846 560 894 q 326 792 365 822 q 263 703 288 761 q 229 547 239 646 q 326 647 265 610 q 461 683 386 683 m 415 81 q 551 140 501 81 q 600 346 600 199 q 443 588 600 588 q 324 553 379 588 q 232 443 269 518 l 232 354 q 281 152 232 224 q 415 81 329 81 z "},"в":{"ha":833,"x_min":156,"x_max":739,"o":"m 553 396 q 693 343 647 388 q 739 217 739 299 q 649 54 739 108 q 426 0 560 0 l 156 0 l 156 721 q 403 747 285 747 q 622 697 542 747 q 701 556 701 647 q 668 456 701 496 q 553 396 635 417 m 406 653 q 272 644 338 653 l 272 433 l 422 433 q 540 459 499 433 q 581 546 581 485 q 538 628 581 603 q 406 653 496 653 m 404 94 q 558 117 501 94 q 615 215 615 139 q 563 314 615 288 q 431 340 511 340 l 272 340 l 272 94 l 404 94 z "},"г":{"ha":833,"x_min":219,"x_max":728,"o":"m 219 0 l 219 732 l 728 732 l 714 633 l 336 633 l 336 0 l 219 0 z "},"ѓ":{"ha":833,"x_min":219,"x_max":728,"o":"m 219 0 l 219 732 l 728 732 l 714 633 l 336 633 l 336 0 l 219 0 m 642 1007 l 351 889 l 315 951 l 589 1107 l 642 1007 z "},"ґ":{"ha":833,"x_min":219,"x_max":728,"o":"m 728 915 l 728 732 l 714 633 l 336 633 l 336 0 l 219 0 l 219 732 l 610 732 l 610 915 l 728 915 z "},"д":{"ha":833,"x_min":36,"x_max":743,"o":"m 743 96 l 743 -204 l 646 -204 l 626 0 l 154 0 l 133 -204 l 36 -204 l 36 96 l 86 96 q 142 169 121 126 q 177 288 163 211 q 201 496 192 364 l 217 732 l 689 732 l 689 96 l 743 96 m 571 636 l 324 636 l 314 504 q 290 289 304 365 q 253 169 276 213 q 186 96 229 126 l 199 96 l 571 96 l 571 636 z "},"е":{"ha":833,"x_min":110,"x_max":726,"o":"m 232 325 q 295 143 236 204 q 444 82 354 82 q 544 98 499 82 q 640 147 589 114 l 694 69 q 577 7 643 29 q 444 -15 511 -15 q 198 88 286 -15 q 110 365 110 192 q 149 562 110 475 q 260 698 188 649 q 428 747 332 747 q 647 651 567 747 q 726 388 726 554 q 724 325 726 356 l 232 325 m 429 651 q 292 591 344 651 q 232 414 239 531 l 613 414 q 563 590 611 529 q 429 651 514 651 z "},"ѐ":{"ha":833,"x_min":110,"x_max":726,"o":"m 232 325 q 295 143 236 204 q 444 82 354 82 q 544 98 499 82 q 640 147 589 114 l 694 69 q 577 7 643 29 q 444 -15 511 -15 q 198 88 286 -15 q 110 365 110 192 q 149 562 110 475 q 260 698 188 649 q 428 747 332 747 q 647 651 567 747 q 726 388 726 554 q 724 325 726 356 l 232 325 m 429 651 q 292 591 344 651 q 232 414 239 531 l 613 414 q 563 590 611 529 q 429 651 514 651 m 269 993 l 333 1093 l 589 928 l 551 864 l 269 993 z "},"ё":{"ha":833,"x_min":110,"x_max":726,"o":"m 232 325 q 295 143 236 204 q 444 82 354 82 q 544 98 499 82 q 640 147 589 114 l 694 69 q 577 7 643 29 q 444 -15 511 -15 q 198 88 286 -15 q 110 365 110 192 q 149 562 110 475 q 260 698 188 649 q 428 747 332 747 q 647 651 567 747 q 726 388 726 554 q 724 325 726 356 l 232 325 m 429 651 q 292 591 344 651 q 232 414 239 531 l 613 414 q 563 590 611 529 q 429 651 514 651 m 286 900 q 232 922 254 900 q 210 974 210 943 q 232 1028 210 1007 q 286 1050 254 1050 q 340 1028 318 1050 q 361 974 361 1007 q 340 921 361 942 q 286 900 318 900 m 574 900 q 520 921 542 900 q 499 974 499 942 q 520 1028 499 1007 q 574 1050 542 1050 q 628 1028 606 1050 q 650 974 650 1007 q 628 922 650 943 q 574 900 606 900 z "},"ж":{"ha":833,"x_min":28,"x_max":806,"o":"m 365 343 l 286 343 l 142 0 l 28 0 l 197 393 l 40 732 l 160 732 l 288 433 l 365 433 l 365 732 l 468 732 l 468 433 l 546 433 l 678 732 l 793 732 l 636 393 l 806 0 l 688 0 l 543 343 l 468 343 l 468 0 l 365 0 l 365 343 z "},"з":{"ha":833,"x_min":75,"x_max":718,"o":"m 397 429 q 513 460 471 429 q 556 540 556 490 q 383 653 556 653 q 267 636 326 653 q 157 589 207 619 l 101 658 q 233 724 157 700 q 388 747 310 747 q 596 695 514 747 q 678 547 678 643 q 638 449 678 489 q 529 390 597 410 q 617 368 574 389 q 690 308 661 347 q 718 218 718 269 q 626 45 718 106 q 386 -15 535 -15 q 75 86 199 -15 l 131 161 q 390 81 243 81 q 540 117 489 81 q 592 215 592 153 q 406 335 592 335 l 258 335 l 265 429 l 397 429 z "},"и":{"ha":833,"x_min":139,"x_max":694,"o":"m 694 0 l 578 0 l 578 342 q 584 515 578 444 q 590 593 590 586 l 282 0 l 139 0 l 139 732 l 256 732 l 256 389 q 250 226 256 301 q 244 143 244 150 l 549 732 l 694 732 l 694 0 z "},"й":{"ha":833,"x_min":139,"x_max":694,"o":"m 694 0 l 578 0 l 578 342 q 584 515 578 444 q 590 593 590 586 l 282 0 l 139 0 l 139 732 l 256 732 l 256 389 q 250 226 256 301 q 244 143 244 150 l 549 732 l 694 732 l 694 0 m 414 899 q 275 940 332 899 q 210 1054 218 981 l 289 1072 q 334 1008 304 1028 q 414 989 364 989 q 496 1008 464 989 q 543 1072 528 1028 l 624 1054 q 556 940 615 981 q 414 899 497 899 z "},"ѝ":{"ha":833,"x_min":139,"x_max":694,"o":"m 694 0 l 578 0 l 578 342 q 584 515 578 444 q 590 593 590 586 l 282 0 l 139 0 l 139 732 l 256 732 l 256 389 q 250 226 256 301 q 244 143 244 150 l 549 732 l 694 732 l 694 0 m 256 993 l 319 1093 l 575 928 l 538 864 l 256 993 z "},"ҋ":{"ha":833,"x_min":129,"x_max":779,"o":"m 397 899 q 258 940 315 899 q 193 1054 201 981 l 274 1072 q 317 1008 288 1028 q 397 989 347 989 q 479 1008 447 989 q 526 1072 511 1028 l 607 1054 q 540 940 599 981 q 397 899 482 899 m 779 92 l 688 -204 l 592 -204 l 639 0 l 558 0 l 558 342 q 572 624 558 503 l 271 0 l 129 0 l 129 732 l 243 732 l 243 389 q 238 230 243 308 q 224 111 232 151 l 529 732 l 672 732 l 672 92 l 779 92 z "},"к":{"ha":833,"x_min":147,"x_max":790,"o":"m 147 732 l 264 732 l 264 435 l 410 435 l 621 732 l 753 732 l 506 393 l 790 0 l 649 0 l 407 340 l 264 340 l 264 0 l 147 0 l 147 732 z "},"ќ":{"ha":833,"x_min":147,"x_max":790,"o":"m 147 732 l 264 732 l 264 435 l 410 435 l 621 732 l 753 732 l 506 393 l 790 0 l 649 0 l 407 340 l 264 340 l 264 0 l 147 0 l 147 732 m 614 1007 l 324 889 l 288 951 l 561 1107 l 614 1007 z "},"л":{"ha":833,"x_min":58,"x_max":708,"o":"m 708 0 l 592 0 l 592 633 l 318 633 l 301 440 q 267 193 288 276 q 213 67 247 110 q 108 -15 178 24 l 58 60 q 122 116 99 85 q 162 221 144 147 q 190 436 179 294 l 213 732 l 708 732 l 708 0 z "},"м":{"ha":833,"x_min":58,"x_max":775,"o":"m 775 0 l 663 0 l 635 357 q 626 553 626 482 l 628 615 l 622 615 l 476 122 l 361 122 l 200 615 l 194 615 q 196 544 196 593 q 190 360 196 471 l 169 0 l 58 0 l 111 732 l 264 732 l 421 232 l 565 732 l 721 732 l 775 0 z "},"н":{"ha":833,"x_min":139,"x_max":694,"o":"m 578 325 l 256 325 l 256 0 l 139 0 l 139 732 l 256 732 l 256 421 l 578 421 l 578 732 l 694 732 l 694 0 l 578 0 l 578 325 z "},"о":{"ha":833,"x_min":101,"x_max":732,"o":"m 418 747 q 651 645 569 747 q 732 367 732 543 q 649 90 732 194 q 417 -15 567 -15 q 183 87 265 -15 q 101 365 101 189 q 184 643 101 539 q 418 747 267 747 m 418 651 q 275 581 322 651 q 228 365 228 510 q 274 151 228 221 q 417 81 321 81 q 559 151 513 81 q 606 367 606 221 q 559 581 606 511 q 418 651 513 651 z "},"п":{"ha":833,"x_min":139,"x_max":694,"o":"m 578 636 l 256 636 l 256 0 l 139 0 l 139 732 l 694 732 l 694 0 l 578 0 l 578 636 z "},"р":{"ha":833,"x_min":139,"x_max":732,"o":"m 467 747 q 732 367 732 747 q 660 89 732 193 q 450 -15 588 -15 q 256 68 331 -15 l 256 -281 l 139 -294 l 139 732 l 239 732 l 249 629 q 345 717 289 686 q 467 747 401 747 m 439 653 q 337 619 383 653 q 256 536 290 586 l 256 174 q 328 106 285 131 q 424 82 372 82 q 560 152 515 82 q 606 367 606 222 q 565 582 606 511 q 439 653 525 653 z "},"с":{"ha":833,"x_min":126,"x_max":717,"o":"m 471 85 q 661 149 567 85 l 717 72 q 603 8 671 32 q 471 -15 535 -15 q 217 87 308 -15 q 126 363 126 189 q 167 560 126 472 q 286 697 208 647 q 471 747 364 747 q 715 661 613 747 l 658 585 q 469 649 563 649 q 312 576 371 649 q 253 363 253 503 q 312 153 253 222 q 471 85 371 85 z "},"т":{"ha":833,"x_min":90,"x_max":751,"o":"m 736 635 l 475 635 l 475 0 l 358 0 l 358 635 l 90 635 l 90 732 l 751 732 l 736 635 z "},"у":{"ha":833,"x_min":86,"x_max":747,"o":"m 492 -4 q 374 -206 449 -131 q 164 -294 299 -281 l 147 -201 q 265 -163 221 -189 q 333 -99 308 -137 q 379 0 358 -61 l 340 0 l 86 732 l 210 732 l 419 89 l 626 732 l 747 732 l 492 -4 z "},"ў":{"ha":833,"x_min":86,"x_max":747,"o":"m 492 -4 q 374 -206 449 -131 q 164 -294 299 -281 l 147 -201 q 265 -163 221 -189 q 333 -99 308 -137 q 379 0 358 -61 l 340 0 l 86 732 l 210 732 l 419 89 l 626 732 l 747 732 l 492 -4 m 414 899 q 275 940 332 899 q 210 1054 218 981 l 289 1072 q 334 1008 304 1028 q 414 989 364 989 q 496 1008 464 989 q 543 1072 528 1028 l 624 1054 q 556 940 615 981 q 414 899 497 899 z "},"ф":{"ha":833,"x_min":40,"x_max":793,"o":"m 469 1025 l 469 672 q 606 747 526 747 q 751 649 708 747 q 793 367 793 551 q 741 88 793 192 q 593 -15 689 -15 q 528 4 560 -15 q 469 63 496 24 l 469 -279 l 364 -294 l 364 63 q 304 5 338 25 q 238 -15 271 -15 q 91 88 142 -15 q 40 367 40 190 q 85 649 40 550 q 235 747 131 747 q 364 675 310 747 l 364 1040 l 469 1025 m 261 654 q 185 587 210 654 q 161 367 161 519 q 185 144 161 213 q 261 76 210 76 q 310 92 289 76 q 364 147 332 108 l 364 589 q 313 640 335 625 q 261 654 292 654 m 579 654 q 522 639 547 654 q 469 588 497 624 l 469 147 q 518 93 496 110 q 569 76 540 76 q 648 146 622 76 q 674 367 674 215 q 652 588 674 522 q 579 654 631 654 z "},"х":{"ha":833,"x_min":78,"x_max":756,"o":"m 78 0 l 347 386 l 110 732 l 249 732 l 418 460 l 589 732 l 724 732 l 486 392 l 756 0 l 614 0 l 413 314 l 211 0 l 78 0 z "},"ч":{"ha":833,"x_min":118,"x_max":679,"o":"m 679 0 l 563 0 l 563 310 q 460 250 519 272 q 333 228 400 228 q 173 284 228 228 q 118 443 118 340 l 118 732 l 235 732 l 235 457 q 265 351 235 383 q 363 319 296 319 q 474 342 417 319 q 563 403 531 365 l 563 732 l 679 732 l 679 0 z "},"ц":{"ha":833,"x_min":131,"x_max":799,"o":"m 799 96 l 799 -204 l 701 -204 l 682 0 l 131 0 l 131 732 l 247 732 l 247 97 l 569 97 l 569 732 l 686 732 l 686 96 l 799 96 z "},"ш":{"ha":833,"x_min":68,"x_max":765,"o":"m 765 0 l 68 0 l 68 732 l 178 732 l 178 97 l 363 97 l 363 732 l 471 732 l 471 97 l 657 97 l 657 732 l 765 732 l 765 0 z "},"щ":{"ha":833,"x_min":68,"x_max":865,"o":"m 865 96 l 865 -204 l 768 -204 l 749 0 l 68 0 l 68 732 l 178 732 l 178 97 l 363 97 l 363 732 l 471 732 l 471 97 l 657 97 l 657 732 l 765 732 l 765 96 l 865 96 z "},"џ":{"ha":833,"x_min":139,"x_max":694,"o":"m 694 0 l 475 0 l 475 -204 l 378 -204 l 358 0 l 139 0 l 139 732 l 256 732 l 256 97 l 578 97 l 578 732 l 694 732 l 694 0 z "},"ь":{"ha":833,"x_min":175,"x_max":742,"o":"m 292 501 l 435 501 q 670 437 599 501 q 742 251 742 372 q 703 111 742 168 q 600 27 664 54 q 461 0 536 0 l 175 0 l 175 732 l 292 732 l 292 501 m 292 410 l 292 94 l 449 94 q 572 130 528 94 q 615 251 615 165 q 575 372 615 333 q 433 410 535 410 l 292 410 z "},"ъ":{"ha":833,"x_min":46,"x_max":757,"o":"m 336 501 l 424 501 q 757 256 757 501 q 424 0 757 0 l 219 0 l 219 642 l 46 642 l 46 732 l 336 732 l 336 501 m 336 410 l 336 94 l 436 94 q 581 129 529 94 q 632 254 632 164 q 582 373 632 336 q 438 410 532 410 l 336 410 z "},"ы":{"ha":833,"x_min":86,"x_max":747,"o":"m 197 494 l 247 494 q 478 435 397 494 q 558 254 558 376 q 476 63 558 125 q 247 0 394 0 l 86 0 l 86 732 l 197 732 l 197 494 m 747 0 l 635 0 l 635 732 l 747 732 l 747 0 m 197 407 l 197 90 l 251 90 q 391 126 344 90 q 438 253 438 163 q 393 371 438 335 q 251 407 349 407 l 197 407 z "},"љ":{"ha":833,"x_min":4,"x_max":822,"o":"m 504 494 l 522 494 q 744 435 667 494 q 822 254 822 376 q 743 64 822 128 q 524 0 664 0 l 392 0 l 392 639 l 244 639 l 236 446 q 208 203 229 290 q 151 71 188 117 q 47 -15 114 25 l 4 63 q 58 123 38 90 q 96 230 79 156 q 121 438 113 304 l 136 732 l 504 732 l 504 494 m 504 407 l 504 92 l 532 92 q 659 127 618 92 q 700 254 700 163 q 660 372 700 336 q 529 407 619 407 l 504 407 z "},"њ":{"ha":833,"x_min":100,"x_max":826,"o":"m 508 456 l 526 456 q 749 402 672 456 q 826 229 826 349 q 531 0 826 0 l 396 0 l 396 369 l 215 369 l 215 0 l 100 0 l 100 732 l 215 732 l 215 456 l 396 456 l 396 732 l 508 732 l 508 456 m 508 369 l 508 90 l 535 90 q 628 100 593 90 q 684 140 664 110 q 704 229 704 169 q 664 339 704 308 q 532 369 624 369 l 508 369 z "},"ѕ":{"ha":833,"x_min":103,"x_max":696,"o":"m 389 81 q 521 113 472 81 q 569 197 569 144 q 557 256 569 233 q 507 298 544 279 q 393 336 469 317 q 204 413 265 368 q 143 547 143 458 q 219 693 143 639 q 421 747 296 747 q 688 667 574 747 l 635 586 q 539 635 589 618 q 424 653 489 653 q 265 557 265 653 q 283 503 265 524 q 340 466 300 482 q 458 428 379 450 q 637 347 578 396 q 696 203 696 297 q 607 39 696 93 q 389 -15 518 -15 q 103 83 217 -15 l 168 160 q 269 102 213 124 q 389 81 326 81 z "},"є":{"ha":833,"x_min":126,"x_max":717,"o":"m 472 747 q 717 667 614 747 l 661 590 q 568 638 614 624 q 469 653 522 653 q 322 593 382 653 q 250 421 263 533 l 583 421 l 583 329 l 249 329 q 315 143 256 204 q 469 82 375 82 q 569 97 524 82 q 663 144 615 113 l 717 69 q 603 7 669 29 q 474 -15 536 -15 q 217 87 308 -15 q 126 363 126 189 q 167 560 126 474 q 287 697 208 647 q 472 747 365 747 z "},"э":{"ha":833,"x_min":126,"x_max":717,"o":"m 386 747 q 633 647 550 747 q 717 369 717 547 q 629 89 717 193 q 379 -15 542 -15 q 244 7 311 -15 q 126 71 176 29 l 183 149 q 378 82 272 82 q 532 142 475 82 q 596 329 589 203 l 251 329 l 251 421 l 594 421 q 531 595 585 538 q 385 653 476 653 q 189 588 276 653 l 133 663 q 250 725 182 703 q 386 747 318 747 z "},"і":{"ha":833,"x_min":168,"x_max":715,"o":"m 417 1074 q 479 1051 456 1074 q 503 992 503 1028 q 479 933 503 956 q 417 910 456 910 q 356 933 379 910 q 333 992 333 956 q 356 1051 333 1028 q 417 1074 379 1074 m 510 93 l 715 93 l 715 0 l 168 0 l 168 93 l 393 93 l 393 639 l 175 639 l 175 732 l 510 732 l 510 93 z "},"ї":{"ha":833,"x_min":168,"x_max":715,"o":"m 510 93 l 715 93 l 715 0 l 168 0 l 168 93 l 393 93 l 393 639 l 175 639 l 175 732 l 510 732 l 510 93 m 274 900 q 219 922 242 900 q 197 974 197 943 q 219 1028 197 1007 q 274 1050 242 1050 q 327 1028 306 1050 q 349 974 349 1007 q 327 921 349 942 q 274 900 306 900 m 561 900 q 508 921 529 900 q 486 974 486 942 q 508 1028 486 1007 q 561 1050 529 1050 q 615 1028 593 1050 q 638 974 638 1007 q 615 922 638 943 q 561 900 593 900 z "},"ј":{"ha":833,"x_min":133,"x_max":618,"o":"m 510 1074 q 571 1051 547 1074 q 594 992 594 1028 q 571 933 594 956 q 510 910 547 910 q 449 933 472 910 q 425 992 425 956 q 449 1051 425 1028 q 510 1074 472 1074 m 618 117 q 501 -158 618 -60 q 153 -294 383 -256 l 133 -204 q 406 -102 310 -175 q 501 110 501 -29 l 501 639 l 197 639 l 197 732 l 618 732 l 618 117 z "},"ћ":{"ha":833,"x_min":26,"x_max":696,"o":"m 490 747 q 696 531 696 747 l 696 0 l 579 0 l 579 529 q 549 624 579 594 q 451 654 518 654 q 342 618 394 654 q 256 533 289 582 l 256 0 l 139 0 l 139 829 l 26 829 l 26 924 l 139 924 l 139 1025 l 256 1038 l 256 924 l 490 924 l 490 829 l 256 829 l 256 631 q 361 717 299 686 q 490 747 424 747 z "},"ю":{"ha":833,"x_min":78,"x_max":789,"o":"m 535 747 q 725 648 661 747 q 789 367 789 549 q 726 87 789 189 q 535 -15 663 -15 q 353 77 414 -15 q 285 325 292 169 l 192 325 l 192 0 l 78 0 l 78 732 l 192 732 l 192 422 l 285 422 q 355 663 293 578 q 535 747 417 747 m 535 651 q 433 584 461 651 q 406 365 406 517 q 433 151 406 222 q 535 81 461 81 q 638 151 610 81 q 665 367 665 222 q 636 583 665 515 q 535 651 607 651 z "},"я":{"ha":833,"x_min":74,"x_max":675,"o":"m 675 732 l 675 0 l 558 0 l 558 283 l 361 283 l 206 0 l 74 0 l 247 310 q 118 510 118 371 q 194 675 118 618 q 407 732 269 732 l 675 732 m 558 376 l 558 638 l 404 638 q 282 607 322 638 q 242 510 242 576 q 278 408 242 439 q 400 376 315 376 l 558 376 z "},"ђ":{"ha":833,"x_min":26,"x_max":696,"o":"m 256 924 l 490 924 l 490 829 l 256 829 l 256 636 q 362 717 299 688 q 490 747 425 747 q 696 531 696 747 l 696 36 q 672 -124 696 -62 q 603 -222 649 -185 q 481 -293 558 -258 l 438 -208 q 521 -158 492 -182 q 565 -89 550 -133 q 579 33 579 -44 l 579 525 q 549 624 579 593 q 451 654 518 654 q 342 618 394 654 q 256 533 289 582 l 256 0 l 139 0 l 139 829 l 26 829 l 26 924 l 139 924 l 139 1025 l 256 1038 l 256 924 z "},"ѡ":{"ha":833,"x_min":36,"x_max":797,"o":"m 726 732 q 797 332 797 542 q 743 76 797 167 q 585 -15 689 -15 q 469 26 513 -15 q 415 146 425 67 q 356 26 400 68 q 246 -15 313 -15 q 36 332 36 -15 q 106 732 36 556 l 210 732 q 163 533 174 622 q 151 332 151 444 q 175 146 151 211 q 257 81 199 81 q 361 321 361 81 l 361 496 l 472 511 l 472 319 q 495 142 472 204 q 575 81 518 81 q 658 146 635 81 q 682 332 682 211 q 669 528 682 438 q 619 732 656 618 l 726 732 z "},"ѣ":{"ha":833,"x_min":81,"x_max":750,"o":"m 318 744 l 503 744 l 488 650 l 318 650 l 318 494 l 415 494 q 750 250 750 494 q 414 0 750 0 l 201 0 l 201 650 l 81 650 l 81 744 l 201 744 l 201 896 l 318 910 l 318 744 m 318 403 l 318 94 l 429 94 q 574 128 522 94 q 625 250 625 161 q 575 367 625 331 q 429 403 525 403 l 318 403 z "},"ѥ":{"ha":833,"x_min":106,"x_max":811,"o":"m 603 83 q 676 98 644 83 q 743 142 708 113 l 807 69 q 710 6 764 28 q 606 -15 657 -15 q 398 76 476 -15 q 311 325 319 167 l 222 325 l 222 0 l 106 0 l 106 732 l 222 732 l 222 422 l 313 422 q 403 658 326 569 q 610 747 479 747 q 715 728 667 747 q 811 668 764 708 l 751 596 q 682 638 715 624 q 607 651 649 651 q 484 592 528 651 q 428 421 440 533 l 703 421 l 703 329 l 426 329 q 478 144 431 206 q 603 83 525 83 z "},"ѧ":{"ha":833,"x_min":50,"x_max":785,"o":"m 551 283 l 464 283 l 464 0 l 364 0 l 364 283 l 279 283 l 169 0 l 50 0 l 351 732 l 486 732 l 785 0 l 661 0 l 551 283 m 515 378 l 415 636 l 315 378 l 515 378 z "},"ѩ":{"ha":833,"x_min":72,"x_max":825,"o":"m 632 285 l 578 285 l 578 0 l 483 0 l 483 285 l 433 285 l 353 0 l 244 0 l 331 285 l 188 285 l 188 0 l 72 0 l 72 732 l 188 732 l 188 381 l 360 381 l 465 732 l 607 732 l 825 0 l 713 0 l 632 285 m 606 381 l 533 639 l 460 381 l 606 381 z "},"ѫ":{"ha":833,"x_min":31,"x_max":803,"o":"m 803 0 l 696 0 l 578 322 l 474 322 l 474 0 l 358 0 l 358 322 l 257 322 l 140 0 l 31 0 l 182 415 l 308 415 l 140 668 l 140 732 l 686 732 l 686 668 l 517 415 l 651 415 l 803 0 m 415 415 l 560 642 l 271 642 l 415 415 z "},"ѭ":{"ha":833,"x_min":49,"x_max":850,"o":"m 850 0 l 739 0 l 638 318 l 586 318 l 586 0 l 478 0 l 478 318 l 428 318 l 324 0 l 214 0 l 325 318 l 163 318 l 163 0 l 49 0 l 49 732 l 163 732 l 163 414 l 431 414 l 282 668 l 282 732 l 775 732 l 775 668 l 626 414 l 710 414 l 850 0 m 533 414 l 657 644 l 406 644 l 533 414 z "},"ѯ":{"ha":833,"x_min":111,"x_max":719,"o":"m 622 1039 l 436 874 l 357 874 l 169 1039 l 225 1096 l 397 971 l 569 1096 l 622 1039 m 300 -297 q 164 -210 208 -257 q 119 -104 119 -162 q 178 3 119 -35 q 364 54 236 42 q 541 94 489 67 q 593 188 593 122 q 562 276 593 249 q 472 303 531 303 l 233 303 l 233 392 l 524 632 l 111 632 l 111 732 l 679 732 l 679 640 l 368 392 l 471 392 q 653 341 588 392 q 719 186 719 290 q 425 -40 719 -7 q 309 -58 349 -49 q 254 -79 269 -67 q 239 -114 239 -92 q 265 -167 239 -142 q 346 -219 292 -192 l 300 -297 z "},"ѱ":{"ha":833,"x_min":57,"x_max":790,"o":"m 474 88 q 597 131 554 97 q 656 219 640 164 q 672 364 672 275 q 636 732 672 524 l 754 732 q 781 544 772 633 q 790 353 790 456 q 713 99 790 192 q 474 -8 635 6 l 474 -281 l 363 -294 l 363 -8 q 133 79 210 3 q 57 268 57 156 l 57 732 l 174 732 l 174 279 q 216 144 174 189 q 363 88 258 99 l 363 732 l 474 732 l 474 88 z "},"ѳ":{"ha":833,"x_min":101,"x_max":732,"o":"m 418 747 q 651 645 569 747 q 732 367 732 543 q 649 90 732 194 q 417 -15 567 -15 q 183 87 265 -15 q 101 365 101 189 q 184 643 101 539 q 418 747 267 747 m 418 651 q 283 593 331 651 q 229 419 235 535 l 604 419 q 551 592 597 533 q 418 651 504 651 m 231 325 q 285 140 239 199 q 417 81 331 81 q 549 140 503 81 q 604 325 596 200 l 231 325 z "},"ѵ":{"ha":833,"x_min":79,"x_max":829,"o":"m 79 732 l 207 732 l 406 107 l 578 649 q 637 764 604 731 q 733 797 669 797 q 829 771 774 797 l 790 693 q 747 701 769 701 q 710 688 724 701 q 686 639 697 674 l 475 0 l 333 0 l 79 732 z "},"ѷ":{"ha":833,"x_min":79,"x_max":829,"o":"m 79 732 l 207 732 l 406 107 l 578 649 q 637 764 604 731 q 733 797 669 797 q 829 771 774 797 l 790 693 q 747 701 769 701 q 710 688 724 701 q 686 639 697 674 l 475 0 l 333 0 l 79 732 m 271 881 l 121 1107 l 224 1161 l 344 919 l 271 881 m 496 883 l 361 1111 l 465 1161 l 574 919 l 496 883 z "},"ѹ":{"ha":833,"x_min":0,"x_max":840,"o":"m 213 -15 q 0 365 0 -15 q 52 645 0 543 q 214 747 104 747 q 426 367 426 747 q 374 87 426 189 q 213 -15 322 -15 m 358 -207 q 523 -140 469 -185 q 599 0 576 -96 l 546 0 l 415 732 l 539 732 l 631 89 l 721 732 l 840 732 l 713 10 q 603 -205 686 -131 q 375 -294 521 -279 l 358 -207 m 213 78 q 288 145 267 78 q 308 367 308 213 q 288 588 308 521 q 214 656 268 656 q 139 588 160 656 q 118 365 118 521 q 138 144 118 211 q 213 78 158 78 z "},"ғ":{"ha":833,"x_min":131,"x_max":771,"o":"m 378 633 l 378 419 l 551 419 l 551 326 l 378 326 l 378 0 l 261 0 l 261 326 l 131 326 l 131 419 l 261 419 l 261 732 l 771 732 l 757 633 l 378 633 z "},"ҕ":{"ha":833,"x_min":142,"x_max":690,"o":"m 690 -85 q 635 -240 690 -186 q 488 -293 581 -293 q 331 -242 399 -293 l 376 -167 q 429 -191 408 -183 q 482 -199 450 -199 q 574 -94 574 -199 l 574 257 q 542 360 574 326 q 456 393 511 393 q 349 363 394 393 q 260 276 303 332 l 258 278 l 258 0 l 142 0 l 142 732 l 589 732 l 575 639 l 258 639 l 258 379 q 355 456 299 428 q 481 485 411 485 q 631 426 572 485 q 690 268 690 368 l 690 -85 z "},"җ":{"ha":833,"x_min":33,"x_max":835,"o":"m 835 96 l 835 -204 l 750 -204 l 731 0 l 682 0 l 543 343 l 468 343 l 468 0 l 365 0 l 365 343 l 286 343 l 149 0 l 33 0 l 197 393 l 47 732 l 165 732 l 288 433 l 365 433 l 365 732 l 468 732 l 468 433 l 546 433 l 672 732 l 786 732 l 636 393 l 760 96 l 835 96 z "},"ҙ":{"ha":833,"x_min":75,"x_max":718,"o":"m 718 218 q 644 59 718 118 q 446 -12 569 0 l 446 -79 q 542 -117 510 -85 q 575 -194 575 -150 q 526 -295 575 -260 q 406 -331 476 -331 q 326 -322 364 -331 q 260 -297 288 -312 l 297 -231 q 390 -253 339 -253 q 474 -196 474 -253 q 444 -147 474 -160 q 354 -135 415 -135 l 363 -15 q 75 86 194 -10 l 131 161 q 390 81 243 81 q 540 117 489 81 q 592 215 592 153 q 406 335 592 335 l 258 335 l 265 429 l 397 429 q 513 460 471 429 q 556 540 556 490 q 383 653 556 653 q 267 636 326 653 q 157 589 207 619 l 101 658 q 233 724 157 700 q 388 747 310 747 q 596 695 514 747 q 678 547 678 643 q 638 449 678 489 q 529 390 597 410 q 617 368 574 389 q 690 308 661 347 q 718 218 718 269 z "},"қ":{"ha":833,"x_min":147,"x_max":815,"o":"m 815 96 l 815 -204 l 718 -204 l 699 0 l 649 0 l 407 340 l 264 340 l 264 0 l 147 0 l 147 732 l 264 732 l 264 435 l 410 435 l 621 732 l 753 732 l 506 393 l 721 96 l 815 96 z "},"ҝ":{"ha":833,"x_min":147,"x_max":790,"o":"m 147 732 l 265 732 l 265 438 l 328 438 l 328 597 l 392 597 l 392 438 l 431 438 l 631 732 l 753 732 l 525 394 l 790 0 l 663 0 l 431 339 l 392 339 l 392 167 l 328 167 l 328 339 l 265 339 l 265 0 l 147 0 l 147 732 z "},"ҟ":{"ha":833,"x_min":54,"x_max":779,"o":"m 779 0 l 638 0 l 396 340 l 281 340 l 281 0 l 164 0 l 164 788 l 54 788 l 54 882 l 164 882 l 164 1026 l 281 1040 l 281 882 l 488 882 l 488 788 l 281 788 l 281 435 l 399 435 l 610 732 l 742 732 l 496 393 l 779 0 z "},"ҡ":{"ha":833,"x_min":11,"x_max":817,"o":"m 817 0 l 675 0 l 432 340 l 301 340 l 301 0 l 185 0 l 185 642 l 11 642 l 11 732 l 301 732 l 301 435 l 433 435 l 647 732 l 778 732 l 531 393 l 817 0 z "},"ң":{"ha":833,"x_min":119,"x_max":786,"o":"m 786 96 l 786 -204 l 690 -204 l 669 0 l 557 0 l 557 325 l 236 325 l 236 0 l 119 0 l 119 732 l 236 732 l 236 421 l 557 421 l 557 732 l 674 732 l 674 96 l 786 96 z "},"ԥ":{"ha":833,"x_min":131,"x_max":797,"o":"m 797 96 l 797 -204 l 701 -204 l 681 0 l 568 0 l 568 636 l 247 636 l 247 0 l 131 0 l 131 732 l 685 732 l 685 96 l 797 96 z "},"ҧ":{"ha":833,"x_min":39,"x_max":828,"o":"m 647 485 q 777 432 726 485 q 828 293 828 379 l 828 -83 q 772 -239 828 -185 q 622 -293 717 -293 q 465 -242 533 -293 l 513 -165 q 563 -188 540 -181 q 617 -196 585 -196 q 710 -92 710 -196 l 710 285 q 687 364 710 336 q 619 392 664 392 q 553 378 582 392 q 494 338 524 365 l 494 0 l 375 0 l 375 635 l 160 635 l 160 0 l 39 0 l 39 732 l 494 732 l 494 426 q 647 485 556 485 z "},"ҩ":{"ha":833,"x_min":79,"x_max":764,"o":"m 764 304 q 721 149 764 222 q 601 33 678 76 l 657 -33 l 717 -106 l 638 -165 l 568 -81 q 504 -4 510 -11 q 404 -15 464 -15 q 166 84 253 -15 q 79 360 79 183 q 117 564 79 476 q 225 699 154 651 q 392 747 296 747 q 561 706 488 747 l 514 621 q 397 649 461 649 q 257 576 307 649 q 207 363 207 504 q 408 81 207 81 l 440 81 q 381 193 401 140 q 360 299 360 246 q 415 447 360 386 q 564 507 469 507 q 710 451 656 507 q 764 304 764 396 m 475 297 q 492 205 475 250 q 544 108 510 160 q 624 188 597 136 q 650 304 650 239 q 628 385 650 356 q 565 415 606 415 q 498 383 521 415 q 475 297 475 351 z "},"ҫ":{"ha":833,"x_min":126,"x_max":717,"o":"m 528 -11 q 607 -85 579 -43 q 635 -178 635 -128 q 588 -290 635 -247 q 461 -332 542 -332 q 326 -297 382 -332 l 357 -226 q 403 -245 383 -239 q 454 -251 424 -251 q 513 -231 493 -251 q 533 -174 533 -210 q 431 -14 533 -82 q 206 99 286 -1 q 126 363 126 200 q 167 560 126 472 q 286 697 208 647 q 471 747 364 747 q 715 661 613 747 l 658 585 q 469 649 563 649 q 312 576 371 649 q 253 363 253 503 q 312 153 253 222 q 471 85 371 85 q 661 149 567 85 l 717 72 q 631 19 681 42 q 528 -11 581 -3 z "},"ҭ":{"ha":833,"x_min":90,"x_max":751,"o":"m 475 635 l 475 96 l 588 96 l 588 -204 l 490 -204 l 471 0 l 358 0 l 358 635 l 90 635 l 90 732 l 751 732 l 736 635 l 475 635 z "},"ү":{"ha":833,"x_min":81,"x_max":753,"o":"m 360 22 l 81 732 l 204 732 l 419 135 l 632 732 l 753 732 l 474 22 l 474 -281 l 360 -294 l 360 22 z "},"ұ":{"ha":833,"x_min":81,"x_max":753,"o":"m 504 100 l 619 100 l 619 6 l 474 6 l 474 -281 l 360 -294 l 360 6 l 214 6 l 214 100 l 329 100 l 81 732 l 204 732 l 419 135 l 632 732 l 753 732 l 504 100 z "},"ҳ":{"ha":833,"x_min":78,"x_max":756,"o":"m 78 0 l 347 386 l 110 732 l 249 732 l 418 460 l 589 732 l 724 732 l 486 392 l 756 0 l 614 0 l 413 314 l 211 0 l 78 0 m 475 -204 l 378 -204 l 358 0 l 308 0 l 313 96 l 475 96 l 475 -204 z "},"ҷ":{"ha":833,"x_min":104,"x_max":778,"o":"m 778 96 l 778 -204 l 682 -204 l 661 0 l 549 0 l 549 310 q 446 250 506 272 q 319 228 386 228 q 159 284 214 228 q 104 443 104 340 l 104 732 l 221 732 l 221 457 q 251 351 221 383 q 349 319 282 319 q 460 342 403 319 q 549 403 517 365 l 549 732 l 665 732 l 665 96 l 778 96 z "},"ҹ":{"ha":833,"x_min":118,"x_max":679,"o":"m 679 732 l 679 0 l 563 0 l 563 310 q 424 239 507 258 l 424 126 l 349 126 l 349 228 l 333 228 q 173 284 228 228 q 118 443 118 340 l 118 732 l 235 732 l 235 457 q 263 355 235 388 q 349 319 290 322 l 349 540 l 424 540 l 424 328 q 502 356 465 336 q 563 403 539 376 l 563 732 l 679 732 z "},"һ":{"ha":833,"x_min":140,"x_max":694,"o":"m 476 663 q 635 603 576 663 q 694 440 694 543 l 694 0 l 578 0 l 578 421 q 546 535 578 500 q 454 569 514 569 q 344 537 390 569 q 257 442 297 504 l 257 0 l 140 0 l 140 1025 l 257 1038 l 257 549 q 351 633 296 603 q 476 663 407 663 z "},"ԧ":{"ha":833,"x_min":133,"x_max":800,"o":"m 800 96 l 800 -204 l 704 -204 l 683 0 l 571 0 l 571 421 q 539 535 571 500 q 447 569 507 569 q 337 536 383 569 q 250 440 290 503 l 250 0 l 133 0 l 133 1025 l 250 1038 l 250 547 q 344 632 289 601 q 471 663 400 663 q 629 603 571 663 q 688 440 688 543 l 688 96 l 800 96 z "},"ҽ":{"ha":833,"x_min":15,"x_max":771,"o":"m 771 388 q 768 325 771 356 l 315 325 q 374 144 318 206 q 515 82 429 82 q 599 95 564 82 q 679 138 635 108 l 735 64 q 634 6 692 28 q 514 -15 576 -15 q 292 77 375 -15 q 199 326 208 169 q 62 369 108 328 q 15 481 15 411 q 29 551 15 519 q 69 622 43 583 l 143 585 q 122 532 129 554 q 115 486 115 510 q 133 433 115 451 q 186 414 151 414 l 200 414 q 290 654 211 561 q 493 747 369 747 q 698 651 625 747 q 771 388 771 556 m 658 414 q 494 653 654 653 q 369 592 417 653 q 315 414 322 532 l 658 414 z "},"ҿ":{"ha":833,"x_min":15,"x_max":771,"o":"m 771 388 q 768 325 771 356 l 315 325 q 374 144 318 206 q 515 82 429 82 q 599 95 564 82 q 679 138 635 108 l 735 64 q 617 0 681 19 q 481 -81 517 -43 q 444 -158 444 -118 q 463 -208 444 -192 q 522 -225 481 -225 q 607 -215 560 -225 l 596 -310 q 507 -318 538 -318 q 383 -280 429 -318 q 338 -182 338 -242 q 460 -12 338 -79 q 276 96 344 6 q 199 326 207 186 q 62 369 108 328 q 15 481 15 411 q 29 551 15 519 q 69 622 43 583 l 143 585 q 122 532 129 554 q 115 486 115 510 q 133 433 115 451 q 186 414 151 414 l 200 414 q 290 654 211 561 q 493 747 369 747 q 698 651 625 747 q 771 388 771 556 m 658 414 q 494 653 654 653 q 369 592 417 653 q 315 414 322 532 l 658 414 z "},"ӏ":{"ha":833,"x_min":83,"x_max":699,"o":"m 425 181 q 546 82 425 82 q 668 107 603 82 l 699 22 q 525 -15 629 -15 q 367 39 426 -15 q 308 186 308 93 l 308 933 l 83 933 l 83 1026 l 425 1026 l 425 181 z "},"ӂ":{"ha":833,"x_min":28,"x_max":806,"o":"m 365 343 l 286 343 l 142 0 l 28 0 l 197 393 l 40 732 l 160 732 l 288 433 l 365 433 l 365 732 l 468 732 l 468 433 l 546 433 l 678 732 l 793 732 l 636 393 l 806 0 l 688 0 l 543 343 l 468 343 l 468 0 l 365 0 l 365 343 m 414 899 q 275 940 332 899 q 210 1054 218 981 l 289 1072 q 334 1008 304 1028 q 414 989 364 989 q 496 1008 464 989 q 543 1072 528 1028 l 624 1054 q 556 940 615 981 q 414 899 497 899 z "},"ӄ":{"ha":833,"x_min":149,"x_max":682,"o":"m 475 417 q 625 350 572 407 q 678 189 678 293 l 678 -85 q 623 -240 678 -186 q 475 -293 568 -293 q 319 -242 388 -293 l 365 -167 q 417 -191 394 -183 q 471 -199 439 -199 q 538 -173 514 -199 q 561 -94 561 -147 l 561 174 q 527 290 561 257 q 410 324 493 324 l 265 324 l 265 0 l 149 0 l 149 732 l 265 732 l 265 418 l 360 418 l 556 732 l 682 732 l 475 417 z "},"ӆ":{"ha":833,"x_min":58,"x_max":774,"o":"m 774 92 l 682 -204 l 586 -204 l 635 0 l 550 0 l 550 633 l 318 633 l 301 440 q 267 193 288 276 q 212 67 247 110 q 107 -15 176 24 l 58 60 q 120 116 97 85 q 160 222 143 147 q 189 436 178 296 l 211 732 l 667 732 l 667 92 l 774 92 z "},"ӈ":{"ha":833,"x_min":139,"x_max":694,"o":"m 694 -85 q 640 -240 694 -186 q 492 -293 585 -293 q 335 -242 403 -293 l 382 -167 q 433 -191 413 -183 q 486 -199 454 -199 q 578 -94 578 -199 l 578 325 l 256 325 l 256 0 l 139 0 l 139 732 l 256 732 l 256 421 l 578 421 l 578 732 l 694 732 l 694 -85 z "},"ӊ":{"ha":833,"x_min":142,"x_max":778,"o":"m 778 92 l 686 -204 l 590 -204 l 639 0 l 553 0 l 553 325 l 258 325 l 258 0 l 142 0 l 142 732 l 258 732 l 258 421 l 553 421 l 553 732 l 669 732 l 669 92 l 778 92 z "},"ӌ":{"ha":833,"x_min":118,"x_max":679,"o":"m 679 732 l 679 0 l 582 0 l 561 -204 l 465 -204 l 465 96 l 563 96 l 563 319 q 460 260 521 282 q 333 238 400 238 q 173 294 228 238 q 118 453 118 350 l 118 732 l 235 732 l 235 467 q 265 363 235 394 q 363 331 296 331 q 474 353 417 331 q 563 414 531 376 l 563 732 l 679 732 z "},"ӎ":{"ha":833,"x_min":72,"x_max":829,"o":"m 829 92 l 738 -204 l 643 -204 l 690 0 l 622 0 l 594 357 q 588 544 588 454 q 589 628 588 599 l 465 122 l 349 122 l 208 628 q 210 531 210 596 q 206 360 210 435 l 185 0 l 72 0 l 125 732 l 278 732 l 408 232 l 528 732 l 682 732 l 729 92 l 829 92 z "},"ӑ":{"ha":833,"x_min":96,"x_max":724,"o":"m 664 160 q 678 97 664 117 q 724 67 692 76 l 694 -17 q 561 88 588 -3 q 463 11 522 38 q 332 -15 404 -15 q 159 46 222 -15 q 96 210 96 107 q 184 383 96 322 q 438 444 272 444 l 546 444 l 546 504 q 501 616 546 582 q 372 650 457 650 q 182 613 289 650 l 150 701 q 390 747 279 747 q 594 685 524 747 q 664 511 664 622 l 664 160 m 361 72 q 465 100 415 72 q 546 176 514 128 l 546 364 l 440 364 q 272 325 324 364 q 221 211 221 286 q 361 72 221 72 m 403 899 q 264 940 321 899 q 199 1054 207 981 l 278 1072 q 323 1008 293 1028 q 403 989 353 989 q 485 1008 453 989 q 532 1072 517 1028 l 613 1054 q 545 940 604 981 q 403 899 486 899 z "},"ӓ":{"ha":833,"x_min":96,"x_max":724,"o":"m 664 160 q 678 97 664 117 q 724 67 692 76 l 694 -17 q 561 88 588 -3 q 463 11 522 38 q 332 -15 404 -15 q 159 46 222 -15 q 96 210 96 107 q 184 383 96 322 q 438 444 272 444 l 546 444 l 546 504 q 501 616 546 582 q 372 650 457 650 q 182 613 289 650 l 150 701 q 390 747 279 747 q 594 685 524 747 q 664 511 664 622 l 664 160 m 361 72 q 465 100 415 72 q 546 176 514 128 l 546 364 l 440 364 q 272 325 324 364 q 221 211 221 286 q 361 72 221 72 m 261 900 q 207 922 229 900 q 185 974 185 943 q 207 1028 185 1007 q 261 1050 229 1050 q 315 1028 293 1050 q 336 974 336 1007 q 315 921 336 942 q 261 900 293 900 m 549 900 q 495 921 517 900 q 474 974 474 942 q 495 1028 474 1007 q 549 1050 517 1050 q 603 1028 581 1050 q 625 974 625 1007 q 603 922 625 943 q 549 900 581 900 z "},"ӗ":{"ha":833,"x_min":110,"x_max":726,"o":"m 232 325 q 295 143 236 204 q 444 82 354 82 q 544 98 499 82 q 640 147 589 114 l 694 69 q 577 7 643 29 q 444 -15 511 -15 q 198 88 286 -15 q 110 365 110 192 q 149 562 110 475 q 260 698 188 649 q 428 747 332 747 q 647 651 567 747 q 726 388 726 554 q 724 325 726 356 l 232 325 m 429 651 q 292 591 344 651 q 232 414 239 531 l 613 414 q 563 590 611 529 q 429 651 514 651 m 428 899 q 289 940 346 899 q 224 1054 232 981 l 303 1072 q 348 1008 318 1028 q 428 989 378 989 q 510 1008 478 989 q 557 1072 542 1028 l 638 1054 q 570 940 629 981 q 428 899 511 899 z "},"ә":{"ha":833,"x_min":101,"x_max":729,"o":"m 406 747 q 650 647 571 747 q 729 367 729 547 q 644 86 729 188 q 408 -15 558 -15 q 183 80 265 -15 q 101 343 101 175 q 104 407 101 388 l 603 407 q 547 591 596 533 q 403 649 499 649 q 299 633 344 649 q 210 581 254 618 l 154 661 q 406 747 263 747 m 408 79 q 551 134 503 79 q 604 317 599 189 l 217 317 l 217 306 q 267 138 217 197 q 408 79 318 79 z "},"ӛ":{"ha":833,"x_min":101,"x_max":729,"o":"m 406 747 q 650 647 571 747 q 729 367 729 547 q 644 86 729 188 q 408 -15 558 -15 q 183 80 265 -15 q 101 343 101 175 q 104 407 101 388 l 603 407 q 547 591 596 533 q 403 649 499 649 q 299 633 344 649 q 210 581 254 618 l 154 661 q 406 747 263 747 m 408 79 q 551 134 503 79 q 604 317 599 189 l 217 317 l 217 306 q 267 138 217 197 q 408 79 318 79 m 272 900 q 218 922 240 900 q 196 974 196 943 q 218 1028 196 1007 q 272 1050 240 1050 q 326 1028 304 1050 q 347 974 347 1007 q 326 921 347 942 q 272 900 304 900 m 560 900 q 506 921 528 900 q 485 974 485 942 q 506 1028 485 1007 q 560 1050 528 1050 q 614 1028 592 1050 q 636 974 636 1007 q 614 922 636 943 q 560 900 592 900 z "},"ӝ":{"ha":833,"x_min":28,"x_max":806,"o":"m 365 343 l 286 343 l 142 0 l 28 0 l 197 393 l 40 732 l 160 732 l 288 433 l 365 433 l 365 732 l 468 732 l 468 433 l 546 433 l 678 732 l 793 732 l 636 393 l 806 0 l 688 0 l 543 343 l 468 343 l 468 0 l 365 0 l 365 343 m 272 900 q 218 922 240 900 q 196 974 196 943 q 218 1028 196 1007 q 272 1050 240 1050 q 326 1028 304 1050 q 347 974 347 1007 q 326 921 347 942 q 272 900 304 900 m 560 900 q 506 921 528 900 q 485 974 485 942 q 506 1028 485 1007 q 560 1050 528 1050 q 614 1028 592 1050 q 636 974 636 1007 q 614 922 636 943 q 560 900 592 900 z "},"ӟ":{"ha":833,"x_min":75,"x_max":718,"o":"m 397 429 q 513 460 471 429 q 556 540 556 490 q 383 653 556 653 q 267 636 326 653 q 157 589 207 619 l 101 658 q 233 724 157 700 q 388 747 310 747 q 596 695 514 747 q 678 547 678 643 q 638 449 678 489 q 529 390 597 410 q 617 368 574 389 q 690 308 661 347 q 718 218 718 269 q 626 45 718 106 q 386 -15 535 -15 q 75 86 199 -15 l 131 161 q 390 81 243 81 q 540 117 489 81 q 592 215 592 153 q 406 335 592 335 l 258 335 l 265 429 l 397 429 m 264 900 q 210 922 232 900 q 188 974 188 943 q 210 1028 188 1007 q 264 1050 232 1050 q 317 1028 296 1050 q 339 974 339 1007 q 317 921 339 942 q 264 900 296 900 m 551 900 q 498 921 519 900 q 476 974 476 942 q 498 1028 476 1007 q 551 1050 519 1050 q 606 1028 583 1050 q 628 974 628 1007 q 606 922 628 943 q 551 900 583 900 z "},"ӡ":{"ha":833,"x_min":86,"x_max":718,"o":"m 389 285 q 631 214 544 285 q 718 8 718 143 q 676 -151 718 -82 q 558 -257 633 -219 q 388 -294 483 -294 q 213 -263 285 -294 q 86 -168 140 -232 l 157 -106 q 259 -176 207 -154 q 386 -197 311 -197 q 538 -143 483 -197 q 592 13 592 -89 q 537 153 592 110 q 369 196 482 196 l 249 196 l 249 283 l 551 632 l 129 632 l 129 732 l 686 732 l 686 640 l 374 285 l 389 285 z "},"ӣ":{"ha":833,"x_min":139,"x_max":694,"o":"m 694 0 l 578 0 l 578 342 q 584 515 578 444 q 590 593 590 586 l 282 0 l 139 0 l 139 732 l 256 732 l 256 389 q 250 226 256 301 q 244 143 244 150 l 549 732 l 694 732 l 694 0 m 229 939 l 229 1028 l 603 1028 l 603 939 l 229 939 z "},"ӥ":{"ha":833,"x_min":139,"x_max":694,"o":"m 694 0 l 578 0 l 578 342 q 584 515 578 444 q 590 593 590 586 l 282 0 l 139 0 l 139 732 l 256 732 l 256 389 q 250 226 256 301 q 244 143 244 150 l 549 732 l 694 732 l 694 0 m 272 900 q 218 922 240 900 q 196 974 196 943 q 218 1028 196 1007 q 272 1050 240 1050 q 326 1028 304 1050 q 347 974 347 1007 q 326 921 347 942 q 272 900 304 900 m 560 900 q 506 921 528 900 q 485 974 485 942 q 506 1028 485 1007 q 560 1050 528 1050 q 614 1028 592 1050 q 636 974 636 1007 q 614 922 636 943 q 560 900 592 900 z "},"ӧ":{"ha":833,"x_min":101,"x_max":732,"o":"m 418 747 q 651 645 569 747 q 732 367 732 543 q 649 90 732 194 q 417 -15 567 -15 q 183 87 265 -15 q 101 365 101 189 q 184 643 101 539 q 418 747 267 747 m 418 651 q 275 581 322 651 q 228 365 228 510 q 274 151 228 221 q 417 81 321 81 q 559 151 513 81 q 606 367 606 221 q 559 581 606 511 q 418 651 513 651 m 272 900 q 218 922 240 900 q 196 974 196 943 q 218 1028 196 1007 q 272 1050 240 1050 q 326 1028 304 1050 q 347 974 347 1007 q 326 921 347 942 q 272 900 304 900 m 560 900 q 506 921 528 900 q 485 974 485 942 q 506 1028 485 1007 q 560 1050 528 1050 q 614 1028 592 1050 q 636 974 636 1007 q 614 922 636 943 q 560 900 592 900 z "},"ө":{"ha":833,"x_min":101,"x_max":732,"o":"m 418 747 q 651 645 569 747 q 732 367 732 543 q 649 90 732 194 q 417 -15 567 -15 q 183 87 265 -15 q 101 365 101 189 q 184 643 101 539 q 418 747 267 747 m 418 651 q 283 593 331 651 q 229 419 235 535 l 604 419 q 551 592 597 533 q 418 651 504 651 m 231 325 q 285 140 239 199 q 417 81 331 81 q 549 140 503 81 q 604 325 596 200 l 231 325 z "},"ӫ":{"ha":833,"x_min":101,"x_max":732,"o":"m 418 747 q 651 645 569 747 q 732 367 732 543 q 649 90 732 194 q 417 -15 567 -15 q 183 87 265 -15 q 101 365 101 189 q 184 643 101 539 q 418 747 267 747 m 418 651 q 283 593 331 651 q 229 419 235 535 l 604 419 q 551 592 597 533 q 418 651 504 651 m 231 325 q 285 140 239 199 q 417 81 331 81 q 549 140 503 81 q 604 325 596 200 l 231 325 m 274 900 q 219 922 242 900 q 197 974 197 943 q 219 1028 197 1007 q 274 1050 242 1050 q 327 1028 306 1050 q 349 974 349 1007 q 327 921 349 942 q 274 900 306 900 m 561 900 q 508 921 529 900 q 486 974 486 942 q 508 1028 486 1007 q 561 1050 529 1050 q 615 1028 593 1050 q 638 974 638 1007 q 615 922 638 943 q 561 900 593 900 z "},"ӭ":{"ha":833,"x_min":126,"x_max":717,"o":"m 386 747 q 633 647 550 747 q 717 369 717 547 q 629 89 717 193 q 379 -15 542 -15 q 244 7 311 -15 q 126 71 176 29 l 183 149 q 378 82 272 82 q 532 142 475 82 q 596 329 589 203 l 251 329 l 251 421 l 594 421 q 531 595 585 538 q 385 653 476 653 q 189 588 276 653 l 133 663 q 250 725 182 703 q 386 747 318 747 m 264 900 q 210 922 232 900 q 188 974 188 943 q 210 1028 188 1007 q 264 1050 232 1050 q 317 1028 296 1050 q 339 974 339 1007 q 317 921 339 942 q 264 900 296 900 m 551 900 q 498 921 519 900 q 476 974 476 942 q 498 1028 476 1007 q 551 1050 519 1050 q 606 1028 583 1050 q 628 974 628 1007 q 606 922 628 943 q 551 900 583 900 z "},"ӯ":{"ha":833,"x_min":86,"x_max":747,"o":"m 492 -4 q 374 -206 449 -131 q 164 -294 299 -281 l 147 -201 q 265 -163 221 -189 q 333 -99 308 -137 q 379 0 358 -61 l 340 0 l 86 732 l 210 732 l 419 89 l 626 732 l 747 732 l 492 -4 m 229 939 l 229 1028 l 603 1028 l 603 939 l 229 939 z "},"ӱ":{"ha":833,"x_min":86,"x_max":747,"o":"m 492 -4 q 374 -206 449 -131 q 164 -294 299 -281 l 147 -201 q 265 -163 221 -189 q 333 -99 308 -137 q 379 0 358 -61 l 340 0 l 86 732 l 210 732 l 419 89 l 626 732 l 747 732 l 492 -4 m 272 900 q 218 922 240 900 q 196 974 196 943 q 218 1028 196 1007 q 272 1050 240 1050 q 326 1028 304 1050 q 347 974 347 1007 q 326 921 347 942 q 272 900 304 900 m 560 900 q 506 921 528 900 q 485 974 485 942 q 506 1028 485 1007 q 560 1050 528 1050 q 614 1028 592 1050 q 636 974 636 1007 q 614 922 636 943 q 560 900 592 900 z "},"ӳ":{"ha":833,"x_min":86,"x_max":747,"o":"m 492 -4 q 374 -206 449 -131 q 164 -294 299 -281 l 147 -201 q 265 -163 221 -189 q 333 -99 308 -137 q 379 0 358 -61 l 340 0 l 86 732 l 210 732 l 419 89 l 626 732 l 747 732 l 492 -4 m 353 1161 l 457 1111 l 322 883 l 244 919 l 353 1161 m 594 1161 l 697 1107 l 547 881 l 474 919 l 594 1161 z "},"ӵ":{"ha":833,"x_min":118,"x_max":679,"o":"m 679 0 l 563 0 l 563 310 q 460 250 519 272 q 333 228 400 228 q 173 284 228 228 q 118 443 118 340 l 118 732 l 235 732 l 235 457 q 265 351 235 383 q 363 319 296 319 q 474 342 417 319 q 563 403 531 365 l 563 732 l 679 732 l 679 0 m 254 900 q 200 922 222 900 q 178 974 178 943 q 200 1028 178 1007 q 254 1050 222 1050 q 308 1028 286 1050 q 329 974 329 1007 q 308 921 329 942 q 254 900 286 900 m 542 900 q 488 921 510 900 q 467 974 467 942 q 488 1028 467 1007 q 542 1050 510 1050 q 596 1028 574 1050 q 618 974 618 1007 q 596 922 618 943 q 542 900 574 900 z "},"ӷ":{"ha":833,"x_min":219,"x_max":728,"o":"m 336 633 l 336 96 l 449 96 l 449 -204 l 351 -204 l 332 0 l 219 0 l 219 732 l 728 732 l 714 633 l 336 633 z "}}}
